<ttFont>
    <TTGlyph name=".notdef" xMin="35" yMin="-299" xMax="314" yMax="1475">
      <contour>
        <pt x="70" y="-197" on="1"/>
        <pt x="280" y="-197" on="1"/>
        <pt x="280" y="1373" on="1"/>
        <pt x="70" y="1373" on="1"/>
      </contour>
      <contour>
        <pt x="35" y="-299" on="1"/>
        <pt x="35" y="1475" on="1"/>
        <pt x="314" y="1475" on="1"/>
        <pt x="314" y="-299" on="1"/>
      </contour>
    </TTGlyph>
    <TTGlyph name="A" xMin="57" yMin="0" xMax="712" yMax="1438">
      <contour>
        <pt x="72" y="0" on="1"/>
        <pt x="57" y="0" on="0"/>
        <pt x="57" y="31" on="1"/>
        <pt x="57" y="42" on="1"/>
        <pt x="57" y="50" on="0"/>
        <pt x="58" y="56" on="1"/>
        <pt x="306" y="1383" on="1"/>
        <pt x="316" y="1435" on="0"/>
        <pt x="342" y="1438" on="1"/>
        <pt x="437" y="1438" on="1"/>
        <pt x="463" y="1435" on="0"/>
        <pt x="472" y="1383" on="1"/>
        <pt x="706" y="56" on="1"/>
        <pt x="707" y="51" on="0"/>
        <pt x="712" y="36" on="0"/>
        <pt x="712" y="30" on="1"/>
        <pt x="712" y="0" on="0"/>
        <pt x="697" y="0" on="1"/>
        <pt x="626" y="0" on="1"/>
        <pt x="594" y="0" on="0"/>
        <pt x="586" y="49" on="1"/>
        <pt x="541" y="337" on="1"/>
        <pt x="538" y="347" on="0"/>
        <pt x="535" y="347" on="1"/>
        <pt x="222" y="347" on="1"/>
        <pt x="220" y="347" on="0"/>
        <pt x="217" y="336" on="1"/>
        <pt x="165" y="50" on="1"/>
        <pt x="159" y="21" on="0"/>
        <pt x="144" y="0" on="0"/>
        <pt x="130" y="0" on="1"/>
      </contour>
      <contour>
        <pt x="251" y="427" on="1"/>
        <pt x="251" y="427" on="0"/>
        <pt x="520" y="427" on="1"/>
        <pt x="524" y="427" on="0"/>
        <pt x="524" y="436" on="1"/>
        <pt x="524" y="441" on="0"/>
        <pt x="522" y="442" on="1"/>
        <pt x="389" y="1296" on="1"/>
        <pt x="387" y="1300" on="1"/>
        <pt x="385" y="1300" on="0"/>
        <pt x="385" y="1296" on="1"/>
        <pt x="242" y="447" on="1"/>
        <pt x="241" y="442" on="0"/>
        <pt x="241" y="438" on="1"/>
        <pt x="241" y="427" on="0"/>
      </contour>
    </TTGlyph>
    <TTGlyph name="AE" xMin="56" yMin="0" xMax="930" yMax="1438">
      <contour>
        <pt x="70" y="0" on="1"/>
        <pt x="58" y="0" on="0"/>
        <pt x="58" y="31" on="1"/>
        <pt x="58" y="34" on="0"/>
        <pt x="56" y="42" on="0"/>
        <pt x="56" y="44" on="1"/>
        <pt x="56" y="50" on="0"/>
        <pt x="61" y="56" on="1"/>
        <pt x="438" y="1383" on="1"/>
        <pt x="453" y="1438" on="0"/>
        <pt x="480" y="1438" on="1"/>
        <pt x="874" y="1438" on="1"/>
        <pt x="886" y="1438" on="0"/>
        <pt x="897" y="1428" on="0"/>
        <pt x="897" y="1407" on="1"/>
        <pt x="897" y="1379" on="1"/>
        <pt x="897" y="1364" on="0"/>
        <pt x="890" y="1350" on="0"/>
        <pt x="883" y="1348" on="0"/>
        <pt x="874" y="1348" on="1"/>
        <pt x="652" y="1348" on="1"/>
        <pt x="642" y="1348" on="0"/>
        <pt x="642" y="1320" on="1"/>
        <pt x="642" y="801" on="1"/>
        <pt x="642" y="798" on="0"/>
        <pt x="647" y="787" on="0"/>
        <pt x="648" y="787" on="1"/>
        <pt x="872" y="787" on="1"/>
        <pt x="885" y="787" on="0"/>
        <pt x="896" y="775" on="0"/>
        <pt x="896" y="756" on="1"/>
        <pt x="896" y="727" on="1"/>
        <pt x="896" y="706" on="0"/>
        <pt x="885" y="694" on="0"/>
        <pt x="872" y="694" on="1"/>
        <pt x="648" y="694" on="1"/>
        <pt x="647" y="694" on="0"/>
        <pt x="642" y="676" on="0"/>
        <pt x="642" y="673" on="1"/>
        <pt x="642" y="90" on="1"/>
        <pt x="907" y="90" on="1"/>
        <pt x="916" y="90" on="0"/>
        <pt x="923" y="88" on="0"/>
        <pt x="930" y="74" on="0"/>
        <pt x="930" y="59" on="1"/>
        <pt x="930" y="31" on="1"/>
        <pt x="930" y="10" on="0"/>
        <pt x="920" y="0" on="0"/>
        <pt x="907" y="0" on="1"/>
        <pt x="550" y="0" on="1"/>
        <pt x="541" y="0" on="0"/>
        <pt x="533" y="3" on="0"/>
        <pt x="527" y="19" on="0"/>
        <pt x="527" y="35" on="1"/>
        <pt x="527" y="347" on="1"/>
        <pt x="257" y="347" on="1"/>
        <pt x="254" y="347" on="0"/>
        <pt x="251" y="336" on="1"/>
        <pt x="170" y="50" on="1"/>
        <pt x="164" y="21" on="0"/>
        <pt x="146" y="0" on="0"/>
        <pt x="131" y="0" on="1"/>
        <pt x="131" y="0" on="0"/>
      </contour>
      <contour>
        <pt x="294" y="427" on="1"/>
        <pt x="294" y="427" on="0"/>
        <pt x="525" y="427" on="1"/>
        <pt x="527" y="427" on="0"/>
        <pt x="527" y="445" on="1"/>
        <pt x="527" y="1321" on="1"/>
        <pt x="527" y="1335" on="0"/>
        <pt x="526" y="1335" on="1"/>
        <pt x="522" y="1324" on="1"/>
        <pt x="285" y="447" on="1"/>
        <pt x="283" y="437" on="0"/>
        <pt x="283" y="436" on="1"/>
        <pt x="283" y="427" on="0"/>
      </contour>
    </TTGlyph>
    <TTGlyph name="Aacute" xMin="57" yMin="0" xMax="712" yMax="2010">
      <component glyphName="acute" x="-2" y="407" flags="0x1004"/>
      <component glyphName="A" x="0" y="0" flags="0x1204"/>
    </TTGlyph>
    <TTGlyph name="Abreve" xMin="57" yMin="0" xMax="712" yMax="1748">
      <component glyphName="breve" x="-218" y="281" flags="0x1004"/>
      <component glyphName="A" x="0" y="0" flags="0x1204"/>
    </TTGlyph>
    <TTGlyph name="Acircumflex" xMin="57" yMin="0" xMax="712" yMax="1841">
      <component glyphName="circumflex" x="236" y="339" flags="0x1004"/>
      <component glyphName="A" x="0" y="0" flags="0x1204"/>
    </TTGlyph>
    <TTGlyph name="Adieresis" xMin="57" yMin="0" xMax="712" yMax="1714">
      <component glyphName="dieresis" x="165" y="1574" flags="0x1004"/>
      <component glyphName="A" x="0" y="0" flags="0x1204"/>
    </TTGlyph>
    <TTGlyph name="Agrave" xMin="57" yMin="0" xMax="712" yMax="2010">
      <component glyphName="grave" x="-73" y="407" flags="0x1004"/>
      <component glyphName="A" x="0" y="0" flags="0x1204"/>
    </TTGlyph>
    <TTGlyph name="Amacron" xMin="57" yMin="0" xMax="712" yMax="1651">
      <component glyphName="macron" x="51" y="1357" flags="0x1004"/>
      <component glyphName="A" x="0" y="0" flags="0x1204"/>
    </TTGlyph>
    <TTGlyph name="Aogonek" xMin="57" yMin="-329" xMax="712" yMax="1438">
      <component glyphName="ogonek" x="193" y="0" flags="0x1004"/>
      <component glyphName="A" x="0" y="0" flags="0x1004"/>
    </TTGlyph>
    <TTGlyph name="Aring" xMin="57" yMin="0" xMax="712" yMax="1767">
      <component glyphName="ring" x="-15" y="950" flags="0x1004"/>
      <component glyphName="A" x="0" y="0" flags="0x1204"/>
    </TTGlyph>
    <TTGlyph name="Atilde" xMin="57" yMin="0" xMax="712" yMax="1721">
      <component glyphName="tilde" x="146" y="749" flags="0x1004"/>
      <component glyphName="A" x="0" y="0" flags="0x1204"/>
    </TTGlyph>
    <TTGlyph name="B" xMin="108" yMin="0" xMax="800" yMax="1438">
      <contour>
        <pt x="135" y="0" on="1"/>
        <pt x="120" y="0" on="0"/>
        <pt x="108" y="13" on="0"/>
        <pt x="108" y="39" on="1"/>
        <pt x="108" y="1397" on="1"/>
        <pt x="108" y="1416" on="0"/>
        <pt x="116" y="1435" on="0"/>
        <pt x="125" y="1438" on="0"/>
        <pt x="135" y="1438" on="1"/>
        <pt x="451" y="1438" on="1"/>
        <pt x="524" y="1438" on="0"/>
        <pt x="634" y="1397" on="0"/>
        <pt x="718" y="1308" on="0"/>
        <pt x="762" y="1152" on="0"/>
        <pt x="762" y="1042" on="1"/>
        <pt x="762" y="848" on="0"/>
        <pt x="648" y="775" on="1"/>
        <pt x="640" y="770" on="0"/>
        <pt x="640" y="762" on="0"/>
        <pt x="649" y="758" on="1"/>
        <pt x="800" y="664" on="0"/>
        <pt x="800" y="424" on="1"/>
        <pt x="800" y="303" on="0"/>
        <pt x="753" y="137" on="0"/>
        <pt x="656" y="41" on="0"/>
        <pt x="525" y="0" on="0"/>
        <pt x="431" y="0" on="1"/>
      </contour>
      <contour>
        <pt x="234" y="88" on="1"/>
        <pt x="234" y="88" on="0"/>
        <pt x="430" y="88" on="1"/>
        <pt x="567" y="88" on="0"/>
        <pt x="688" y="255" on="0"/>
        <pt x="688" y="420" on="1"/>
        <pt x="688" y="558" on="0"/>
        <pt x="569" y="721" on="0"/>
        <pt x="481" y="721" on="1"/>
        <pt x="481" y="721" on="0"/>
        <pt x="234" y="721" on="1"/>
        <pt x="220" y="721" on="0"/>
        <pt x="220" y="700" on="1"/>
        <pt x="220" y="104" on="1"/>
        <pt x="220" y="96" on="0"/>
        <pt x="224" y="89" on="0"/>
        <pt x="229" y="88" on="0"/>
      </contour>
      <contour>
        <pt x="234" y="807" on="1"/>
        <pt x="488" y="807" on="1"/>
        <pt x="562" y="807" on="0"/>
        <pt x="652" y="929" on="0"/>
        <pt x="652" y="1043" on="1"/>
        <pt x="652" y="1200" on="0"/>
        <pt x="547" y="1348" on="0"/>
        <pt x="438" y="1348" on="1"/>
        <pt x="438" y="1348" on="0"/>
        <pt x="234" y="1348" on="1"/>
        <pt x="226" y="1348" on="0"/>
        <pt x="220" y="1342" on="0"/>
        <pt x="220" y="1328" on="1"/>
        <pt x="220" y="823" on="1"/>
        <pt x="220" y="815" on="0"/>
        <pt x="224" y="808" on="0"/>
        <pt x="229" y="807" on="0"/>
      </contour>
    </TTGlyph>
    <TTGlyph name="C" xMin="89" yMin="-14" xMax="614" yMax="1452">
      <contour>
        <pt x="451" y="-14" on="1"/>
        <pt x="407" y="-14" on="0"/>
        <pt x="344" y="-6" on="0"/>
        <pt x="264" y="28" on="0"/>
        <pt x="207" y="87" on="0"/>
        <pt x="148" y="196" on="0"/>
        <pt x="112" y="349" on="0"/>
        <pt x="89" y="577" on="0"/>
        <pt x="89" y="721" on="1"/>
        <pt x="89" y="859" on="0"/>
        <pt x="112" y="1080" on="0"/>
        <pt x="149" y="1231" on="0"/>
        <pt x="207" y="1342" on="0"/>
        <pt x="267" y="1404" on="0"/>
        <pt x="347" y="1441" on="0"/>
        <pt x="417" y="1452" on="0"/>
        <pt x="461" y="1452" on="1"/>
        <pt x="548" y="1452" on="0"/>
        <pt x="602" y="1427" on="1"/>
        <pt x="614" y="1421" on="0"/>
        <pt x="614" y="1411" on="1"/>
        <pt x="614" y="1345" on="1"/>
        <pt x="614" y="1335" on="0"/>
        <pt x="607" y="1335" on="1"/>
        <pt x="600" y="1338" on="1"/>
        <pt x="592" y="1340" on="0"/>
        <pt x="568" y="1346" on="0"/>
        <pt x="537" y="1353" on="0"/>
        <pt x="497" y="1358" on="0"/>
        <pt x="478" y="1358" on="1"/>
        <pt x="430" y="1358" on="0"/>
        <pt x="359" y="1336" on="0"/>
        <pt x="283" y="1259" on="0"/>
        <pt x="235" y="1124" on="0"/>
        <pt x="204" y="886" on="0"/>
        <pt x="204" y="721" on="1"/>
        <pt x="204" y="553" on="0"/>
        <pt x="230" y="315" on="0"/>
        <pt x="272" y="179" on="0"/>
        <pt x="343" y="102" on="0"/>
        <pt x="411" y="80" on="0"/>
        <pt x="460" y="80" on="1"/>
        <pt x="528" y="80" on="0"/>
        <pt x="588" y="100" on="1"/>
        <pt x="591" y="101" on="0"/>
        <pt x="596" y="92" on="0"/>
        <pt x="596" y="88" on="1"/>
        <pt x="596" y="19" on="1"/>
        <pt x="596" y="9" on="0"/>
        <pt x="588" y="7" on="1"/>
        <pt x="531" y="-14" on="0"/>
      </contour>
    </TTGlyph>
    <TTGlyph name="Cacute" xMin="89" yMin="-14" xMax="614" yMax="2010">
      <component glyphName="acute" x="-34" y="407" flags="0x1004"/>
      <component glyphName="C" x="0" y="0" flags="0x1204"/>
    </TTGlyph>
    <TTGlyph name="Ccaron" xMin="89" yMin="-14" xMax="614" yMax="1841">
      <component glyphName="caron" x="203" y="339" flags="0x1004"/>
      <component glyphName="C" x="0" y="0" flags="0x1204"/>
    </TTGlyph>
    <TTGlyph name="Ccedilla" xMin="89" yMin="-531" xMax="614" yMax="1452">
      <component glyphName="cedilla" x="224" y="75" flags="0x1004"/>
      <component glyphName="C" x="0" y="0" flags="0x1204"/>
    </TTGlyph>
    <TTGlyph name="Ccircumflex" xMin="89" yMin="-14" xMax="614" yMax="1841">
      <component glyphName="circumflex" x="203" y="339" flags="0x1004"/>
      <component glyphName="C" x="0" y="0" flags="0x1204"/>
    </TTGlyph>
    <TTGlyph name="Cdotaccent" xMin="89" yMin="-14" xMax="614" yMax="1761">
      <component glyphName="dotaccent" x="304" y="1476" flags="0x1004"/>
      <component glyphName="C" x="0" y="0" flags="0x1204"/>
    </TTGlyph>
    <TTGlyph name="D" xMin="108" yMin="0" xMax="812" yMax="1438">
      <contour>
        <pt x="232" y="90" on="1"/>
        <pt x="232" y="90" on="0"/>
        <pt x="423" y="90" on="1"/>
        <pt x="490" y="90" on="0"/>
        <pt x="581" y="129" on="0"/>
        <pt x="646" y="214" on="0"/>
        <pt x="682" y="367" on="0"/>
        <pt x="697" y="571" on="0"/>
        <pt x="697" y="723" on="1"/>
        <pt x="697" y="1057" on="0"/>
        <pt x="574" y="1348" on="0"/>
        <pt x="426" y="1348" on="1"/>
        <pt x="231" y="1348" on="1"/>
        <pt x="220" y="1348" on="0"/>
        <pt x="220" y="1331" on="1"/>
        <pt x="220" y="110" on="1"/>
        <pt x="220" y="90" on="0"/>
      </contour>
      <contour>
        <pt x="131" y="0" on="1"/>
        <pt x="118" y="0" on="0"/>
        <pt x="108" y="15" on="0"/>
        <pt x="108" y="39" on="1"/>
        <pt x="108" y="1407" on="1"/>
        <pt x="108" y="1426" on="0"/>
        <pt x="119" y="1438" on="0"/>
        <pt x="131" y="1438" on="1"/>
        <pt x="434" y="1438" on="1"/>
        <pt x="508" y="1438" on="0"/>
        <pt x="621" y="1398" on="0"/>
        <pt x="717" y="1299" on="0"/>
        <pt x="778" y="1138" on="0"/>
        <pt x="812" y="890" on="0"/>
        <pt x="812" y="723" on="1"/>
        <pt x="812" y="541" on="0"/>
        <pt x="783" y="288" on="0"/>
        <pt x="728" y="125" on="0"/>
        <pt x="630" y="34" on="0"/>
        <pt x="513" y="0" on="0"/>
        <pt x="426" y="0" on="1"/>
      </contour>
    </TTGlyph>
    <TTGlyph name="Dcaron" xMin="108" yMin="0" xMax="812" yMax="1841">
      <component glyphName="caron" x="311" y="339" flags="0x1004"/>
      <component glyphName="D" x="0" y="0" flags="0x1204"/>
    </TTGlyph>
    <TTGlyph name="Dcroat" xMin="12" yMin="0" xMax="812" yMax="1438">
      <contour>
        <pt x="234" y="90" on="1"/>
        <pt x="234" y="90" on="0"/>
        <pt x="423" y="90" on="1"/>
        <pt x="490" y="90" on="0"/>
        <pt x="581" y="129" on="0"/>
        <pt x="646" y="214" on="0"/>
        <pt x="682" y="367" on="0"/>
        <pt x="697" y="571" on="0"/>
        <pt x="697" y="723" on="1"/>
        <pt x="697" y="1057" on="0"/>
        <pt x="574" y="1348" on="0"/>
        <pt x="426" y="1348" on="1"/>
        <pt x="233" y="1348" on="1"/>
        <pt x="222" y="1348" on="0"/>
        <pt x="222" y="1331" on="1"/>
        <pt x="222" y="766" on="1"/>
        <pt x="418" y="766" on="1"/>
        <pt x="432" y="766" on="0"/>
        <pt x="445" y="754" on="0"/>
        <pt x="445" y="737" on="1"/>
        <pt x="445" y="722" on="1"/>
        <pt x="445" y="703" on="0"/>
        <pt x="432" y="692" on="0"/>
        <pt x="418" y="692" on="1"/>
        <pt x="222" y="692" on="1"/>
        <pt x="222" y="110" on="1"/>
        <pt x="222" y="90" on="0"/>
      </contour>
      <contour>
        <pt x="131" y="0" on="1"/>
        <pt x="118" y="0" on="0"/>
        <pt x="108" y="15" on="0"/>
        <pt x="108" y="39" on="1"/>
        <pt x="108" y="692" on="1"/>
        <pt x="39" y="692" on="1"/>
        <pt x="25" y="692" on="0"/>
        <pt x="12" y="703" on="0"/>
        <pt x="12" y="721" on="1"/>
        <pt x="12" y="735" on="1"/>
        <pt x="12" y="754" on="0"/>
        <pt x="25" y="766" on="0"/>
        <pt x="39" y="766" on="1"/>
        <pt x="108" y="766" on="1"/>
        <pt x="108" y="1407" on="1"/>
        <pt x="108" y="1426" on="0"/>
        <pt x="119" y="1438" on="0"/>
        <pt x="131" y="1438" on="1"/>
        <pt x="434" y="1438" on="1"/>
        <pt x="508" y="1438" on="0"/>
        <pt x="621" y="1398" on="0"/>
        <pt x="717" y="1299" on="0"/>
        <pt x="778" y="1138" on="0"/>
        <pt x="812" y="890" on="0"/>
        <pt x="812" y="723" on="1"/>
        <pt x="812" y="541" on="0"/>
        <pt x="783" y="288" on="0"/>
        <pt x="728" y="125" on="0"/>
        <pt x="630" y="34" on="0"/>
        <pt x="513" y="0" on="0"/>
        <pt x="426" y="0" on="1"/>
      </contour>
    </TTGlyph>
    <TTGlyph name="Delta" xMin="113" yMin="244" xMax="659" yMax="1350">
      <contour>
        <pt x="128" y="244" on="1"/>
        <pt x="113" y="244" on="0"/>
        <pt x="113" y="275" on="1"/>
        <pt x="113" y="286" on="1"/>
        <pt x="113" y="294" on="0"/>
        <pt x="114" y="300" on="1"/>
        <pt x="307" y="1295" on="1"/>
        <pt x="316" y="1347" on="0"/>
        <pt x="343" y="1350" on="1"/>
        <pt x="433" y="1350" on="1"/>
        <pt x="459" y="1347" on="0"/>
        <pt x="469" y="1295" on="1"/>
        <pt x="653" y="300" on="1"/>
        <pt x="654" y="293" on="0"/>
        <pt x="659" y="278" on="0"/>
        <pt x="659" y="274" on="1"/>
        <pt x="659" y="244" on="0"/>
        <pt x="643" y="244" on="1"/>
      </contour>
      <contour>
        <pt x="252" y="339" on="1"/>
        <pt x="252" y="339" on="0"/>
        <pt x="521" y="339" on="1"/>
        <pt x="524" y="339" on="0"/>
        <pt x="524" y="348" on="1"/>
        <pt x="524" y="353" on="0"/>
        <pt x="523" y="354" on="1"/>
        <pt x="389" y="1208" on="1"/>
        <pt x="388" y="1210" on="0"/>
        <pt x="388" y="1212" on="1"/>
        <pt x="385" y="1212" on="0"/>
        <pt x="385" y="1208" on="1"/>
        <pt x="242" y="359" on="1"/>
        <pt x="241" y="354" on="0"/>
        <pt x="241" y="350" on="1"/>
        <pt x="241" y="339" on="0"/>
      </contour>
    </TTGlyph>
    <TTGlyph name="E" xMin="108" yMin="0" xMax="622" yMax="1438">
      <contour>
        <pt x="131" y="0" on="1"/>
        <pt x="122" y="0" on="0"/>
        <pt x="114" y="3" on="0"/>
        <pt x="108" y="19" on="0"/>
        <pt x="108" y="35" on="1"/>
        <pt x="108" y="1403" on="1"/>
        <pt x="108" y="1424" on="0"/>
        <pt x="119" y="1438" on="0"/>
        <pt x="131" y="1438" on="1"/>
        <pt x="597" y="1438" on="1"/>
        <pt x="610" y="1438" on="0"/>
        <pt x="620" y="1428" on="0"/>
        <pt x="620" y="1407" on="1"/>
        <pt x="620" y="1379" on="1"/>
        <pt x="620" y="1364" on="0"/>
        <pt x="613" y="1350" on="0"/>
        <pt x="606" y="1348" on="0"/>
        <pt x="597" y="1348" on="1"/>
        <pt x="230" y="1348" on="1"/>
        <pt x="220" y="1348" on="0"/>
        <pt x="220" y="1320" on="1"/>
        <pt x="220" y="801" on="1"/>
        <pt x="220" y="798" on="0"/>
        <pt x="225" y="787" on="0"/>
        <pt x="226" y="787" on="1"/>
        <pt x="545" y="787" on="1"/>
        <pt x="558" y="787" on="0"/>
        <pt x="568" y="776" on="0"/>
        <pt x="568" y="756" on="1"/>
        <pt x="568" y="727" on="1"/>
        <pt x="568" y="706" on="0"/>
        <pt x="558" y="694" on="0"/>
        <pt x="545" y="694" on="1"/>
        <pt x="227" y="694" on="1"/>
        <pt x="226" y="694" on="0"/>
        <pt x="220" y="676" on="0"/>
        <pt x="220" y="673" on="1"/>
        <pt x="220" y="90" on="1"/>
        <pt x="599" y="90" on="1"/>
        <pt x="608" y="90" on="0"/>
        <pt x="615" y="88" on="0"/>
        <pt x="622" y="74" on="0"/>
        <pt x="622" y="59" on="1"/>
        <pt x="622" y="31" on="1"/>
        <pt x="622" y="10" on="0"/>
        <pt x="612" y="0" on="0"/>
        <pt x="599" y="0" on="1"/>
      </contour>
    </TTGlyph>
    <TTGlyph name="Eacute" xMin="108" yMin="0" xMax="622" yMax="2010">
      <component glyphName="acute" x="-21" y="407" flags="0x1004"/>
      <component glyphName="E" x="0" y="0" flags="0x1204"/>
    </TTGlyph>
    <TTGlyph name="Ebreve" xMin="108" yMin="0" xMax="622" yMax="1748">
      <component glyphName="breve" x="-238" y="281" flags="0x1004"/>
      <component glyphName="E" x="0" y="0" flags="0x1204"/>
    </TTGlyph>
    <TTGlyph name="Ecaron" xMin="108" yMin="0" xMax="622" yMax="1841">
      <component glyphName="caron" x="216" y="339" flags="0x1004"/>
      <component glyphName="E" x="0" y="0" flags="0x1204"/>
    </TTGlyph>
    <TTGlyph name="Ecircumflex" xMin="108" yMin="0" xMax="622" yMax="1841">
      <component glyphName="circumflex" x="216" y="339" flags="0x1004"/>
      <component glyphName="E" x="0" y="0" flags="0x1204"/>
    </TTGlyph>
    <TTGlyph name="Edieresis" xMin="108" yMin="0" xMax="622" yMax="1714">
      <component glyphName="dieresis" x="146" y="1574" flags="0x1004"/>
      <component glyphName="E" x="0" y="0" flags="0x1204"/>
    </TTGlyph>
    <TTGlyph name="Edotaccent" xMin="108" yMin="0" xMax="622" yMax="1761">
      <component glyphName="dotaccent" x="318" y="1476" flags="0x1004"/>
      <component glyphName="E" x="0" y="0" flags="0x1204"/>
    </TTGlyph>
    <TTGlyph name="Egrave" xMin="108" yMin="0" xMax="622" yMax="2010">
      <component glyphName="grave" x="-92" y="407" flags="0x1004"/>
      <component glyphName="E" x="0" y="0" flags="0x1204"/>
    </TTGlyph>
    <TTGlyph name="Emacron" xMin="108" yMin="0" xMax="622" yMax="1651">
      <component glyphName="macron" x="32" y="1357" flags="0x1004"/>
      <component glyphName="E" x="0" y="0" flags="0x1204"/>
    </TTGlyph>
    <TTGlyph name="Eogonek" xMin="108" yMin="-323" xMax="622" yMax="1438">
      <component glyphName="E" x="0" y="0" flags="0x1004"/>
      <component glyphName="ogonek" x="125" y="6" flags="0x1004"/>
    </TTGlyph>
    <TTGlyph name="Eth" xMin="6" yMin="0" xMax="812" yMax="1438">
      <contour>
        <pt x="234" y="90" on="1"/>
        <pt x="234" y="90" on="0"/>
        <pt x="423" y="90" on="1"/>
        <pt x="490" y="90" on="0"/>
        <pt x="581" y="129" on="0"/>
        <pt x="646" y="214" on="0"/>
        <pt x="682" y="367" on="0"/>
        <pt x="697" y="571" on="0"/>
        <pt x="697" y="723" on="1"/>
        <pt x="697" y="1057" on="0"/>
        <pt x="574" y="1348" on="0"/>
        <pt x="426" y="1348" on="1"/>
        <pt x="233" y="1348" on="1"/>
        <pt x="222" y="1348" on="0"/>
        <pt x="222" y="1331" on="1"/>
        <pt x="222" y="770" on="1"/>
        <pt x="395" y="770" on="1"/>
        <pt x="411" y="770" on="0"/>
        <pt x="426" y="758" on="0"/>
        <pt x="426" y="738" on="1"/>
        <pt x="426" y="711" on="1"/>
        <pt x="423" y="686" on="0"/>
        <pt x="395" y="686" on="1"/>
        <pt x="222" y="686" on="1"/>
        <pt x="222" y="110" on="1"/>
        <pt x="222" y="90" on="0"/>
      </contour>
      <contour>
        <pt x="131" y="0" on="1"/>
        <pt x="118" y="0" on="0"/>
        <pt x="108" y="15" on="0"/>
        <pt x="108" y="39" on="1"/>
        <pt x="108" y="686" on="1"/>
        <pt x="37" y="686" on="1"/>
        <pt x="21" y="686" on="0"/>
        <pt x="6" y="699" on="0"/>
        <pt x="6" y="718" on="1"/>
        <pt x="6" y="737" on="1"/>
        <pt x="6" y="758" on="0"/>
        <pt x="21" y="770" on="0"/>
        <pt x="37" y="770" on="1"/>
        <pt x="108" y="770" on="1"/>
        <pt x="108" y="1407" on="1"/>
        <pt x="108" y="1426" on="0"/>
        <pt x="119" y="1438" on="0"/>
        <pt x="131" y="1438" on="1"/>
        <pt x="434" y="1438" on="1"/>
        <pt x="508" y="1438" on="0"/>
        <pt x="621" y="1398" on="0"/>
        <pt x="717" y="1299" on="0"/>
        <pt x="778" y="1138" on="0"/>
        <pt x="812" y="890" on="0"/>
        <pt x="812" y="723" on="1"/>
        <pt x="812" y="541" on="0"/>
        <pt x="783" y="288" on="0"/>
        <pt x="728" y="125" on="0"/>
        <pt x="630" y="34" on="0"/>
        <pt x="513" y="0" on="0"/>
        <pt x="426" y="0" on="1"/>
      </contour>
    </TTGlyph>
    <TTGlyph name="Euro" xMin="32" yMin="-14" xMax="614" yMax="1453">
      <contour>
        <pt x="451" y="-14" on="1"/>
        <pt x="412" y="-14" on="0"/>
        <pt x="355" y="-8" on="0"/>
        <pt x="281" y="18" on="0"/>
        <pt x="228" y="62" on="0"/>
        <pt x="171" y="145" on="0"/>
        <pt x="132" y="259" on="0"/>
        <pt x="101" y="430" on="0"/>
        <pt x="94" y="538" on="1"/>
        <pt x="53" y="538" on="1"/>
        <pt x="40" y="538" on="0"/>
        <pt x="32" y="552" on="0"/>
        <pt x="32" y="582" on="1"/>
        <pt x="32" y="598" on="1"/>
        <pt x="32" y="619" on="0"/>
        <pt x="37" y="638" on="0"/>
        <pt x="44" y="641" on="0"/>
        <pt x="53" y="641" on="1"/>
        <pt x="90" y="641" on="1"/>
        <pt x="89" y="667" on="0"/>
        <pt x="89" y="721" on="1"/>
        <pt x="89" y="736" on="0"/>
        <pt x="90" y="794" on="0"/>
        <pt x="90" y="808" on="1"/>
        <pt x="53" y="808" on="1"/>
        <pt x="40" y="808" on="0"/>
        <pt x="32" y="822" on="0"/>
        <pt x="32" y="852" on="1"/>
        <pt x="32" y="867" on="1"/>
        <pt x="32" y="897" on="0"/>
        <pt x="40" y="911" on="0"/>
        <pt x="53" y="911" on="1"/>
        <pt x="95" y="911" on="1"/>
        <pt x="102" y="1013" on="0"/>
        <pt x="133" y="1175" on="0"/>
        <pt x="174" y="1287" on="0"/>
        <pt x="230" y="1369" on="0"/>
        <pt x="287" y="1416" on="0"/>
        <pt x="359" y="1444" on="0"/>
        <pt x="422" y="1453" on="0"/>
        <pt x="461" y="1453" on="1"/>
        <pt x="513" y="1453" on="0"/>
        <pt x="609" y="1433" on="0"/>
        <pt x="614" y="1412" on="1"/>
        <pt x="614" y="1347" on="1"/>
        <pt x="614" y="1336" on="0"/>
        <pt x="607" y="1336" on="1"/>
        <pt x="600" y="1338" on="1"/>
        <pt x="592" y="1341" on="0"/>
        <pt x="568" y="1348" on="0"/>
        <pt x="537" y="1354" on="0"/>
        <pt x="497" y="1359" on="0"/>
        <pt x="478" y="1359" on="1"/>
        <pt x="436" y="1359" on="0"/>
        <pt x="373" y="1342" on="0"/>
        <pt x="304" y="1287" on="0"/>
        <pt x="256" y="1192" on="0"/>
        <pt x="218" y="1026" on="0"/>
        <pt x="210" y="911" on="1"/>
        <pt x="384" y="911" on="1"/>
        <pt x="397" y="911" on="0"/>
        <pt x="406" y="897" on="0"/>
        <pt x="406" y="867" on="1"/>
        <pt x="406" y="852" on="1"/>
        <pt x="406" y="822" on="0"/>
        <pt x="397" y="808" on="0"/>
        <pt x="384" y="808" on="1"/>
        <pt x="205" y="808" on="1"/>
        <pt x="204" y="780" on="0"/>
        <pt x="204" y="721" on="1"/>
        <pt x="204" y="667" on="0"/>
        <pt x="205" y="641" on="1"/>
        <pt x="384" y="641" on="1"/>
        <pt x="397" y="641" on="0"/>
        <pt x="406" y="628" on="0"/>
        <pt x="406" y="598" on="1"/>
        <pt x="406" y="582" on="1"/>
        <pt x="406" y="552" on="0"/>
        <pt x="397" y="538" on="0"/>
        <pt x="384" y="538" on="1"/>
        <pt x="209" y="538" on="1"/>
        <pt x="215" y="420" on="0"/>
        <pt x="248" y="250" on="0"/>
        <pt x="290" y="152" on="0"/>
        <pt x="355" y="96" on="0"/>
        <pt x="417" y="79" on="0"/>
        <pt x="460" y="79" on="1"/>
        <pt x="528" y="79" on="0"/>
        <pt x="588" y="99" on="1"/>
        <pt x="596" y="99" on="0"/>
        <pt x="596" y="87" on="1"/>
        <pt x="596" y="19" on="1"/>
        <pt x="596" y="-14" on="0"/>
        <pt x="456" y="-14" on="1"/>
        <pt x="456" y="-14" on="0"/>
      </contour>
    </TTGlyph>
    <TTGlyph name="F" xMin="108" yMin="0" xMax="598" yMax="1438">
      <contour>
        <pt x="131" y="0" on="1"/>
        <pt x="122" y="0" on="0"/>
        <pt x="114" y="3" on="0"/>
        <pt x="108" y="19" on="0"/>
        <pt x="108" y="35" on="1"/>
        <pt x="108" y="1403" on="1"/>
        <pt x="108" y="1424" on="0"/>
        <pt x="119" y="1438" on="0"/>
        <pt x="131" y="1438" on="1"/>
        <pt x="575" y="1438" on="1"/>
        <pt x="588" y="1438" on="0"/>
        <pt x="598" y="1428" on="0"/>
        <pt x="598" y="1407" on="1"/>
        <pt x="598" y="1379" on="1"/>
        <pt x="598" y="1364" on="0"/>
        <pt x="591" y="1350" on="0"/>
        <pt x="584" y="1348" on="0"/>
        <pt x="575" y="1348" on="1"/>
        <pt x="230" y="1348" on="1"/>
        <pt x="220" y="1348" on="0"/>
        <pt x="220" y="1322" on="1"/>
        <pt x="220" y="792" on="1"/>
        <pt x="220" y="789" on="0"/>
        <pt x="225" y="780" on="0"/>
        <pt x="226" y="780" on="1"/>
        <pt x="526" y="780" on="1"/>
        <pt x="539" y="780" on="0"/>
        <pt x="549" y="770" on="0"/>
        <pt x="549" y="751" on="1"/>
        <pt x="549" y="718" on="1"/>
        <pt x="549" y="697" on="0"/>
        <pt x="539" y="687" on="0"/>
        <pt x="526" y="687" on="1"/>
        <pt x="227" y="687" on="1"/>
        <pt x="226" y="687" on="0"/>
        <pt x="220" y="671" on="0"/>
        <pt x="220" y="668" on="1"/>
        <pt x="220" y="35" on="1"/>
        <pt x="220" y="19" on="0"/>
        <pt x="214" y="3" on="0"/>
        <pt x="206" y="0" on="0"/>
        <pt x="197" y="0" on="1"/>
      </contour>
    </TTGlyph>
    <TTGlyph name="G" xMin="91" yMin="-15" xMax="775" yMax="1452">
      <contour>
        <pt x="749" y="-15" on="1"/>
        <pt x="721" y="-15" on="0"/>
        <pt x="714" y="39" on="1"/>
        <pt x="700" y="207" on="0"/>
        <pt x="700" y="226" on="1"/>
        <pt x="700" y="234" on="0"/>
        <pt x="697" y="234" on="1"/>
        <pt x="693" y="234" on="0"/>
        <pt x="692" y="227" on="1"/>
        <pt x="672" y="114" on="0"/>
        <pt x="553" y="-14" on="0"/>
        <pt x="465" y="-14" on="1"/>
        <pt x="422" y="-14" on="0"/>
        <pt x="353" y="-2" on="0"/>
        <pt x="273" y="36" on="0"/>
        <pt x="212" y="100" on="0"/>
        <pt x="153" y="212" on="0"/>
        <pt x="114" y="363" on="0"/>
        <pt x="91" y="584" on="0"/>
        <pt x="91" y="721" on="1"/>
        <pt x="91" y="833" on="0"/>
        <pt x="107" y="1021" on="0"/>
        <pt x="135" y="1160" on="0"/>
        <pt x="179" y="1271" on="0"/>
        <pt x="225" y="1346" on="0"/>
        <pt x="288" y="1400" on="0"/>
        <pt x="345" y="1430" on="0"/>
        <pt x="420" y="1447" on="0"/>
        <pt x="479" y="1452" on="0"/>
        <pt x="518" y="1452" on="1"/>
        <pt x="602" y="1452" on="0"/>
        <pt x="678" y="1425" on="1"/>
        <pt x="682" y="1423" on="1"/>
        <pt x="685" y="1421" on="0"/>
        <pt x="688" y="1418" on="0"/>
        <pt x="691" y="1412" on="0"/>
        <pt x="691" y="1408" on="1"/>
        <pt x="691" y="1342" on="1"/>
        <pt x="691" y="1332" on="0"/>
        <pt x="683" y="1332" on="1"/>
        <pt x="674" y="1334" on="1"/>
        <pt x="665" y="1337" on="0"/>
        <pt x="634" y="1345" on="0"/>
        <pt x="597" y="1353" on="0"/>
        <pt x="550" y="1358" on="0"/>
        <pt x="529" y="1358" on="1"/>
        <pt x="489" y="1358" on="0"/>
        <pt x="431" y="1350" on="0"/>
        <pt x="359" y="1320" on="0"/>
        <pt x="308" y="1268" on="0"/>
        <pt x="256" y="1172" on="0"/>
        <pt x="225" y="1040" on="0"/>
        <pt x="205" y="845" on="0"/>
        <pt x="205" y="721" on="1"/>
        <pt x="205" y="603" on="0"/>
        <pt x="221" y="413" on="0"/>
        <pt x="248" y="281" on="0"/>
        <pt x="289" y="183" on="0"/>
        <pt x="333" y="126" on="0"/>
        <pt x="390" y="91" on="0"/>
        <pt x="442" y="80" on="0"/>
        <pt x="473" y="80" on="1"/>
        <pt x="531" y="80" on="0"/>
        <pt x="611" y="153" on="0"/>
        <pt x="652" y="291" on="0"/>
        <pt x="668" y="451" on="0"/>
        <pt x="668" y="557" on="1"/>
        <pt x="668" y="626" on="0"/>
        <pt x="660" y="626" on="1"/>
        <pt x="485" y="626" on="1"/>
        <pt x="475" y="626" on="0"/>
        <pt x="464" y="629" on="0"/>
        <pt x="454" y="645" on="0"/>
        <pt x="454" y="661" on="1"/>
        <pt x="454" y="694" on="1"/>
        <pt x="454" y="710" on="0"/>
        <pt x="463" y="727" on="0"/>
        <pt x="474" y="730" on="0"/>
        <pt x="483" y="730" on="1"/>
        <pt x="749" y="730" on="1"/>
        <pt x="759" y="730" on="0"/>
        <pt x="767" y="727" on="0"/>
        <pt x="775" y="707" on="0"/>
        <pt x="775" y="687" on="1"/>
        <pt x="775" y="40" on="1"/>
        <pt x="775" y="-15" on="0"/>
      </contour>
    </TTGlyph>
    <TTGlyph name="Gbreve" xMin="91" yMin="-15" xMax="775" yMax="1748">
      <component glyphName="breve" x="-170" y="281" flags="0x1004"/>
      <component glyphName="G" x="0" y="0" flags="0x1204"/>
    </TTGlyph>
    <TTGlyph name="Gcircumflex" xMin="91" yMin="-15" xMax="775" yMax="1841">
      <component glyphName="circumflex" x="284" y="339" flags="0x1004"/>
      <component glyphName="G" x="0" y="0" flags="0x1204"/>
    </TTGlyph>
    <TTGlyph name="Gcommaaccent" xMin="91" yMin="-637" xMax="775" yMax="1452">
      <component glyphName="comma" x="295" y="-352" flags="0x1004"/>
      <component glyphName="G" x="0" y="0" flags="0x1204"/>
    </TTGlyph>
    <TTGlyph name="Gdotaccent" xMin="91" yMin="-15" xMax="775" yMax="1761">
      <component glyphName="dotaccent" x="386" y="1476" flags="0x1004"/>
      <component glyphName="G" x="0" y="0" flags="0x1204"/>
    </TTGlyph>
    <TTGlyph name="H" xMin="108" yMin="0" xMax="774" yMax="1438">
      <contour>
        <pt x="132" y="0" on="1"/>
        <pt x="119" y="0" on="0"/>
        <pt x="108" y="17" on="0"/>
        <pt x="108" y="47" on="1"/>
        <pt x="108" y="1391" on="1"/>
        <pt x="108" y="1421" on="0"/>
        <pt x="119" y="1438" on="0"/>
        <pt x="132" y="1438" on="1"/>
        <pt x="194" y="1438" on="1"/>
        <pt x="208" y="1438" on="0"/>
        <pt x="220" y="1421" on="0"/>
        <pt x="220" y="1391" on="1"/>
        <pt x="220" y="804" on="1"/>
        <pt x="220" y="801" on="0"/>
        <pt x="225" y="787" on="0"/>
        <pt x="226" y="787" on="1"/>
        <pt x="653" y="787" on="1"/>
        <pt x="654" y="787" on="0"/>
        <pt x="662" y="804" on="0"/>
        <pt x="662" y="807" on="1"/>
        <pt x="662" y="1391" on="1"/>
        <pt x="662" y="1421" on="0"/>
        <pt x="674" y="1438" on="0"/>
        <pt x="689" y="1438" on="1"/>
        <pt x="751" y="1438" on="1"/>
        <pt x="763" y="1438" on="0"/>
        <pt x="774" y="1421" on="0"/>
        <pt x="774" y="1391" on="1"/>
        <pt x="774" y="47" on="1"/>
        <pt x="774" y="17" on="0"/>
        <pt x="763" y="0" on="0"/>
        <pt x="751" y="0" on="1"/>
        <pt x="689" y="0" on="1"/>
        <pt x="674" y="0" on="0"/>
        <pt x="662" y="17" on="0"/>
        <pt x="662" y="47" on="1"/>
        <pt x="662" y="672" on="1"/>
        <pt x="662" y="675" on="0"/>
        <pt x="655" y="691" on="0"/>
        <pt x="654" y="691" on="1"/>
        <pt x="227" y="691" on="1"/>
        <pt x="226" y="691" on="0"/>
        <pt x="221" y="677" on="0"/>
        <pt x="221" y="674" on="1"/>
        <pt x="221" y="47" on="1"/>
        <pt x="221" y="17" on="0"/>
        <pt x="209" y="0" on="0"/>
        <pt x="195" y="0" on="1"/>
      </contour>
    </TTGlyph>
    <TTGlyph name="Hbar" xMin="18" yMin="0" xMax="862" yMax="1438">
      <contour>
        <pt x="132" y="0" on="1"/>
        <pt x="119" y="0" on="0"/>
        <pt x="108" y="17" on="0"/>
        <pt x="108" y="47" on="1"/>
        <pt x="108" y="1186" on="1"/>
        <pt x="45" y="1186" on="1"/>
        <pt x="31" y="1186" on="0"/>
        <pt x="18" y="1197" on="0"/>
        <pt x="18" y="1215" on="1"/>
        <pt x="18" y="1229" on="1"/>
        <pt x="18" y="1248" on="0"/>
        <pt x="31" y="1260" on="0"/>
        <pt x="45" y="1260" on="1"/>
        <pt x="108" y="1260" on="1"/>
        <pt x="108" y="1391" on="1"/>
        <pt x="108" y="1421" on="0"/>
        <pt x="119" y="1438" on="0"/>
        <pt x="132" y="1438" on="1"/>
        <pt x="196" y="1438" on="1"/>
        <pt x="210" y="1438" on="0"/>
        <pt x="222" y="1421" on="0"/>
        <pt x="222" y="1391" on="1"/>
        <pt x="222" y="1260" on="1"/>
        <pt x="658" y="1260" on="1"/>
        <pt x="658" y="1391" on="1"/>
        <pt x="658" y="1421" on="0"/>
        <pt x="670" y="1438" on="0"/>
        <pt x="685" y="1438" on="1"/>
        <pt x="751" y="1438" on="1"/>
        <pt x="763" y="1438" on="0"/>
        <pt x="774" y="1421" on="0"/>
        <pt x="774" y="1391" on="1"/>
        <pt x="774" y="1391" on="0"/>
        <pt x="774" y="1260" on="1"/>
        <pt x="836" y="1260" on="1"/>
        <pt x="849" y="1260" on="0"/>
        <pt x="862" y="1248" on="0"/>
        <pt x="862" y="1231" on="1"/>
        <pt x="862" y="1216" on="1"/>
        <pt x="862" y="1197" on="0"/>
        <pt x="850" y="1186" on="0"/>
        <pt x="836" y="1186" on="1"/>
        <pt x="774" y="1186" on="1"/>
        <pt x="774" y="47" on="1"/>
        <pt x="774" y="17" on="0"/>
        <pt x="763" y="0" on="0"/>
        <pt x="751" y="0" on="1"/>
        <pt x="685" y="0" on="1"/>
        <pt x="670" y="0" on="0"/>
        <pt x="658" y="17" on="0"/>
        <pt x="658" y="47" on="1"/>
        <pt x="658" y="672" on="1"/>
        <pt x="658" y="675" on="0"/>
        <pt x="651" y="691" on="0"/>
        <pt x="650" y="691" on="1"/>
        <pt x="229" y="691" on="1"/>
        <pt x="228" y="691" on="0"/>
        <pt x="223" y="677" on="0"/>
        <pt x="223" y="674" on="1"/>
        <pt x="223" y="47" on="1"/>
        <pt x="223" y="17" on="0"/>
        <pt x="211" y="0" on="0"/>
        <pt x="197" y="0" on="1"/>
      </contour>
      <contour>
        <pt x="228" y="787" on="1"/>
        <pt x="649" y="787" on="1"/>
        <pt x="650" y="787" on="0"/>
        <pt x="658" y="804" on="0"/>
        <pt x="658" y="807" on="1"/>
        <pt x="658" y="1186" on="1"/>
        <pt x="222" y="1186" on="1"/>
        <pt x="222" y="804" on="1"/>
        <pt x="222" y="801" on="0"/>
        <pt x="227" y="787" on="0"/>
      </contour>
    </TTGlyph>
    <TTGlyph name="Hcircumflex" xMin="108" yMin="0" xMax="774" yMax="1841">
      <component glyphName="circumflex" x="292" y="339" flags="0x1004"/>
      <component glyphName="H" x="0" y="0" flags="0x1204"/>
    </TTGlyph>
    <TTGlyph name="I" xMin="112" yMin="0" xMax="224" yMax="1438">
      <contour>
        <pt x="135" y="0" on="1"/>
        <pt x="122" y="0" on="0"/>
        <pt x="112" y="17" on="0"/>
        <pt x="112" y="47" on="1"/>
        <pt x="112" y="1391" on="1"/>
        <pt x="112" y="1421" on="0"/>
        <pt x="122" y="1438" on="0"/>
        <pt x="135" y="1438" on="1"/>
        <pt x="201" y="1438" on="1"/>
        <pt x="214" y="1438" on="0"/>
        <pt x="224" y="1421" on="0"/>
        <pt x="224" y="1391" on="1"/>
        <pt x="224" y="47" on="1"/>
        <pt x="224" y="17" on="0"/>
        <pt x="214" y="0" on="0"/>
        <pt x="201" y="0" on="1"/>
      </contour>
    </TTGlyph>
    <TTGlyph name="IJ" xMin="112" yMin="-145" xMax="689" yMax="1438">
      <component glyphName="J" x="332" y="0" flags="0x1004"/>
      <component glyphName="I" x="0" y="0" flags="0x1004"/>
    </TTGlyph>
    <TTGlyph name="Iacute" xMin="112" yMin="0" xMax="264" yMax="2010">
      <component glyphName="acute" x="-218" y="407" flags="0x1004"/>
      <component glyphName="I" x="0" y="0" flags="0x1204"/>
    </TTGlyph>
    <TTGlyph name="Ibreve" xMin="-7" yMin="0" xMax="344" yMax="1748">
      <component glyphName="breve" x="-434" y="281" flags="0x1004"/>
      <component glyphName="I" x="0" y="0" flags="0x1204"/>
    </TTGlyph>
    <TTGlyph name="Icircumflex" xMin="42" yMin="0" xMax="294" yMax="1841">
      <component glyphName="circumflex" x="19" y="339" flags="0x1004"/>
      <component glyphName="I" x="0" y="0" flags="0x1204"/>
    </TTGlyph>
    <TTGlyph name="Idieresis" xMin="7" yMin="0" xMax="329" yMax="1714">
      <component glyphName="dieresis" x="-51" y="1574" flags="0x1004"/>
      <component glyphName="I" x="0" y="0" flags="0x1204"/>
    </TTGlyph>
    <TTGlyph name="Idotaccent" xMin="92" yMin="0" xMax="244" yMax="1761">
      <component glyphName="dotaccent" x="121" y="1476" flags="0x1004"/>
      <component glyphName="I" x="0" y="0" flags="0x1204"/>
    </TTGlyph>
    <TTGlyph name="Igrave" xMin="71" yMin="0" xMax="224" yMax="2010">
      <component glyphName="grave" x="-290" y="407" flags="0x1004"/>
      <component glyphName="I" x="0" y="0" flags="0x1204"/>
    </TTGlyph>
    <TTGlyph name="Imacron" xMin="-40" yMin="0" xMax="376" yMax="1651">
      <component glyphName="macron" x="-165" y="1357" flags="0x1004"/>
      <component glyphName="I" x="0" y="0" flags="0x1204"/>
    </TTGlyph>
    <TTGlyph name="Iogonek" xMin="11" yMin="-323" xMax="269" yMax="1438">
      <component glyphName="ogonek" x="-226" y="6" flags="0x1004"/>
      <component glyphName="I" x="0" y="0" flags="0x1204"/>
    </TTGlyph>
    <TTGlyph name="Itilde" xMin="-38" yMin="0" xMax="374" yMax="1721">
      <component glyphName="tilde" x="-70" y="749" flags="0x1004"/>
      <component glyphName="I" x="0" y="0" flags="0x1204"/>
    </TTGlyph>
    <TTGlyph name="J" xMin="20" yMin="-145" xMax="357" yMax="1438">
      <contour>
        <pt x="31" y="-145" on="1"/>
        <pt x="20" y="-145" on="0"/>
        <pt x="20" y="-120" on="1"/>
        <pt x="20" y="-67" on="1"/>
        <pt x="20" y="-40" on="0"/>
        <pt x="31" y="-40" on="1"/>
        <pt x="60" y="-40" on="0"/>
        <pt x="92" y="-38" on="0"/>
        <pt x="136" y="-31" on="0"/>
        <pt x="159" y="-19" on="0"/>
        <pt x="190" y="3" on="0"/>
        <pt x="205" y="36" on="0"/>
        <pt x="225" y="84" on="0"/>
        <pt x="233" y="147" on="0"/>
        <pt x="242" y="231" on="0"/>
        <pt x="245" y="335" on="0"/>
        <pt x="245" y="400" on="1"/>
        <pt x="245" y="1387" on="1"/>
        <pt x="245" y="1438" on="0"/>
        <pt x="266" y="1438" on="1"/>
        <pt x="336" y="1438" on="1"/>
        <pt x="357" y="1438" on="0"/>
        <pt x="357" y="1387" on="1"/>
        <pt x="357" y="384" on="1"/>
        <pt x="357" y="274" on="0"/>
        <pt x="341" y="108" on="0"/>
        <pt x="318" y="-5" on="0"/>
        <pt x="268" y="-81" on="0"/>
        <pt x="226" y="-121" on="0"/>
        <pt x="144" y="-141" on="0"/>
        <pt x="86" y="-145" on="0"/>
      </contour>
    </TTGlyph>
    <TTGlyph name="Jcircumflex" xMin="20" yMin="-145" xMax="420" yMax="1841">
      <component glyphName="circumflex" x="145" y="339" flags="0x1004"/>
      <component glyphName="J" x="0" y="0" flags="0x1204"/>
    </TTGlyph>
    <TTGlyph name="K" xMin="108" yMin="0" xMax="693" yMax="1438">
      <contour>
        <pt x="131" y="0" on="1"/>
        <pt x="108" y="0" on="0"/>
        <pt x="108" y="63" on="1"/>
        <pt x="108" y="1375" on="1"/>
        <pt x="108" y="1438" on="0"/>
        <pt x="131" y="1438" on="1"/>
        <pt x="194" y="1438" on="1"/>
        <pt x="220" y="1438" on="0"/>
        <pt x="220" y="1375" on="1"/>
        <pt x="220" y="743" on="1"/>
        <pt x="532" y="1379" on="1"/>
        <pt x="542" y="1401" on="0"/>
        <pt x="551" y="1420" on="0"/>
        <pt x="567" y="1438" on="0"/>
        <pt x="575" y="1438" on="1"/>
        <pt x="656" y="1438" on="1"/>
        <pt x="669" y="1438" on="0"/>
        <pt x="669" y="1404" on="0"/>
        <pt x="657" y="1380" on="1"/>
        <pt x="343" y="755" on="1"/>
        <pt x="339" y="739" on="0"/>
        <pt x="339" y="736" on="1"/>
        <pt x="339" y="726" on="0"/>
        <pt x="343" y="719" on="1"/>
        <pt x="676" y="67" on="1"/>
        <pt x="693" y="36" on="0"/>
        <pt x="693" y="17" on="1"/>
        <pt x="693" y="0" on="0"/>
        <pt x="681" y="0" on="1"/>
        <pt x="615" y="0" on="1"/>
        <pt x="603" y="0" on="0"/>
        <pt x="582" y="23" on="0"/>
        <pt x="564" y="57" on="1"/>
        <pt x="221" y="708" on="1"/>
        <pt x="221" y="58" on="1"/>
        <pt x="221" y="0" on="0"/>
        <pt x="194" y="0" on="1"/>
      </contour>
    </TTGlyph>
    <TTGlyph name="Kcommaaccent" xMin="108" yMin="-622" xMax="693" yMax="1438">
      <component glyphName="comma" x="262" y="-337" flags="0x1004"/>
      <component glyphName="K" x="0" y="0" flags="0x1204"/>
    </TTGlyph>
    <TTGlyph name="L" xMin="108" yMin="0" xMax="524" yMax="1438">
      <contour>
        <pt x="131" y="0" on="1"/>
        <pt x="118" y="0" on="0"/>
        <pt x="108" y="17" on="0"/>
        <pt x="108" y="47" on="1"/>
        <pt x="108" y="1391" on="1"/>
        <pt x="108" y="1421" on="0"/>
        <pt x="118" y="1438" on="0"/>
        <pt x="131" y="1438" on="1"/>
        <pt x="197" y="1438" on="1"/>
        <pt x="210" y="1438" on="0"/>
        <pt x="220" y="1421" on="0"/>
        <pt x="220" y="1391" on="1"/>
        <pt x="220" y="110" on="1"/>
        <pt x="220" y="101" on="0"/>
        <pt x="224" y="91" on="0"/>
        <pt x="229" y="90" on="0"/>
        <pt x="234" y="90" on="1"/>
        <pt x="500" y="90" on="1"/>
        <pt x="513" y="90" on="0"/>
        <pt x="524" y="81" on="0"/>
        <pt x="524" y="61" on="1"/>
        <pt x="524" y="31" on="1"/>
        <pt x="524" y="17" on="0"/>
        <pt x="517" y="3" on="0"/>
        <pt x="509" y="0" on="0"/>
        <pt x="500" y="0" on="1"/>
      </contour>
    </TTGlyph>
    <TTGlyph name="Lacute" xMin="108" yMin="0" xMax="524" yMax="2010">
      <component glyphName="acute" x="-70" y="407" flags="0x1004"/>
      <component glyphName="L" x="0" y="0" flags="0x1204"/>
    </TTGlyph>
    <TTGlyph name="Lcaron" xMin="108" yMin="0" xMax="843" yMax="1452">
      <component glyphName="comma" x="637" y="1237" flags="0x1004"/>
      <component glyphName="L" x="0" y="0" flags="0x1004"/>
    </TTGlyph>
    <TTGlyph name="Lcommaaccent" xMin="108" yMin="-622" xMax="524" yMax="1438">
      <component glyphName="comma" x="178" y="-337" flags="0x1004"/>
      <component glyphName="L" x="0" y="0" flags="0x1204"/>
    </TTGlyph>
    <TTGlyph name="Ldot" xMin="108" yMin="0" xMax="573" yMax="1438">
      <component glyphName="dotaccent" x="450" y="612" flags="0x1004"/>
      <component glyphName="L" x="0" y="0" flags="0x1004"/>
    </TTGlyph>
    <TTGlyph name="Lslash" xMin="3" yMin="0" xMax="524" yMax="1438">
      <contour>
        <pt x="500" y="0" on="1"/>
        <pt x="500" y="0" on="0"/>
        <pt x="131" y="0" on="1"/>
        <pt x="118" y="0" on="0"/>
        <pt x="108" y="17" on="0"/>
        <pt x="108" y="47" on="1"/>
        <pt x="108" y="711" on="1"/>
        <pt x="27" y="687" on="1"/>
        <pt x="3" y="680" on="0"/>
        <pt x="3" y="717" on="1"/>
        <pt x="3" y="753" on="1"/>
        <pt x="3" y="760" on="0"/>
        <pt x="5" y="770" on="0"/>
        <pt x="7" y="775" on="0"/>
        <pt x="14" y="780" on="0"/>
        <pt x="16" y="781" on="0"/>
        <pt x="26" y="784" on="0"/>
        <pt x="27" y="784" on="1"/>
        <pt x="108" y="808" on="1"/>
        <pt x="108" y="1391" on="1"/>
        <pt x="108" y="1421" on="0"/>
        <pt x="118" y="1438" on="0"/>
        <pt x="131" y="1438" on="1"/>
        <pt x="199" y="1438" on="1"/>
        <pt x="212" y="1438" on="0"/>
        <pt x="222" y="1421" on="0"/>
        <pt x="222" y="1391" on="1"/>
        <pt x="222" y="841" on="1"/>
        <pt x="390" y="891" on="1"/>
        <pt x="400" y="894" on="0"/>
        <pt x="413" y="880" on="0"/>
        <pt x="413" y="861" on="1"/>
        <pt x="413" y="824" on="1"/>
        <pt x="413" y="817" on="0"/>
        <pt x="411" y="807" on="0"/>
        <pt x="409" y="802" on="0"/>
        <pt x="403" y="798" on="0"/>
        <pt x="400" y="797" on="0"/>
        <pt x="392" y="794" on="0"/>
        <pt x="390" y="794" on="1"/>
        <pt x="222" y="744" on="1"/>
        <pt x="222" y="110" on="1"/>
        <pt x="222" y="101" on="0"/>
        <pt x="226" y="91" on="0"/>
        <pt x="231" y="90" on="0"/>
        <pt x="236" y="90" on="1"/>
        <pt x="500" y="90" on="1"/>
        <pt x="513" y="90" on="0"/>
        <pt x="524" y="81" on="0"/>
        <pt x="524" y="61" on="1"/>
        <pt x="524" y="31" on="1"/>
        <pt x="524" y="17" on="0"/>
        <pt x="517" y="3" on="0"/>
        <pt x="509" y="0" on="0"/>
      </contour>
    </TTGlyph>
    <TTGlyph name="M" xMin="101" yMin="0" xMax="926" yMax="1438">
      <contour>
        <pt x="124" y="0" on="1"/>
        <pt x="101" y="0" on="0"/>
        <pt x="101" y="57" on="1"/>
        <pt x="101" y="63" on="1"/>
        <pt x="143" y="1374" on="1"/>
        <pt x="144" y="1435" on="0"/>
        <pt x="166" y="1438" on="1"/>
        <pt x="246" y="1438" on="1"/>
        <pt x="276" y="1434" on="0"/>
        <pt x="288" y="1384" on="1"/>
        <pt x="506" y="253" on="1"/>
        <pt x="507" y="251" on="0"/>
        <pt x="515" y="251" on="0"/>
        <pt x="515" y="253" on="1"/>
        <pt x="732" y="1376" on="1"/>
        <pt x="745" y="1435" on="0"/>
        <pt x="770" y="1438" on="1"/>
        <pt x="861" y="1438" on="1"/>
        <pt x="882" y="1435" on="0"/>
        <pt x="883" y="1374" on="1"/>
        <pt x="926" y="63" on="1"/>
        <pt x="926" y="56" on="1"/>
        <pt x="926" y="0" on="0"/>
        <pt x="904" y="0" on="1"/>
        <pt x="853" y="0" on="1"/>
        <pt x="829" y="0" on="0"/>
        <pt x="828" y="63" on="1"/>
        <pt x="795" y="1225" on="1"/>
        <pt x="795" y="1226" on="0"/>
        <pt x="793" y="1227" on="1"/>
        <pt x="790" y="1229" on="0"/>
        <pt x="790" y="1227" on="1"/>
        <pt x="567" y="61" on="1"/>
        <pt x="555" y="1" on="0"/>
        <pt x="530" y="1" on="1"/>
        <pt x="529" y="1" on="0"/>
        <pt x="490" y="0" on="1"/>
        <pt x="468" y="0" on="0"/>
        <pt x="454" y="61" on="1"/>
        <pt x="235" y="1217" on="1"/>
        <pt x="232" y="1212" on="1"/>
        <pt x="197" y="63" on="1"/>
        <pt x="196" y="0" on="0"/>
        <pt x="176" y="0" on="1"/>
      </contour>
    </TTGlyph>
    <TTGlyph name="N" xMin="108" yMin="0" xMax="782" yMax="1438">
      <contour>
        <pt x="132" y="0" on="1"/>
        <pt x="108" y="0" on="0"/>
        <pt x="108" y="55" on="1"/>
        <pt x="108" y="1389" on="1"/>
        <pt x="108" y="1419" on="0"/>
        <pt x="119" y="1438" on="0"/>
        <pt x="132" y="1438" on="1"/>
        <pt x="191" y="1438" on="1"/>
        <pt x="204" y="1438" on="0"/>
        <pt x="215" y="1413" on="1"/>
        <pt x="672" y="295" on="1"/>
        <pt x="677" y="308" on="1"/>
        <pt x="677" y="1389" on="1"/>
        <pt x="677" y="1419" on="0"/>
        <pt x="690" y="1438" on="0"/>
        <pt x="704" y="1438" on="1"/>
        <pt x="758" y="1438" on="1"/>
        <pt x="771" y="1438" on="0"/>
        <pt x="782" y="1419" on="0"/>
        <pt x="782" y="1389" on="1"/>
        <pt x="782" y="47" on="1"/>
        <pt x="782" y="17" on="0"/>
        <pt x="771" y="0" on="0"/>
        <pt x="758" y="0" on="1"/>
        <pt x="712" y="0" on="1"/>
        <pt x="705" y="0" on="0"/>
        <pt x="683" y="29" on="0"/>
        <pt x="677" y="43" on="1"/>
        <pt x="217" y="1145" on="1"/>
        <pt x="212" y="1136" on="1"/>
        <pt x="212" y="55" on="1"/>
        <pt x="212" y="0" on="0"/>
        <pt x="186" y="0" on="1"/>
      </contour>
    </TTGlyph>
    <TTGlyph name="Nacute" xMin="108" yMin="0" xMax="782" yMax="2010">
      <component glyphName="acute" x="59" y="407" flags="0x1004"/>
      <component glyphName="N" x="0" y="0" flags="0x1204"/>
    </TTGlyph>
    <TTGlyph name="Ncaron" xMin="108" yMin="0" xMax="782" yMax="1841">
      <component glyphName="caron" x="296" y="339" flags="0x1004"/>
      <component glyphName="N" x="0" y="0" flags="0x1204"/>
    </TTGlyph>
    <TTGlyph name="Ncommaaccent" xMin="108" yMin="-622" xMax="782" yMax="1438">
      <component glyphName="comma" x="307" y="-337" flags="0x1004"/>
      <component glyphName="N" x="0" y="0" flags="0x1204"/>
    </TTGlyph>
    <TTGlyph name="Ntilde" xMin="108" yMin="0" xMax="782" yMax="1721">
      <component glyphName="tilde" x="207" y="749" flags="0x1004"/>
      <component glyphName="N" x="0" y="0" flags="0x1204"/>
    </TTGlyph>
    <TTGlyph name="O" xMin="89" yMin="-14" xMax="781" yMax="1452">
      <contour>
        <pt x="434" y="79" on="1"/>
        <pt x="525" y="79" on="0"/>
        <pt x="619" y="176" on="0"/>
        <pt x="666" y="455" on="0"/>
        <pt x="666" y="725" on="1"/>
        <pt x="666" y="974" on="0"/>
        <pt x="622" y="1244" on="0"/>
        <pt x="524" y="1358" on="0"/>
        <pt x="434" y="1358" on="1"/>
        <pt x="346" y="1358" on="0"/>
        <pt x="248" y="1237" on="0"/>
        <pt x="204" y="966" on="0"/>
        <pt x="204" y="725" on="1"/>
        <pt x="204" y="460" on="0"/>
        <pt x="251" y="181" on="0"/>
        <pt x="346" y="79" on="0"/>
      </contour>
      <contour>
        <pt x="434" y="-14" on="1"/>
        <pt x="355" y="-14" on="0"/>
        <pt x="247" y="26" on="0"/>
        <pt x="162" y="122" on="0"/>
        <pt x="113" y="293" on="0"/>
        <pt x="89" y="544" on="0"/>
        <pt x="89" y="725" on="1"/>
        <pt x="89" y="1005" on="0"/>
        <pt x="159" y="1320" on="0"/>
        <pt x="306" y="1452" on="0"/>
        <pt x="434" y="1452" on="1"/>
        <pt x="565" y="1452" on="0"/>
        <pt x="711" y="1324" on="0"/>
        <pt x="781" y="1009" on="0"/>
        <pt x="781" y="725" on="1"/>
        <pt x="781" y="542" on="0"/>
        <pt x="757" y="289" on="0"/>
        <pt x="709" y="119" on="0"/>
        <pt x="623" y="24" on="0"/>
        <pt x="514" y="-14" on="0"/>
      </contour>
    </TTGlyph>
    <TTGlyph name="OE" xMin="89" yMin="0" xMax="946" yMax="1438">
      <contour>
        <pt x="445" y="0" on="1"/>
        <pt x="370" y="0" on="0"/>
        <pt x="264" y="35" on="0"/>
        <pt x="173" y="128" on="0"/>
        <pt x="119" y="290" on="0"/>
        <pt x="89" y="544" on="0"/>
        <pt x="89" y="723" on="1"/>
        <pt x="89" y="993" on="0"/>
        <pt x="169" y="1311" on="0"/>
        <pt x="318" y="1438" on="0"/>
        <pt x="440" y="1438" on="1"/>
        <pt x="917" y="1438" on="1"/>
        <pt x="929" y="1438" on="0"/>
        <pt x="940" y="1422" on="0"/>
        <pt x="940" y="1401" on="1"/>
        <pt x="940" y="1385" on="1"/>
        <pt x="940" y="1363" on="0"/>
        <pt x="929" y="1348" on="0"/>
        <pt x="917" y="1348" on="1"/>
        <pt x="667" y="1348" on="1"/>
        <pt x="657" y="1348" on="0"/>
        <pt x="657" y="1320" on="1"/>
        <pt x="657" y="800" on="1"/>
        <pt x="657" y="797" on="0"/>
        <pt x="662" y="786" on="0"/>
        <pt x="663" y="786" on="1"/>
        <pt x="897" y="786" on="1"/>
        <pt x="921" y="786" on="0"/>
        <pt x="921" y="751" on="1"/>
        <pt x="921" y="734" on="1"/>
        <pt x="921" y="712" on="0"/>
        <pt x="909" y="697" on="0"/>
        <pt x="897" y="697" on="1"/>
        <pt x="664" y="697" on="1"/>
        <pt x="663" y="697" on="0"/>
        <pt x="657" y="679" on="0"/>
        <pt x="657" y="676" on="1"/>
        <pt x="657" y="109" on="1"/>
        <pt x="657" y="90" on="0"/>
        <pt x="660" y="90" on="1"/>
        <pt x="924" y="90" on="1"/>
        <pt x="935" y="90" on="0"/>
        <pt x="946" y="75" on="0"/>
        <pt x="946" y="53" on="1"/>
        <pt x="946" y="37" on="1"/>
        <pt x="946" y="0" on="0"/>
        <pt x="924" y="0" on="1"/>
      </contour>
      <contour>
        <pt x="540" y="89" on="1"/>
        <pt x="542" y="89" on="0"/>
        <pt x="542" y="718" on="1"/>
        <pt x="542" y="1348" on="0"/>
        <pt x="540" y="1348" on="1"/>
        <pt x="443" y="1348" on="1"/>
        <pt x="357" y="1347" on="0"/>
        <pt x="254" y="1228" on="0"/>
        <pt x="204" y="955" on="0"/>
        <pt x="204" y="723" on="1"/>
        <pt x="204" y="468" on="0"/>
        <pt x="257" y="189" on="0"/>
        <pt x="356" y="90" on="0"/>
        <pt x="443" y="90" on="1"/>
      </contour>
    </TTGlyph>
    <TTGlyph name="Oacute" xMin="89" yMin="-14" xMax="781" yMax="2010">
      <component glyphName="acute" x="49" y="407" flags="0x1004"/>
      <component glyphName="O" x="0" y="0" flags="0x1204"/>
    </TTGlyph>
    <TTGlyph name="Obreve" xMin="89" yMin="-14" xMax="781" yMax="1748">
      <component glyphName="breve" x="-168" y="281" flags="0x1004"/>
      <component glyphName="O" x="0" y="0" flags="0x1204"/>
    </TTGlyph>
    <TTGlyph name="Ocircumflex" xMin="89" yMin="-14" xMax="781" yMax="1841">
      <component glyphName="circumflex" x="286" y="339" flags="0x1004"/>
      <component glyphName="O" x="0" y="0" flags="0x1204"/>
    </TTGlyph>
    <TTGlyph name="Odieresis" xMin="89" yMin="-14" xMax="781" yMax="1714">
      <component glyphName="dieresis" x="216" y="1574" flags="0x1004"/>
      <component glyphName="O" x="0" y="0" flags="0x1204"/>
    </TTGlyph>
    <TTGlyph name="Ograve" xMin="89" yMin="-14" xMax="781" yMax="2010">
      <component glyphName="grave" x="-22" y="407" flags="0x1004"/>
      <component glyphName="O" x="0" y="0" flags="0x1204"/>
    </TTGlyph>
    <TTGlyph name="Ohungarumlaut" xMin="89" yMin="-14" xMax="781" yMax="2010">
      <component glyphName="hungarumlaut" x="120" y="407" flags="0x1004"/>
      <component glyphName="O" x="0" y="0" flags="0x1204"/>
    </TTGlyph>
    <TTGlyph name="Omacron" xMin="89" yMin="-14" xMax="781" yMax="1651">
      <component glyphName="macron" x="102" y="1357" flags="0x1004"/>
      <component glyphName="O" x="0" y="0" flags="0x1204"/>
    </TTGlyph>
    <TTGlyph name="Oslash" xMin="89" yMin="-205" xMax="781" yMax="1647">
      <contour>
        <pt x="293" y="-205" on="1"/>
        <pt x="290" y="-205" on="0"/>
        <pt x="285" y="-181" on="0"/>
        <pt x="287" y="-172" on="1"/>
        <pt x="312" y="2" on="1"/>
        <pt x="230" y="28" on="0"/>
        <pt x="134" y="182" on="0"/>
        <pt x="89" y="480" on="0"/>
        <pt x="89" y="725" on="1"/>
        <pt x="89" y="1005" on="0"/>
        <pt x="159" y="1321" on="0"/>
        <pt x="306" y="1453" on="0"/>
        <pt x="434" y="1453" on="1"/>
        <pt x="481" y="1453" on="0"/>
        <pt x="516" y="1446" on="1"/>
        <pt x="539" y="1614" on="1"/>
        <pt x="542" y="1647" on="0"/>
        <pt x="555" y="1647" on="1"/>
        <pt x="603" y="1647" on="1"/>
        <pt x="607" y="1647" on="0"/>
        <pt x="611" y="1625" on="0"/>
        <pt x="609" y="1614" on="1"/>
        <pt x="582" y="1426" on="1"/>
        <pt x="689" y="1376" on="0"/>
        <pt x="781" y="1053" on="0"/>
        <pt x="781" y="725" on="1"/>
        <pt x="781" y="542" on="0"/>
        <pt x="757" y="289" on="0"/>
        <pt x="709" y="119" on="0"/>
        <pt x="623" y="24" on="0"/>
        <pt x="514" y="-14" on="0"/>
        <pt x="434" y="-14" on="1"/>
        <pt x="404" y="-14" on="0"/>
        <pt x="379" y="-11" on="1"/>
        <pt x="357" y="-172" on="1"/>
        <pt x="352" y="-205" on="0"/>
        <pt x="342" y="-205" on="1"/>
      </contour>
      <contour>
        <pt x="328" y="119" on="1"/>
        <pt x="328" y="119" on="0"/>
        <pt x="502" y="1351" on="1"/>
        <pt x="466" y="1360" on="0"/>
        <pt x="434" y="1360" on="1"/>
        <pt x="346" y="1360" on="0"/>
        <pt x="248" y="1238" on="0"/>
        <pt x="204" y="967" on="0"/>
        <pt x="204" y="725" on="1"/>
        <pt x="204" y="437" on="0"/>
        <pt x="261" y="163" on="0"/>
      </contour>
      <contour>
        <pt x="434" y="80" on="1"/>
        <pt x="525" y="80" on="0"/>
        <pt x="619" y="177" on="0"/>
        <pt x="666" y="455" on="0"/>
        <pt x="666" y="725" on="1"/>
        <pt x="666" y="973" on="0"/>
        <pt x="619" y="1241" on="0"/>
        <pt x="564" y="1297" on="1"/>
        <pt x="393" y="83" on="1"/>
        <pt x="412" y="80" on="0"/>
      </contour>
    </TTGlyph>
    <TTGlyph name="Otilde" xMin="89" yMin="-14" xMax="781" yMax="1721">
      <component glyphName="tilde" x="197" y="749" flags="0x1004"/>
      <component glyphName="O" x="0" y="0" flags="0x1204"/>
    </TTGlyph>
    <TTGlyph name="P" xMin="108" yMin="0" xMax="736" yMax="1438">
      <contour>
        <pt x="131" y="0" on="1"/>
        <pt x="119" y="0" on="0"/>
        <pt x="108" y="18" on="0"/>
        <pt x="108" y="45" on="1"/>
        <pt x="108" y="1392" on="1"/>
        <pt x="108" y="1422" on="0"/>
        <pt x="118" y="1438" on="0"/>
        <pt x="131" y="1438" on="1"/>
        <pt x="364" y="1438" on="1"/>
        <pt x="401" y="1438" on="0"/>
        <pt x="452" y="1436" on="0"/>
        <pt x="520" y="1426" on="0"/>
        <pt x="567" y="1409" on="0"/>
        <pt x="624" y="1376" on="0"/>
        <pt x="662" y="1330" on="0"/>
        <pt x="700" y="1262" on="0"/>
        <pt x="722" y="1174" on="0"/>
        <pt x="736" y="1056" on="0"/>
        <pt x="736" y="985" on="1"/>
        <pt x="736" y="898" on="0"/>
        <pt x="716" y="762" on="0"/>
        <pt x="685" y="669" on="0"/>
        <pt x="632" y="603" on="0"/>
        <pt x="580" y="566" on="0"/>
        <pt x="504" y="545" on="0"/>
        <pt x="440" y="540" on="0"/>
        <pt x="396" y="540" on="1"/>
        <pt x="228" y="540" on="1"/>
        <pt x="220" y="540" on="0"/>
        <pt x="220" y="526" on="1"/>
        <pt x="220" y="45" on="1"/>
        <pt x="220" y="19" on="0"/>
        <pt x="209" y="0" on="0"/>
        <pt x="197" y="0" on="1"/>
      </contour>
      <contour>
        <pt x="227" y="631" on="1"/>
        <pt x="227" y="631" on="0"/>
        <pt x="388" y="631" on="1"/>
        <pt x="441" y="631" on="0"/>
        <pt x="507" y="643" on="0"/>
        <pt x="569" y="683" on="0"/>
        <pt x="602" y="760" on="0"/>
        <pt x="622" y="890" on="0"/>
        <pt x="622" y="985" on="1"/>
        <pt x="622" y="1059" on="0"/>
        <pt x="608" y="1172" on="0"/>
        <pt x="586" y="1248" on="0"/>
        <pt x="546" y="1301" on="0"/>
        <pt x="509" y="1330" on="0"/>
        <pt x="446" y="1345" on="0"/>
        <pt x="399" y="1348" on="0"/>
        <pt x="360" y="1348" on="1"/>
        <pt x="228" y="1348" on="1"/>
        <pt x="220" y="1348" on="0"/>
        <pt x="220" y="1335" on="1"/>
        <pt x="220" y="643" on="1"/>
        <pt x="220" y="631" on="0"/>
      </contour>
    </TTGlyph>
    <TTGlyph name="Q" xMin="89" yMin="-359" xMax="845" yMax="1452">
      <contour>
        <pt x="590" y="-318" on="1"/>
        <pt x="590" y="-318" on="0"/>
        <pt x="508" y="-10" on="1"/>
        <pt x="490" y="-14" on="0"/>
        <pt x="452" y="-14" on="1"/>
        <pt x="374" y="-12" on="0"/>
        <pt x="267" y="23" on="0"/>
        <pt x="173" y="117" on="0"/>
        <pt x="119" y="280" on="0"/>
        <pt x="89" y="539" on="0"/>
        <pt x="89" y="723" on="1"/>
        <pt x="89" y="899" on="0"/>
        <pt x="120" y="1152" on="0"/>
        <pt x="178" y="1317" on="0"/>
        <pt x="273" y="1414" on="0"/>
        <pt x="387" y="1452" on="0"/>
        <pt x="466" y="1452" on="1"/>
        <pt x="546" y="1452" on="0"/>
        <pt x="661" y="1415" on="0"/>
        <pt x="757" y="1320" on="0"/>
        <pt x="814" y="1156" on="0"/>
        <pt x="845" y="901" on="0"/>
        <pt x="845" y="723" on="1"/>
        <pt x="845" y="473" on="0"/>
        <pt x="792" y="170" on="0"/>
        <pt x="692" y="28" on="0"/>
        <pt x="607" y="2" on="1"/>
        <pt x="609" y="-6" on="0"/>
        <pt x="647" y="-154" on="0"/>
        <pt x="683" y="-295" on="0"/>
        <pt x="683" y="-298" on="1"/>
        <pt x="684" y="-301" on="0"/>
        <pt x="687" y="-314" on="0"/>
        <pt x="688" y="-318" on="0"/>
        <pt x="690" y="-327" on="0"/>
        <pt x="690" y="-330" on="0"/>
        <pt x="689" y="-336" on="0"/>
        <pt x="686" y="-339" on="0"/>
        <pt x="682" y="-343" on="0"/>
        <pt x="675" y="-346" on="0"/>
        <pt x="671" y="-347" on="1"/>
        <pt x="632" y="-359" on="0"/>
        <pt x="621" y="-359" on="1"/>
        <pt x="600" y="-359" on="0"/>
      </contour>
      <contour>
        <pt x="466" y="79" on="1"/>
        <pt x="513" y="79" on="0"/>
        <pt x="578" y="95" on="0"/>
        <pt x="642" y="142" on="0"/>
        <pt x="683" y="231" on="0"/>
        <pt x="715" y="372" on="0"/>
        <pt x="730" y="581" on="0"/>
        <pt x="730" y="723" on="1"/>
        <pt x="730" y="917" on="0"/>
        <pt x="698" y="1169" on="0"/>
        <pt x="628" y="1306" on="0"/>
        <pt x="536" y="1358" on="0"/>
        <pt x="466" y="1358" on="1"/>
        <pt x="375" y="1358" on="0"/>
        <pt x="265" y="1254" on="0"/>
        <pt x="204" y="971" on="0"/>
        <pt x="204" y="723" on="1"/>
        <pt x="204" y="557" on="0"/>
        <pt x="227" y="324" on="0"/>
        <pt x="267" y="183" on="0"/>
        <pt x="336" y="105" on="0"/>
        <pt x="411" y="79" on="0"/>
      </contour>
    </TTGlyph>
    <TTGlyph name="R" xMin="108" yMin="0" xMax="774" yMax="1438">
      <contour>
        <pt x="131" y="0" on="1"/>
        <pt x="119" y="0" on="0"/>
        <pt x="108" y="16" on="0"/>
        <pt x="108" y="43" on="1"/>
        <pt x="108" y="1393" on="1"/>
        <pt x="108" y="1423" on="0"/>
        <pt x="118" y="1438" on="0"/>
        <pt x="131" y="1438" on="1"/>
        <pt x="394" y="1438" on="1"/>
        <pt x="444" y="1438" on="0"/>
        <pt x="515" y="1434" on="0"/>
        <pt x="600" y="1418" on="0"/>
        <pt x="658" y="1389" on="0"/>
        <pt x="717" y="1336" on="0"/>
        <pt x="752" y="1262" on="0"/>
        <pt x="774" y="1152" on="0"/>
        <pt x="774" y="1082" on="1"/>
        <pt x="774" y="941" on="0"/>
        <pt x="687" y="796" on="0"/>
        <pt x="603" y="761" on="1"/>
        <pt x="597" y="757" on="0"/>
        <pt x="597" y="749" on="0"/>
        <pt x="602" y="749" on="1"/>
        <pt x="605" y="748" on="0"/>
        <pt x="611" y="745" on="1"/>
        <pt x="639" y="732" on="0"/>
        <pt x="674" y="713" on="0"/>
        <pt x="721" y="670" on="0"/>
        <pt x="749" y="616" on="0"/>
        <pt x="770" y="525" on="0"/>
        <pt x="771" y="465" on="1"/>
        <pt x="771" y="54" on="1"/>
        <pt x="771" y="0" on="0"/>
        <pt x="748" y="0" on="1"/>
        <pt x="680" y="0" on="1"/>
        <pt x="659" y="0" on="0"/>
        <pt x="659" y="52" on="1"/>
        <pt x="659" y="171" on="1"/>
        <pt x="659" y="498" on="1"/>
        <pt x="659" y="561" on="0"/>
        <pt x="620" y="648" on="0"/>
        <pt x="555" y="688" on="0"/>
        <pt x="494" y="704" on="0"/>
        <pt x="460" y="704" on="1"/>
        <pt x="229" y="704" on="1"/>
        <pt x="220" y="704" on="0"/>
        <pt x="220" y="688" on="1"/>
        <pt x="220" y="43" on="1"/>
        <pt x="220" y="17" on="0"/>
        <pt x="210" y="0" on="0"/>
        <pt x="197" y="0" on="1"/>
      </contour>
      <contour>
        <pt x="228" y="793" on="1"/>
        <pt x="228" y="793" on="0"/>
        <pt x="405" y="793" on="1"/>
        <pt x="540" y="793" on="0"/>
        <pt x="659" y="915" on="0"/>
        <pt x="659" y="1079" on="1"/>
        <pt x="659" y="1149" on="0"/>
        <pt x="632" y="1247" on="0"/>
        <pt x="589" y="1305" on="0"/>
        <pt x="513" y="1338" on="0"/>
        <pt x="434" y="1348" on="0"/>
        <pt x="377" y="1348" on="1"/>
        <pt x="228" y="1348" on="1"/>
        <pt x="220" y="1348" on="0"/>
        <pt x="220" y="1335" on="1"/>
        <pt x="220" y="808" on="1"/>
        <pt x="220" y="793" on="0"/>
      </contour>
    </TTGlyph>
    <TTGlyph name="Racute" xMin="108" yMin="0" xMax="774" yMax="2010">
      <component glyphName="acute" x="55" y="407" flags="0x1004"/>
      <component glyphName="R" x="0" y="0" flags="0x1204"/>
    </TTGlyph>
    <TTGlyph name="Rcaron" xMin="108" yMin="0" xMax="774" yMax="1841">
      <component glyphName="caron" x="292" y="339" flags="0x1004"/>
      <component glyphName="R" x="0" y="0" flags="0x1204"/>
    </TTGlyph>
    <TTGlyph name="Rcommaaccent" xMin="108" yMin="-622" xMax="774" yMax="1438">
      <component glyphName="comma" x="303" y="-337" flags="0x1004"/>
      <component glyphName="R" x="0" y="0" flags="0x1204"/>
    </TTGlyph>
    <TTGlyph name="S" xMin="46" yMin="-14" xMax="682" yMax="1452">
      <contour>
        <pt x="389" y="1452" on="1"/>
        <pt x="557" y="1452" on="0"/>
        <pt x="656" y="1328" on="1"/>
        <pt x="664" y="1317" on="0"/>
        <pt x="664" y="1304" on="1"/>
        <pt x="664" y="1283" on="0"/>
        <pt x="628" y="1244" on="0"/>
        <pt x="613" y="1244" on="1"/>
        <pt x="606" y="1244" on="0"/>
        <pt x="603" y="1248" on="1"/>
        <pt x="517" y="1356" on="0"/>
        <pt x="391" y="1356" on="1"/>
        <pt x="299" y="1356" on="0"/>
        <pt x="198" y="1213" on="0"/>
        <pt x="198" y="1101" on="1"/>
        <pt x="198" y="1032" on="0"/>
        <pt x="247" y="924" on="0"/>
        <pt x="303" y="870" on="0"/>
        <pt x="347" y="840" on="1"/>
        <pt x="482" y="750" on="1"/>
        <pt x="526" y="721" on="0"/>
        <pt x="590" y="662" on="0"/>
        <pt x="651" y="574" on="0"/>
        <pt x="682" y="453" on="0"/>
        <pt x="682" y="377" on="1"/>
        <pt x="682" y="207" on="0"/>
        <pt x="511" y="-14" on="0"/>
        <pt x="368" y="-14" on="1"/>
        <pt x="163" y="-14" on="0"/>
        <pt x="50" y="169" on="1"/>
        <pt x="46" y="176" on="0"/>
        <pt x="46" y="185" on="1"/>
        <pt x="46" y="206" on="0"/>
        <pt x="82" y="246" on="0"/>
        <pt x="100" y="246" on="1"/>
        <pt x="111" y="246" on="0"/>
        <pt x="116" y="238" on="1"/>
        <pt x="170" y="156" on="0"/>
        <pt x="288" y="84" on="0"/>
        <pt x="365" y="84" on="1"/>
        <pt x="461" y="84" on="0"/>
        <pt x="575" y="238" on="0"/>
        <pt x="575" y="363" on="1"/>
        <pt x="575" y="421" on="0"/>
        <pt x="554" y="508" on="0"/>
        <pt x="508" y="574" on="0"/>
        <pt x="459" y="618" on="0"/>
        <pt x="421" y="644" on="1"/>
        <pt x="284" y="737" on="1"/>
        <pt x="245" y="764" on="0"/>
        <pt x="189" y="814" on="0"/>
        <pt x="126" y="897" on="0"/>
        <pt x="93" y="1014" on="0"/>
        <pt x="93" y="1086" on="1"/>
        <pt x="93" y="1250" on="0"/>
        <pt x="254" y="1452" on="0"/>
      </contour>
    </TTGlyph>
    <TTGlyph name="Sacute" xMin="46" yMin="-14" xMax="682" yMax="2010">
      <component glyphName="acute" x="-22" y="407" flags="0x1004"/>
      <component glyphName="S" x="0" y="0" flags="0x1204"/>
    </TTGlyph>
    <TTGlyph name="Scaron" xMin="46" yMin="-14" xMax="682" yMax="1841">
      <component glyphName="caron" x="215" y="339" flags="0x1004"/>
      <component glyphName="S" x="0" y="0" flags="0x1204"/>
    </TTGlyph>
    <TTGlyph name="Scedilla" xMin="46" yMin="-541" xMax="682" yMax="1452">
      <component glyphName="cedilla" x="177" y="65" flags="0x1004"/>
      <component glyphName="S" x="0" y="0" flags="0x1204"/>
    </TTGlyph>
    <TTGlyph name="Scircumflex" xMin="46" yMin="-14" xMax="682" yMax="1841">
      <component glyphName="circumflex" x="215" y="339" flags="0x1004"/>
      <component glyphName="S" x="0" y="0" flags="0x1204"/>
    </TTGlyph>
    <TTGlyph name="Scommaaccent" xMin="46" yMin="-636" xMax="682" yMax="1452">
      <component glyphName="comma" x="226" y="-351" flags="0x1004"/>
      <component glyphName="S" x="0" y="0" flags="0x1204"/>
    </TTGlyph>
    <TTGlyph name="T" xMin="32" yMin="0" xMax="570" yMax="1438">
      <contour>
        <pt x="270" y="0" on="1"/>
        <pt x="258" y="0" on="0"/>
        <pt x="247" y="17" on="0"/>
        <pt x="247" y="47" on="1"/>
        <pt x="247" y="1317" on="1"/>
        <pt x="247" y="1342" on="0"/>
        <pt x="237" y="1342" on="1"/>
        <pt x="56" y="1342" on="1"/>
        <pt x="47" y="1342" on="0"/>
        <pt x="39" y="1344" on="0"/>
        <pt x="32" y="1358" on="0"/>
        <pt x="32" y="1373" on="1"/>
        <pt x="32" y="1401" on="1"/>
        <pt x="32" y="1426" on="0"/>
        <pt x="43" y="1438" on="0"/>
        <pt x="56" y="1438" on="1"/>
        <pt x="547" y="1438" on="1"/>
        <pt x="560" y="1438" on="0"/>
        <pt x="570" y="1426" on="0"/>
        <pt x="570" y="1401" on="1"/>
        <pt x="570" y="1373" on="1"/>
        <pt x="570" y="1358" on="0"/>
        <pt x="564" y="1344" on="0"/>
        <pt x="556" y="1342" on="0"/>
        <pt x="547" y="1342" on="1"/>
        <pt x="369" y="1342" on="1"/>
        <pt x="359" y="1342" on="0"/>
        <pt x="359" y="1317" on="1"/>
        <pt x="359" y="47" on="1"/>
        <pt x="359" y="17" on="0"/>
        <pt x="348" y="0" on="0"/>
        <pt x="335" y="0" on="1"/>
      </contour>
    </TTGlyph>
    <TTGlyph name="Tcaron" xMin="32" yMin="0" xMax="570" yMax="1841">
      <component glyphName="caron" x="152" y="339" flags="0x1004"/>
      <component glyphName="T" x="0" y="0" flags="0x1204"/>
    </TTGlyph>
    <TTGlyph name="Thorn" xMin="108" yMin="0" xMax="736" yMax="1406">
      <contour>
        <pt x="131" y="0" on="1"/>
        <pt x="119" y="0" on="0"/>
        <pt x="108" y="18" on="0"/>
        <pt x="108" y="45" on="1"/>
        <pt x="108" y="1361" on="1"/>
        <pt x="108" y="1388" on="0"/>
        <pt x="119" y="1406" on="0"/>
        <pt x="131" y="1406" on="1"/>
        <pt x="199" y="1406" on="1"/>
        <pt x="211" y="1406" on="0"/>
        <pt x="222" y="1388" on="0"/>
        <pt x="222" y="1361" on="1"/>
        <pt x="222" y="1180" on="1"/>
        <pt x="364" y="1180" on="1"/>
        <pt x="434" y="1180" on="0"/>
        <pt x="518" y="1172" on="0"/>
        <pt x="630" y="1128" on="0"/>
        <pt x="691" y="1045" on="0"/>
        <pt x="736" y="886" on="0"/>
        <pt x="736" y="771" on="1"/>
        <pt x="736" y="694" on="0"/>
        <pt x="716" y="573" on="0"/>
        <pt x="685" y="491" on="0"/>
        <pt x="632" y="432" on="0"/>
        <pt x="580" y="400" on="0"/>
        <pt x="503" y="383" on="0"/>
        <pt x="441" y="378" on="0"/>
        <pt x="396" y="378" on="1"/>
        <pt x="230" y="378" on="1"/>
        <pt x="222" y="378" on="0"/>
        <pt x="222" y="364" on="1"/>
        <pt x="222" y="45" on="1"/>
        <pt x="222" y="19" on="0"/>
        <pt x="211" y="0" on="0"/>
        <pt x="199" y="0" on="1"/>
      </contour>
      <contour>
        <pt x="229" y="469" on="1"/>
        <pt x="229" y="469" on="0"/>
        <pt x="388" y="469" on="1"/>
        <pt x="432" y="469" on="0"/>
        <pt x="489" y="475" on="0"/>
        <pt x="548" y="496" on="0"/>
        <pt x="582" y="536" on="0"/>
        <pt x="610" y="603" on="0"/>
        <pt x="622" y="702" on="0"/>
        <pt x="622" y="771" on="1"/>
        <pt x="622" y="822" on="0"/>
        <pt x="613" y="906" on="0"/>
        <pt x="600" y="968" on="0"/>
        <pt x="575" y="1016" on="0"/>
        <pt x="551" y="1048" on="0"/>
        <pt x="511" y="1070" on="0"/>
        <pt x="480" y="1082" on="0"/>
        <pt x="428" y="1089" on="0"/>
        <pt x="390" y="1090" on="0"/>
        <pt x="360" y="1090" on="1"/>
        <pt x="230" y="1090" on="1"/>
        <pt x="222" y="1090" on="0"/>
        <pt x="222" y="1077" on="1"/>
        <pt x="222" y="481" on="1"/>
        <pt x="222" y="469" on="0"/>
      </contour>
    </TTGlyph>
    <TTGlyph name="U" xMin="99" yMin="-14" xMax="818" yMax="1438">
      <contour>
        <pt x="467" y="-14" on="1"/>
        <pt x="414" y="-14" on="0"/>
        <pt x="338" y="-5" on="0"/>
        <pt x="256" y="25" on="0"/>
        <pt x="200" y="79" on="0"/>
        <pt x="148" y="170" on="0"/>
        <pt x="117" y="299" on="0"/>
        <pt x="99" y="482" on="0"/>
        <pt x="99" y="600" on="1"/>
        <pt x="99" y="1391" on="1"/>
        <pt x="99" y="1421" on="0"/>
        <pt x="110" y="1438" on="0"/>
        <pt x="123" y="1438" on="1"/>
        <pt x="188" y="1438" on="1"/>
        <pt x="200" y="1438" on="0"/>
        <pt x="211" y="1421" on="0"/>
        <pt x="211" y="1391" on="1"/>
        <pt x="211" y="602" on="1"/>
        <pt x="211" y="463" on="0"/>
        <pt x="234" y="272" on="0"/>
        <pt x="272" y="159" on="0"/>
        <pt x="340" y="98" on="0"/>
        <pt x="411" y="80" on="0"/>
        <pt x="466" y="80" on="1"/>
        <pt x="505" y="80" on="0"/>
        <pt x="558" y="88" on="0"/>
        <pt x="613" y="112" on="0"/>
        <pt x="648" y="158" on="0"/>
        <pt x="679" y="234" on="0"/>
        <pt x="696" y="345" on="0"/>
        <pt x="706" y="500" on="0"/>
        <pt x="706" y="602" on="1"/>
        <pt x="706" y="1391" on="1"/>
        <pt x="706" y="1421" on="0"/>
        <pt x="717" y="1438" on="0"/>
        <pt x="730" y="1438" on="1"/>
        <pt x="795" y="1438" on="1"/>
        <pt x="808" y="1438" on="0"/>
        <pt x="818" y="1421" on="0"/>
        <pt x="818" y="1391" on="1"/>
        <pt x="818" y="600" on="1"/>
        <pt x="818" y="482" on="0"/>
        <pt x="801" y="299" on="0"/>
        <pt x="773" y="170" on="0"/>
        <pt x="723" y="79" on="0"/>
        <pt x="670" y="25" on="0"/>
        <pt x="592" y="-5" on="0"/>
        <pt x="519" y="-14" on="0"/>
      </contour>
    </TTGlyph>
    <TTGlyph name="Uacute" xMin="99" yMin="-14" xMax="818" yMax="2010">
      <component glyphName="acute" x="72" y="407" flags="0x1004"/>
      <component glyphName="U" x="0" y="0" flags="0x1204"/>
    </TTGlyph>
    <TTGlyph name="Ubreve" xMin="99" yMin="-14" xMax="818" yMax="1748">
      <component glyphName="breve" x="-144" y="281" flags="0x1004"/>
      <component glyphName="U" x="0" y="0" flags="0x1204"/>
    </TTGlyph>
    <TTGlyph name="Ucircumflex" xMin="99" yMin="-14" xMax="818" yMax="1841">
      <component glyphName="circumflex" x="310" y="339" flags="0x1004"/>
      <component glyphName="U" x="0" y="0" flags="0x1204"/>
    </TTGlyph>
    <TTGlyph name="Udieresis" xMin="99" yMin="-14" xMax="818" yMax="1714">
      <component glyphName="dieresis" x="240" y="1574" flags="0x1004"/>
      <component glyphName="U" x="0" y="0" flags="0x1204"/>
    </TTGlyph>
    <TTGlyph name="Ugrave" xMin="99" yMin="-14" xMax="818" yMax="2010">
      <component glyphName="grave" x="1" y="407" flags="0x1004"/>
      <component glyphName="U" x="0" y="0" flags="0x1204"/>
    </TTGlyph>
    <TTGlyph name="Uhungarumlaut" xMin="99" yMin="-14" xMax="818" yMax="2010">
      <component glyphName="hungarumlaut" x="144" y="407" flags="0x1004"/>
      <component glyphName="U" x="0" y="0" flags="0x1204"/>
    </TTGlyph>
    <TTGlyph name="Umacron" xMin="99" yMin="-14" xMax="818" yMax="1651">
      <component glyphName="macron" x="126" y="1357" flags="0x1004"/>
      <component glyphName="U" x="0" y="0" flags="0x1204"/>
    </TTGlyph>
    <TTGlyph name="Uogonek" xMin="99" yMin="-336" xMax="818" yMax="1438">
      <component glyphName="ogonek" x="70" y="-7" flags="0x1004"/>
      <component glyphName="U" x="0" y="0" flags="0x1204"/>
    </TTGlyph>
    <TTGlyph name="Uring" xMin="99" yMin="-14" xMax="818" yMax="1900">
      <component glyphName="ring" x="60" y="1083" flags="0x1004"/>
      <component glyphName="U" x="0" y="0" flags="0x1204"/>
    </TTGlyph>
    <TTGlyph name="Utilde" xMin="99" yMin="-14" xMax="818" yMax="1721">
      <component glyphName="tilde" x="220" y="749" flags="0x1004"/>
      <component glyphName="U" x="0" y="0" flags="0x1204"/>
    </TTGlyph>
    <TTGlyph name="V" xMin="54" yMin="0" xMax="689" yMax="1438">
      <contour>
        <pt x="345" y="0" on="1"/>
        <pt x="321" y="4" on="0"/>
        <pt x="310" y="59" on="1"/>
        <pt x="58" y="1371" on="1"/>
        <pt x="54" y="1395" on="0"/>
        <pt x="54" y="1404" on="1"/>
        <pt x="54" y="1438" on="0"/>
        <pt x="69" y="1438" on="1"/>
        <pt x="140" y="1438" on="1"/>
        <pt x="162" y="1438" on="0"/>
        <pt x="174" y="1375" on="1"/>
        <pt x="386" y="211" on="1"/>
        <pt x="580" y="1375" on="1"/>
        <pt x="590" y="1438" on="0"/>
        <pt x="613" y="1438" on="1"/>
        <pt x="674" y="1438" on="1"/>
        <pt x="689" y="1438" on="0"/>
        <pt x="689" y="1405" on="1"/>
        <pt x="689" y="1390" on="0"/>
        <pt x="686" y="1371" on="1"/>
        <pt x="450" y="59" on="1"/>
        <pt x="440" y="3" on="0"/>
        <pt x="416" y="0" on="1"/>
      </contour>
    </TTGlyph>
    <TTGlyph name="W" xMin="58" yMin="0" xMax="1097" yMax="1438">
      <contour>
        <pt x="287" y="0" on="1"/>
        <pt x="264" y="3" on="0"/>
        <pt x="253" y="68" on="1"/>
        <pt x="62" y="1370" on="1"/>
        <pt x="58" y="1387" on="0"/>
        <pt x="58" y="1405" on="1"/>
        <pt x="58" y="1438" on="0"/>
        <pt x="73" y="1438" on="1"/>
        <pt x="137" y="1438" on="1"/>
        <pt x="162" y="1438" on="0"/>
        <pt x="173" y="1370" on="1"/>
        <pt x="323" y="290" on="1"/>
        <pt x="504" y="1362" on="1"/>
        <pt x="515" y="1418" on="0"/>
        <pt x="542" y="1418" on="1"/>
        <pt x="609" y="1418" on="1"/>
        <pt x="637" y="1416" on="0"/>
        <pt x="647" y="1361" on="1"/>
        <pt x="848" y="259" on="1"/>
        <pt x="991" y="1370" on="1"/>
        <pt x="1000" y="1438" on="0"/>
        <pt x="1025" y="1438" on="1"/>
        <pt x="1082" y="1438" on="1"/>
        <pt x="1097" y="1438" on="0"/>
        <pt x="1097" y="1406" on="1"/>
        <pt x="1097" y="1398" on="0"/>
        <pt x="1093" y="1370" on="1"/>
        <pt x="914" y="68" on="1"/>
        <pt x="905" y="3" on="0"/>
        <pt x="882" y="0" on="1"/>
        <pt x="818" y="0" on="1"/>
        <pt x="792" y="3" on="0"/>
        <pt x="780" y="68" on="1"/>
        <pt x="571" y="1225" on="1"/>
        <pt x="374" y="68" on="1"/>
        <pt x="363" y="4" on="0"/>
        <pt x="345" y="0" on="1"/>
      </contour>
    </TTGlyph>
    <TTGlyph name="Wacute" xMin="58" yMin="0" xMax="1097" yMax="2010">
      <component glyphName="acute" x="191" y="407" flags="0x1004"/>
      <component glyphName="W" x="0" y="0" flags="0x1204"/>
    </TTGlyph>
    <TTGlyph name="Wcircumflex" xMin="58" yMin="0" xMax="1097" yMax="1841">
      <component glyphName="circumflex" x="429" y="339" flags="0x1004"/>
      <component glyphName="W" x="0" y="0" flags="0x1204"/>
    </TTGlyph>
    <TTGlyph name="Wdieresis" xMin="58" yMin="0" xMax="1097" yMax="1714">
      <component glyphName="dieresis" x="358" y="1574" flags="0x1004"/>
      <component glyphName="W" x="0" y="0" flags="0x1204"/>
    </TTGlyph>
    <TTGlyph name="Wgrave" xMin="58" yMin="0" xMax="1097" yMax="2010">
      <component glyphName="grave" x="120" y="407" flags="0x1004"/>
      <component glyphName="W" x="0" y="0" flags="0x1204"/>
    </TTGlyph>
    <TTGlyph name="X" xMin="58" yMin="0" xMax="724" yMax="1438">
      <contour>
        <pt x="69" y="0" on="1"/>
        <pt x="58" y="0" on="0"/>
        <pt x="58" y="22" on="1"/>
        <pt x="58" y="42" on="0"/>
        <pt x="67" y="64" on="1"/>
        <pt x="330" y="733" on="1"/>
        <pt x="91" y="1373" on="1"/>
        <pt x="81" y="1411" on="0"/>
        <pt x="81" y="1417" on="1"/>
        <pt x="81" y="1438" on="0"/>
        <pt x="92" y="1438" on="1"/>
        <pt x="176" y="1438" on="1"/>
        <pt x="190" y="1438" on="0"/>
        <pt x="213" y="1418" on="0"/>
        <pt x="223" y="1389" on="1"/>
        <pt x="408" y="880" on="1"/>
        <pt x="599" y="1389" on="1"/>
        <pt x="619" y="1438" on="0"/>
        <pt x="648" y="1438" on="1"/>
        <pt x="704" y="1438" on="1"/>
        <pt x="720" y="1438" on="0"/>
        <pt x="720" y="1414" on="1"/>
        <pt x="720" y="1398" on="0"/>
        <pt x="714" y="1384" on="1"/>
        <pt x="467" y="760" on="1"/>
        <pt x="716" y="65" on="1"/>
        <pt x="724" y="41" on="0"/>
        <pt x="724" y="26" on="1"/>
        <pt x="724" y="0" on="0"/>
        <pt x="708" y="0" on="1"/>
        <pt x="638" y="0" on="1"/>
        <pt x="624" y="0" on="0"/>
        <pt x="602" y="20" on="0"/>
        <pt x="592" y="49" on="1"/>
        <pt x="390" y="616" on="1"/>
        <pt x="167" y="48" on="1"/>
        <pt x="156" y="20" on="0"/>
        <pt x="136" y="0" on="0"/>
        <pt x="122" y="0" on="1"/>
      </contour>
    </TTGlyph>
    <TTGlyph name="Y" xMin="40" yMin="0" xMax="605" yMax="1438">
      <contour>
        <pt x="290" y="0" on="1"/>
        <pt x="278" y="0" on="0"/>
        <pt x="267" y="21" on="0"/>
        <pt x="267" y="52" on="1"/>
        <pt x="267" y="540" on="1"/>
        <pt x="47" y="1380" on="1"/>
        <pt x="40" y="1401" on="0"/>
        <pt x="40" y="1416" on="1"/>
        <pt x="40" y="1438" on="0"/>
        <pt x="60" y="1438" on="1"/>
        <pt x="119" y="1438" on="1"/>
        <pt x="149" y="1438" on="0"/>
        <pt x="160" y="1396" on="1"/>
        <pt x="329" y="729" on="1"/>
        <pt x="496" y="1396" on="1"/>
        <pt x="500" y="1416" on="0"/>
        <pt x="522" y="1438" on="0"/>
        <pt x="534" y="1438" on="1"/>
        <pt x="586" y="1438" on="1"/>
        <pt x="605" y="1438" on="0"/>
        <pt x="605" y="1414" on="1"/>
        <pt x="605" y="1396" on="0"/>
        <pt x="600" y="1380" on="1"/>
        <pt x="381" y="543" on="1"/>
        <pt x="381" y="52" on="1"/>
        <pt x="381" y="21" on="0"/>
        <pt x="370" y="0" on="0"/>
        <pt x="358" y="0" on="1"/>
      </contour>
    </TTGlyph>
    <TTGlyph name="Yacute" xMin="40" yMin="0" xMax="605" yMax="2010">
      <component glyphName="acute" x="-64" y="407" flags="0x1004"/>
      <component glyphName="Y" x="0" y="0" flags="0x1204"/>
    </TTGlyph>
    <TTGlyph name="Ycircumflex" xMin="40" yMin="0" xMax="605" yMax="1841">
      <component glyphName="circumflex" x="174" y="339" flags="0x1004"/>
      <component glyphName="Y" x="0" y="0" flags="0x1204"/>
    </TTGlyph>
    <TTGlyph name="Ydieresis" xMin="40" yMin="0" xMax="605" yMax="1714">
      <component glyphName="dieresis" x="104" y="1574" flags="0x1004"/>
      <component glyphName="Y" x="0" y="0" flags="0x1204"/>
    </TTGlyph>
    <TTGlyph name="Ygrave" xMin="40" yMin="0" xMax="605" yMax="2010">
      <component glyphName="grave" x="-135" y="407" flags="0x1004"/>
      <component glyphName="Y" x="0" y="0" flags="0x1204"/>
    </TTGlyph>
    <TTGlyph name="Z" xMin="82" yMin="0" xMax="588" yMax="1438">
      <contour>
        <pt x="104" y="0" on="1"/>
        <pt x="92" y="0" on="0"/>
        <pt x="82" y="10" on="0"/>
        <pt x="82" y="31" on="1"/>
        <pt x="82" y="52" on="1"/>
        <pt x="82" y="73" on="0"/>
        <pt x="91" y="105" on="1"/>
        <pt x="444" y="1301" on="1"/>
        <pt x="449" y="1326" on="0"/>
        <pt x="449" y="1329" on="1"/>
        <pt x="449" y="1348" on="0"/>
        <pt x="438" y="1348" on="1"/>
        <pt x="110" y="1348" on="1"/>
        <pt x="101" y="1348" on="0"/>
        <pt x="93" y="1350" on="0"/>
        <pt x="86" y="1364" on="0"/>
        <pt x="86" y="1379" on="1"/>
        <pt x="86" y="1407" on="1"/>
        <pt x="86" y="1428" on="0"/>
        <pt x="97" y="1438" on="0"/>
        <pt x="110" y="1438" on="1"/>
        <pt x="556" y="1438" on="1"/>
        <pt x="568" y="1438" on="0"/>
        <pt x="579" y="1428" on="0"/>
        <pt x="579" y="1407" on="1"/>
        <pt x="579" y="1390" on="1"/>
        <pt x="579" y="1347" on="0"/>
        <pt x="566" y="1303" on="1"/>
        <pt x="221" y="129" on="1"/>
        <pt x="216" y="114" on="0"/>
        <pt x="216" y="104" on="1"/>
        <pt x="216" y="90" on="0"/>
        <pt x="223" y="90" on="1"/>
        <pt x="565" y="90" on="1"/>
        <pt x="574" y="90" on="0"/>
        <pt x="581" y="89" on="0"/>
        <pt x="588" y="76" on="0"/>
        <pt x="588" y="61" on="1"/>
        <pt x="588" y="31" on="1"/>
        <pt x="588" y="17" on="0"/>
        <pt x="581" y="3" on="0"/>
        <pt x="573" y="0" on="0"/>
        <pt x="565" y="0" on="1"/>
      </contour>
    </TTGlyph>
    <TTGlyph name="Zacute" xMin="82" yMin="0" xMax="588" yMax="2010">
      <component glyphName="acute" x="-51" y="407" flags="0x1004"/>
      <component glyphName="Z" x="0" y="0" flags="0x1204"/>
    </TTGlyph>
    <TTGlyph name="Zcaron" xMin="82" yMin="0" xMax="588" yMax="1841">
      <component glyphName="caron" x="186" y="339" flags="0x1004"/>
      <component glyphName="Z" x="0" y="0" flags="0x1204"/>
    </TTGlyph>
    <TTGlyph name="Zdotaccent" xMin="82" yMin="0" xMax="588" yMax="1761">
      <component glyphName="dotaccent" x="288" y="1476" flags="0x1004"/>
      <component glyphName="Z" x="0" y="0" flags="0x1204"/>
    </TTGlyph>
    <TTGlyph name="a" xMin="73" yMin="-12" xMax="582" yMax="1018">
      <contour>
        <pt x="277" y="-12" on="1"/>
        <pt x="174" y="-12" on="0"/>
        <pt x="73" y="120" on="0"/>
        <pt x="73" y="238" on="1"/>
        <pt x="73" y="323" on="0"/>
        <pt x="126" y="453" on="0"/>
        <pt x="203" y="525" on="0"/>
        <pt x="306" y="575" on="0"/>
        <pt x="388" y="593" on="0"/>
        <pt x="468" y="607" on="0"/>
        <pt x="476" y="610" on="1"/>
        <pt x="476" y="668" on="1"/>
        <pt x="476" y="717" on="0"/>
        <pt x="471" y="789" on="0"/>
        <pt x="454" y="861" on="0"/>
        <pt x="426" y="906" on="0"/>
        <pt x="377" y="934" on="0"/>
        <pt x="343" y="934" on="1"/>
        <pt x="304" y="934" on="0"/>
        <pt x="250" y="913" on="0"/>
        <pt x="213" y="864" on="0"/>
        <pt x="192" y="818" on="0"/>
        <pt x="178" y="776" on="1"/>
        <pt x="166" y="742" on="0"/>
        <pt x="148" y="748" on="1"/>
        <pt x="96" y="759" on="0"/>
        <pt x="92" y="775" on="1"/>
        <pt x="86" y="787" on="0"/>
        <pt x="97" y="820" on="1"/>
        <pt x="111" y="866" on="0"/>
        <pt x="146" y="933" on="0"/>
        <pt x="203" y="989" on="0"/>
        <pt x="288" y="1018" on="0"/>
        <pt x="345" y="1018" on="1"/>
        <pt x="469" y="1018" on="0"/>
        <pt x="582" y="841" on="0"/>
        <pt x="582" y="640" on="1"/>
        <pt x="582" y="47" on="1"/>
        <pt x="582" y="-3" on="0"/>
        <pt x="563" y="-3" on="1"/>
        <pt x="549" y="-3" on="1"/>
        <pt x="532" y="-3" on="0"/>
        <pt x="525" y="38" on="1"/>
        <pt x="524" y="47" on="0"/>
        <pt x="502" y="185" on="0"/>
        <pt x="501" y="206" on="1"/>
        <pt x="501" y="208" on="0"/>
        <pt x="500" y="210" on="1"/>
        <pt x="495" y="216" on="0"/>
        <pt x="493" y="206" on="1"/>
        <pt x="447" y="-12" on="0"/>
      </contour>
      <contour>
        <pt x="293" y="70" on="1"/>
        <pt x="384" y="70" on="0"/>
        <pt x="478" y="296" on="0"/>
        <pt x="478" y="473" on="1"/>
        <pt x="478" y="536" on="0"/>
        <pt x="472" y="536" on="1"/>
        <pt x="471" y="536" on="0"/>
        <pt x="414" y="528" on="0"/>
        <pt x="412" y="527" on="1"/>
        <pt x="340" y="513" on="0"/>
        <pt x="242" y="459" on="0"/>
        <pt x="189" y="383" on="0"/>
        <pt x="167" y="300" on="0"/>
        <pt x="167" y="248" on="1"/>
        <pt x="167" y="70" on="0"/>
      </contour>
    </TTGlyph>
    <TTGlyph name="aacute" xMin="73" yMin="-12" xMax="582" yMax="1577">
      <component glyphName="acute" x="-58" y="-26" flags="0x1004"/>
      <component glyphName="a" x="0" y="0" flags="0x1204"/>
    </TTGlyph>
    <TTGlyph name="abreve" xMin="73" yMin="-12" xMax="582" yMax="1315">
      <component glyphName="breve" x="-275" y="-152" flags="0x1004"/>
      <component glyphName="a" x="0" y="0" flags="0x1204"/>
    </TTGlyph>
    <TTGlyph name="acircumflex" xMin="73" yMin="-12" xMax="582" yMax="1408">
      <component glyphName="circumflex" x="179" y="-94" flags="0x1004"/>
      <component glyphName="a" x="0" y="0" flags="0x1204"/>
    </TTGlyph>
    <TTGlyph name="acute" xMin="361" yMin="1167" xMax="482" yMax="1603">
      <contour>
        <pt x="376" y="1167" on="1"/>
        <pt x="361" y="1167" on="0"/>
        <pt x="361" y="1199" on="1"/>
        <pt x="361" y="1220" on="0"/>
        <pt x="362" y="1234" on="1"/>
        <pt x="383" y="1548" on="1"/>
        <pt x="385" y="1580" on="0"/>
        <pt x="397" y="1603" on="0"/>
        <pt x="409" y="1603" on="1"/>
        <pt x="472" y="1603" on="1"/>
        <pt x="482" y="1603" on="0"/>
        <pt x="482" y="1575" on="1"/>
        <pt x="482" y="1562" on="0"/>
        <pt x="478" y="1538" on="1"/>
        <pt x="416" y="1206" on="1"/>
        <pt x="409" y="1167" on="0"/>
        <pt x="396" y="1167" on="1"/>
      </contour>
    </TTGlyph>
    <TTGlyph name="adieresis" xMin="73" yMin="-12" xMax="582" yMax="1281">
      <component glyphName="dieresis" x="108" y="1141" flags="0x1004"/>
      <component glyphName="a" x="0" y="0" flags="0x1204"/>
    </TTGlyph>
    <TTGlyph name="ae" xMin="73" yMin="-12" xMax="940" yMax="1019">
      <contour>
        <pt x="276" y="-12" on="1"/>
        <pt x="173" y="-12" on="0"/>
        <pt x="73" y="120" on="0"/>
        <pt x="73" y="238" on="1"/>
        <pt x="73" y="323" on="0"/>
        <pt x="124" y="453" on="0"/>
        <pt x="197" y="525" on="0"/>
        <pt x="295" y="575" on="0"/>
        <pt x="373" y="593" on="0"/>
        <pt x="451" y="607" on="0"/>
        <pt x="459" y="610" on="1"/>
        <pt x="459" y="654" on="1"/>
        <pt x="459" y="717" on="0"/>
        <pt x="450" y="805" on="0"/>
        <pt x="424" y="890" on="0"/>
        <pt x="369" y="934" on="0"/>
        <pt x="327" y="934" on="1"/>
        <pt x="289" y="934" on="0"/>
        <pt x="233" y="902" on="0"/>
        <pt x="200" y="846" on="0"/>
        <pt x="185" y="804" on="0"/>
        <pt x="178" y="776" on="1"/>
        <pt x="169" y="742" on="0"/>
        <pt x="148" y="748" on="1"/>
        <pt x="134" y="751" on="0"/>
        <pt x="96" y="766" on="0"/>
        <pt x="94" y="772" on="1"/>
        <pt x="89" y="784" on="0"/>
        <pt x="97" y="820" on="1"/>
        <pt x="105" y="852" on="0"/>
        <pt x="135" y="914" on="0"/>
        <pt x="187" y="978" on="0"/>
        <pt x="272" y="1018" on="0"/>
        <pt x="325" y="1018" on="1"/>
        <pt x="490" y="1018" on="0"/>
        <pt x="525" y="828" on="1"/>
        <pt x="546" y="924" on="0"/>
        <pt x="652" y="1019" on="0"/>
        <pt x="714" y="1019" on="1"/>
        <pt x="827" y="1019" on="0"/>
        <pt x="932" y="810" on="0"/>
        <pt x="940" y="590" on="1"/>
        <pt x="940" y="581" on="0"/>
        <pt x="936" y="538" on="0"/>
        <pt x="916" y="481" on="0"/>
        <pt x="901" y="481" on="1"/>
        <pt x="572" y="481" on="1"/>
        <pt x="566" y="481" on="0"/>
        <pt x="566" y="466" on="1"/>
        <pt x="568" y="73" on="0"/>
        <pt x="729" y="73" on="1"/>
        <pt x="753" y="73" on="0"/>
        <pt x="791" y="88" on="0"/>
        <pt x="816" y="108" on="0"/>
        <pt x="835" y="144" on="0"/>
        <pt x="846" y="173" on="0"/>
        <pt x="854" y="221" on="0"/>
        <pt x="857" y="246" on="0"/>
        <pt x="859" y="270" on="1"/>
        <pt x="860" y="280" on="0"/>
        <pt x="860" y="285" on="1"/>
        <pt x="862" y="304" on="0"/>
        <pt x="868" y="304" on="1"/>
        <pt x="916" y="304" on="1"/>
        <pt x="929" y="304" on="0"/>
        <pt x="929" y="291" on="1"/>
        <pt x="930" y="289" on="0"/>
        <pt x="930" y="252" on="1"/>
        <pt x="930" y="179" on="0"/>
        <pt x="893" y="65" on="0"/>
        <pt x="796" y="-12" on="0"/>
        <pt x="723" y="-12" on="1"/>
        <pt x="647" y="-12" on="0"/>
        <pt x="535" y="112" on="0"/>
        <pt x="508" y="228" on="1"/>
        <pt x="454" y="-12" on="0"/>
      </contour>
      <contour>
        <pt x="291" y="69" on="1"/>
        <pt x="337" y="69" on="0"/>
        <pt x="405" y="132" on="0"/>
        <pt x="443" y="246" on="0"/>
        <pt x="461" y="386" on="0"/>
        <pt x="461" y="473" on="1"/>
        <pt x="461" y="536" on="0"/>
        <pt x="454" y="536" on="1"/>
        <pt x="453" y="536" on="0"/>
        <pt x="397" y="528" on="0"/>
        <pt x="395" y="527" on="1"/>
        <pt x="166" y="473" on="0"/>
        <pt x="166" y="244" on="1"/>
        <pt x="167" y="158" on="0"/>
        <pt x="225" y="69" on="0"/>
      </contour>
      <contour>
        <pt x="570" y="549" on="1"/>
        <pt x="570" y="549" on="0"/>
        <pt x="853" y="549" on="1"/>
        <pt x="854" y="549" on="0"/>
        <pt x="854" y="558" on="1"/>
        <pt x="847" y="751" on="0"/>
        <pt x="788" y="934" on="0"/>
        <pt x="712" y="934" on="1"/>
        <pt x="652" y="934" on="0"/>
        <pt x="574" y="776" on="0"/>
        <pt x="567" y="608" on="1"/>
        <pt x="567" y="549" on="0"/>
      </contour>
    </TTGlyph>
    <TTGlyph name="agrave" xMin="73" yMin="-12" xMax="582" yMax="1577">
      <component glyphName="grave" x="-130" y="-26" flags="0x1004"/>
      <component glyphName="a" x="0" y="0" flags="0x1204"/>
    </TTGlyph>
    <TTGlyph name="amacron" xMin="73" yMin="-12" xMax="582" yMax="1218">
      <component glyphName="macron" x="-6" y="924" flags="0x1004"/>
      <component glyphName="a" x="0" y="0" flags="0x1204"/>
    </TTGlyph>
    <TTGlyph name="ampersand" xMin="126" yMin="-15" xMax="1040" yMax="1459">
      <contour>
        <pt x="465" y="-14" on="1"/>
        <pt x="392" y="-14" on="0"/>
        <pt x="276" y="29" on="0"/>
        <pt x="180" y="125" on="0"/>
        <pt x="128" y="298" on="0"/>
        <pt x="128" y="418" on="1"/>
        <pt x="128" y="547" on="0"/>
        <pt x="245" y="735" on="0"/>
        <pt x="315" y="756" on="1"/>
        <pt x="289" y="763" on="0"/>
        <pt x="239" y="792" on="0"/>
        <pt x="188" y="846" on="0"/>
        <pt x="150" y="917" on="0"/>
        <pt x="126" y="1023" on="0"/>
        <pt x="126" y="1086" on="1"/>
        <pt x="126" y="1278" on="0"/>
        <pt x="280" y="1459" on="0"/>
        <pt x="402" y="1459" on="1"/>
        <pt x="484" y="1459" on="0"/>
        <pt x="536" y="1437" on="1"/>
        <pt x="565" y="1424" on="0"/>
        <pt x="562" y="1400" on="1"/>
        <pt x="560" y="1361" on="1"/>
        <pt x="560" y="1346" on="0"/>
        <pt x="544" y="1335" on="0"/>
        <pt x="533" y="1341" on="1"/>
        <pt x="522" y="1345" on="1"/>
        <pt x="511" y="1349" on="0"/>
        <pt x="491" y="1355" on="0"/>
        <pt x="452" y="1361" on="0"/>
        <pt x="431" y="1361" on="1"/>
        <pt x="394" y="1361" on="0"/>
        <pt x="331" y="1336" on="0"/>
        <pt x="274" y="1278" on="0"/>
        <pt x="241" y="1166" on="0"/>
        <pt x="241" y="1088" on="1"/>
        <pt x="241" y="964" on="0"/>
        <pt x="340" y="814" on="0"/>
        <pt x="429" y="814" on="1"/>
        <pt x="682" y="814" on="1"/>
        <pt x="697" y="814" on="0"/>
        <pt x="697" y="844" on="1"/>
        <pt x="699" y="1354" on="1"/>
        <pt x="700" y="1408" on="0"/>
        <pt x="730" y="1408" on="1"/>
        <pt x="784" y="1408" on="1"/>
        <pt x="811" y="1408" on="0"/>
        <pt x="811" y="1354" on="1"/>
        <pt x="811" y="844" on="1"/>
        <pt x="811" y="814" on="0"/>
        <pt x="825" y="814" on="1"/>
        <pt x="974" y="814" on="1"/>
        <pt x="989" y="814" on="0"/>
        <pt x="1005" y="798" on="0"/>
        <pt x="1005" y="775" on="1"/>
        <pt x="1005" y="754" on="1"/>
        <pt x="1005" y="711" on="0"/>
        <pt x="974" y="711" on="1"/>
        <pt x="825" y="711" on="1"/>
        <pt x="811" y="711" on="0"/>
        <pt x="811" y="682" on="1"/>
        <pt x="811" y="329" on="1"/>
        <pt x="811" y="84" on="0"/>
        <pt x="922" y="84" on="1"/>
        <pt x="963" y="84" on="0"/>
        <pt x="1004" y="114" on="1"/>
        <pt x="1014" y="122" on="0"/>
        <pt x="1032" y="112" on="0"/>
        <pt x="1036" y="95" on="1"/>
        <pt x="1039" y="68" on="1"/>
        <pt x="1040" y="65" on="0"/>
        <pt x="1040" y="58" on="1"/>
        <pt x="1040" y="36" on="0"/>
        <pt x="1021" y="23" on="1"/>
        <pt x="965" y="-15" on="0"/>
        <pt x="904" y="-15" on="1"/>
        <pt x="842" y="-15" on="0"/>
        <pt x="748" y="59" on="0"/>
        <pt x="735" y="129" on="1"/>
        <pt x="726" y="113" on="0"/>
        <pt x="704" y="82" on="0"/>
        <pt x="658" y="39" on="0"/>
        <pt x="603" y="8" on="0"/>
        <pt x="516" y="-14" on="0"/>
      </contour>
      <contour>
        <pt x="474" y="80" on="1"/>
        <pt x="508" y="80" on="0"/>
        <pt x="537" y="86" on="1"/>
        <pt x="673" y="111" on="0"/>
        <pt x="701" y="251" on="1"/>
        <pt x="699" y="287" on="0"/>
        <pt x="697" y="683" on="1"/>
        <pt x="697" y="711" on="0"/>
        <pt x="682" y="711" on="1"/>
        <pt x="603" y="711" on="1"/>
        <pt x="439" y="711" on="1"/>
        <pt x="360" y="710" on="0"/>
        <pt x="243" y="558" on="0"/>
        <pt x="243" y="407" on="1"/>
        <pt x="243" y="341" on="0"/>
        <pt x="266" y="235" on="0"/>
        <pt x="305" y="166" on="0"/>
        <pt x="351" y="116" on="0"/>
        <pt x="406" y="91" on="0"/>
        <pt x="452" y="80" on="0"/>
      </contour>
    </TTGlyph>
    <TTGlyph name="aogonek" xMin="73" yMin="-329" xMax="602" yMax="1018">
      <component glyphName="ogonek" x="107" y="0" flags="0x1004"/>
      <component glyphName="a" x="0" y="0" flags="0x1004"/>
    </TTGlyph>
    <TTGlyph name="approxequal" xMin="180" yMin="276" xMax="1164" yMax="882">
      <contour>
        <pt x="926" y="276" on="1"/>
        <pt x="865" y="276" on="0"/>
        <pt x="705" y="328" on="0"/>
        <pt x="578" y="392" on="0"/>
        <pt x="436" y="444" on="0"/>
        <pt x="390" y="444" on="1"/>
        <pt x="351" y="444" on="0"/>
        <pt x="287" y="386" on="0"/>
        <pt x="250" y="330" on="1"/>
        <pt x="235" y="305" on="0"/>
        <pt x="215" y="305" on="1"/>
        <pt x="200" y="305" on="0"/>
        <pt x="180" y="330" on="0"/>
        <pt x="180" y="351" on="1"/>
        <pt x="180" y="367" on="0"/>
        <pt x="186" y="378" on="1"/>
        <pt x="231" y="465" on="0"/>
        <pt x="319" y="542" on="0"/>
        <pt x="394" y="542" on="1"/>
        <pt x="451" y="542" on="0"/>
        <pt x="600" y="490" on="0"/>
        <pt x="721" y="427" on="0"/>
        <pt x="862" y="375" on="0"/>
        <pt x="911" y="375" on="1"/>
        <pt x="975" y="375" on="0"/>
        <pt x="1054" y="429" on="0"/>
        <pt x="1084" y="505" on="1"/>
        <pt x="1084" y="506" on="0"/>
        <pt x="1086" y="510" on="0"/>
        <pt x="1087" y="513" on="0"/>
        <pt x="1090" y="518" on="0"/>
        <pt x="1093" y="521" on="0"/>
        <pt x="1097" y="524" on="0"/>
        <pt x="1102" y="526" on="0"/>
        <pt x="1108" y="528" on="0"/>
        <pt x="1112" y="528" on="1"/>
        <pt x="1133" y="528" on="0"/>
        <pt x="1164" y="501" on="0"/>
        <pt x="1164" y="485" on="1"/>
        <pt x="1164" y="474" on="0"/>
        <pt x="1156" y="456" on="1"/>
        <pt x="1140" y="420" on="0"/>
        <pt x="1109" y="369" on="0"/>
        <pt x="1055" y="308" on="0"/>
        <pt x="976" y="276" on="0"/>
      </contour>
      <contour>
        <pt x="926" y="616" on="1"/>
        <pt x="865" y="616" on="0"/>
        <pt x="705" y="668" on="0"/>
        <pt x="578" y="732" on="0"/>
        <pt x="436" y="784" on="0"/>
        <pt x="390" y="784" on="1"/>
        <pt x="351" y="784" on="0"/>
        <pt x="287" y="726" on="0"/>
        <pt x="250" y="670" on="1"/>
        <pt x="235" y="645" on="0"/>
        <pt x="215" y="645" on="1"/>
        <pt x="200" y="645" on="0"/>
        <pt x="180" y="670" on="0"/>
        <pt x="180" y="691" on="1"/>
        <pt x="180" y="707" on="0"/>
        <pt x="186" y="718" on="1"/>
        <pt x="231" y="805" on="0"/>
        <pt x="319" y="882" on="0"/>
        <pt x="394" y="882" on="1"/>
        <pt x="451" y="882" on="0"/>
        <pt x="600" y="830" on="0"/>
        <pt x="721" y="767" on="0"/>
        <pt x="862" y="715" on="0"/>
        <pt x="911" y="715" on="1"/>
        <pt x="975" y="715" on="0"/>
        <pt x="1054" y="769" on="0"/>
        <pt x="1084" y="845" on="1"/>
        <pt x="1084" y="846" on="0"/>
        <pt x="1086" y="850" on="0"/>
        <pt x="1087" y="853" on="0"/>
        <pt x="1090" y="858" on="0"/>
        <pt x="1093" y="861" on="0"/>
        <pt x="1097" y="864" on="0"/>
        <pt x="1102" y="866" on="0"/>
        <pt x="1108" y="868" on="0"/>
        <pt x="1112" y="868" on="1"/>
        <pt x="1133" y="868" on="0"/>
        <pt x="1164" y="841" on="0"/>
        <pt x="1164" y="825" on="1"/>
        <pt x="1164" y="814" on="0"/>
        <pt x="1156" y="796" on="1"/>
        <pt x="1140" y="760" on="0"/>
        <pt x="1109" y="709" on="0"/>
        <pt x="1055" y="648" on="0"/>
        <pt x="976" y="616" on="0"/>
      </contour>
    </TTGlyph>
    <TTGlyph name="aring" xMin="73" yMin="-12" xMax="582" yMax="1467">
      <component glyphName="ring" x="-72" y="650" flags="0x1004"/>
      <component glyphName="a" x="0" y="0" flags="0x1204"/>
    </TTGlyph>
    <TTGlyph name="asciicircum" xMin="99" yMin="247" xMax="932" yMax="1253">
      <contour>
        <pt x="127" y="247" on="1"/>
        <pt x="99" y="247" on="0"/>
        <pt x="99" y="276" on="1"/>
        <pt x="99" y="293" on="0"/>
        <pt x="107" y="314" on="1"/>
        <pt x="418" y="1186" on="1"/>
        <pt x="432" y="1222" on="0"/>
        <pt x="464" y="1253" on="0"/>
        <pt x="497" y="1253" on="1"/>
        <pt x="530" y="1253" on="1"/>
        <pt x="553" y="1253" on="0"/>
        <pt x="582" y="1235" on="0"/>
        <pt x="596" y="1211" on="0"/>
        <pt x="607" y="1185" on="1"/>
        <pt x="924" y="315" on="1"/>
        <pt x="932" y="291" on="0"/>
        <pt x="932" y="278" on="1"/>
        <pt x="932" y="247" on="0"/>
        <pt x="903" y="247" on="1"/>
        <pt x="870" y="247" on="1"/>
        <pt x="850" y="247" on="0"/>
        <pt x="826" y="275" on="0"/>
        <pt x="812" y="316" on="1"/>
        <pt x="534" y="1095" on="1"/>
        <pt x="527" y="1115" on="0"/>
        <pt x="520" y="1126" on="0"/>
        <pt x="506" y="1126" on="0"/>
        <pt x="499" y="1115" on="0"/>
        <pt x="492" y="1095" on="1"/>
        <pt x="222" y="316" on="1"/>
        <pt x="208" y="273" on="0"/>
        <pt x="185" y="247" on="0"/>
        <pt x="159" y="247" on="1"/>
      </contour>
    </TTGlyph>
    <TTGlyph name="asciitilde" xMin="180" yMin="276" xMax="1164" yMax="542">
      <contour>
        <pt x="418" y="276" on="1"/>
        <pt x="368" y="276" on="0"/>
        <pt x="289" y="308" on="0"/>
        <pt x="235" y="369" on="0"/>
        <pt x="204" y="420" on="0"/>
        <pt x="188" y="456" on="1"/>
        <pt x="180" y="474" on="0"/>
        <pt x="180" y="485" on="1"/>
        <pt x="180" y="501" on="0"/>
        <pt x="211" y="528" on="0"/>
        <pt x="232" y="528" on="1"/>
        <pt x="236" y="528" on="0"/>
        <pt x="242" y="526" on="0"/>
        <pt x="247" y="524" on="0"/>
        <pt x="251" y="521" on="0"/>
        <pt x="254" y="518" on="0"/>
        <pt x="257" y="513" on="0"/>
        <pt x="258" y="510" on="0"/>
        <pt x="260" y="506" on="0"/>
        <pt x="260" y="505" on="1"/>
        <pt x="290" y="429" on="0"/>
        <pt x="369" y="375" on="0"/>
        <pt x="433" y="375" on="1"/>
        <pt x="438" y="375" on="1"/>
        <pt x="485" y="375" on="0"/>
        <pt x="624" y="427" on="0"/>
        <pt x="745" y="490" on="0"/>
        <pt x="894" y="542" on="0"/>
        <pt x="950" y="542" on="1"/>
        <pt x="1025" y="542" on="0"/>
        <pt x="1113" y="465" on="0"/>
        <pt x="1158" y="378" on="1"/>
        <pt x="1164" y="367" on="0"/>
        <pt x="1164" y="351" on="1"/>
        <pt x="1164" y="331" on="0"/>
        <pt x="1144" y="306" on="0"/>
        <pt x="1130" y="305" on="1"/>
        <pt x="1109" y="304" on="0"/>
        <pt x="1094" y="330" on="1"/>
        <pt x="1057" y="386" on="0"/>
        <pt x="993" y="444" on="0"/>
        <pt x="954" y="444" on="1"/>
        <pt x="908" y="444" on="0"/>
        <pt x="766" y="392" on="0"/>
        <pt x="639" y="328" on="0"/>
        <pt x="479" y="276" on="0"/>
      </contour>
    </TTGlyph>
    <TTGlyph name="asterisk" xMin="99" yMin="422" xMax="604" yMax="1046">
      <contour>
        <pt x="247" y="422" on="1"/>
        <pt x="225" y="422" on="0"/>
        <pt x="184" y="443" on="0"/>
        <pt x="184" y="460" on="1"/>
        <pt x="184" y="478" on="0"/>
        <pt x="222" y="553" on="0"/>
        <pt x="262" y="614" on="0"/>
        <pt x="318" y="694" on="0"/>
        <pt x="321" y="698" on="1"/>
        <pt x="135" y="753" on="1"/>
        <pt x="119" y="758" on="0"/>
        <pt x="99" y="791" on="0"/>
        <pt x="99" y="813" on="1"/>
        <pt x="99" y="839" on="0"/>
        <pt x="122" y="878" on="0"/>
        <pt x="141" y="878" on="1"/>
        <pt x="154" y="878" on="0"/>
        <pt x="234" y="822" on="0"/>
        <pt x="326" y="750" on="0"/>
        <pt x="336" y="743" on="1"/>
        <pt x="333" y="768" on="0"/>
        <pt x="317" y="877" on="0"/>
        <pt x="309" y="958" on="0"/>
        <pt x="309" y="997" on="1"/>
        <pt x="309" y="1021" on="0"/>
        <pt x="335" y="1046" on="0"/>
        <pt x="355" y="1046" on="1"/>
        <pt x="400" y="1046" on="0"/>
        <pt x="400" y="1001" on="1"/>
        <pt x="400" y="999" on="0"/>
        <pt x="379" y="743" on="1"/>
        <pt x="537" y="843" on="1"/>
        <pt x="547" y="848" on="0"/>
        <pt x="555" y="848" on="1"/>
        <pt x="575" y="848" on="0"/>
        <pt x="604" y="812" on="0"/>
        <pt x="604" y="790" on="1"/>
        <pt x="604" y="753" on="0"/>
        <pt x="564" y="743" on="1"/>
        <pt x="388" y="698" on="1"/>
        <pt x="549" y="517" on="1"/>
        <pt x="558" y="506" on="0"/>
        <pt x="558" y="494" on="1"/>
        <pt x="558" y="476" on="0"/>
        <pt x="525" y="447" on="0"/>
        <pt x="506" y="447" on="1"/>
        <pt x="485" y="447" on="0"/>
        <pt x="472" y="467" on="1"/>
        <pt x="353" y="667" on="1"/>
        <pt x="269" y="431" on="1"/>
        <pt x="266" y="422" on="0"/>
      </contour>
    </TTGlyph>
    <TTGlyph name="at" xMin="71" yMin="-121" xMax="1176" yMax="1484">
      <contour>
        <pt x="648" y="-121" on="1"/>
        <pt x="519" y="-121" on="0"/>
        <pt x="318" y="-35" on="0"/>
        <pt x="189" y="110" on="0"/>
        <pt x="105" y="319" on="0"/>
        <pt x="71" y="547" on="0"/>
        <pt x="71" y="682" on="1"/>
        <pt x="71" y="789" on="0"/>
        <pt x="94" y="980" on="0"/>
        <pt x="143" y="1164" on="0"/>
        <pt x="230" y="1311" on="0"/>
        <pt x="350" y="1423" on="0"/>
        <pt x="522" y="1484" on="0"/>
        <pt x="627" y="1484" on="1"/>
        <pt x="727" y="1484" on="0"/>
        <pt x="887" y="1440" on="0"/>
        <pt x="1001" y="1364" on="0"/>
        <pt x="1084" y="1246" on="0"/>
        <pt x="1135" y="1118" on="0"/>
        <pt x="1165" y="949" on="0"/>
        <pt x="1176" y="791" on="0"/>
        <pt x="1176" y="692" on="1"/>
        <pt x="1176" y="238" on="0"/>
        <pt x="993" y="238" on="1"/>
        <pt x="923" y="238" on="0"/>
        <pt x="867" y="338" on="0"/>
        <pt x="859" y="444" on="1"/>
        <pt x="855" y="481" on="0"/>
        <pt x="849" y="481" on="1"/>
        <pt x="846" y="481" on="0"/>
        <pt x="838" y="449" on="1"/>
        <pt x="776" y="230" on="0"/>
        <pt x="598" y="230" on="1"/>
        <pt x="481" y="230" on="0"/>
        <pt x="333" y="443" on="0"/>
        <pt x="333" y="660" on="1"/>
        <pt x="333" y="874" on="0"/>
        <pt x="484" y="1087" on="0"/>
        <pt x="601" y="1087" on="1"/>
        <pt x="684" y="1087" on="0"/>
        <pt x="805" y="970" on="0"/>
        <pt x="828" y="864" on="1"/>
        <pt x="829" y="858" on="0"/>
        <pt x="835" y="844" on="0"/>
        <pt x="837" y="844" on="1"/>
        <pt x="840" y="844" on="0"/>
        <pt x="842" y="857" on="1"/>
        <pt x="842" y="857" on="0"/>
        <pt x="854" y="994" on="1"/>
        <pt x="858" y="1020" on="0"/>
        <pt x="871" y="1041" on="0"/>
        <pt x="885" y="1041" on="1"/>
        <pt x="891" y="1041" on="1"/>
        <pt x="913" y="1041" on="0"/>
        <pt x="913" y="991" on="1"/>
        <pt x="913" y="504" on="1"/>
        <pt x="913" y="423" on="0"/>
        <pt x="934" y="335" on="0"/>
        <pt x="966" y="310" on="0"/>
        <pt x="994" y="310" on="1"/>
        <pt x="1015" y="310" on="0"/>
        <pt x="1046" y="344" on="0"/>
        <pt x="1071" y="427" on="0"/>
        <pt x="1084" y="580" on="0"/>
        <pt x="1084" y="692" on="1"/>
        <pt x="1084" y="783" on="0"/>
        <pt x="1074" y="931" on="0"/>
        <pt x="1048" y="1081" on="0"/>
        <pt x="1005" y="1194" on="0"/>
        <pt x="935" y="1295" on="0"/>
        <pt x="842" y="1360" on="0"/>
        <pt x="711" y="1397" on="0"/>
        <pt x="630" y="1397" on="1"/>
        <pt x="554" y="1397" on="0"/>
        <pt x="426" y="1354" on="0"/>
        <pt x="331" y="1278" on="0"/>
        <pt x="257" y="1170" on="0"/>
        <pt x="209" y="1047" on="0"/>
        <pt x="178" y="901" on="0"/>
        <pt x="165" y="756" on="0"/>
        <pt x="165" y="678" on="1"/>
        <pt x="165" y="-43" on="0"/>
        <pt x="656" y="-43" on="1"/>
        <pt x="703" y="-43" on="0"/>
        <pt x="885" y="25" on="0"/>
        <pt x="915" y="25" on="1"/>
        <pt x="920" y="25" on="0"/>
        <pt x="940" y="-27" on="0"/>
        <pt x="940" y="-39" on="1"/>
        <pt x="940" y="-42" on="0"/>
        <pt x="938" y="-44" on="1"/>
        <pt x="882" y="-75" on="0"/>
        <pt x="724" y="-121" on="0"/>
      </contour>
      <contour>
        <pt x="611" y="309" on="1"/>
        <pt x="696" y="309" on="0"/>
        <pt x="806" y="489" on="0"/>
        <pt x="806" y="652" on="1"/>
        <pt x="806" y="817" on="0"/>
        <pt x="699" y="1001" on="0"/>
        <pt x="614" y="1001" on="1"/>
        <pt x="527" y="1001" on="0"/>
        <pt x="427" y="834" on="0"/>
        <pt x="427" y="657" on="1"/>
        <pt x="427" y="309" on="0"/>
      </contour>
    </TTGlyph>
    <TTGlyph name="atilde" xMin="73" yMin="-12" xMax="582" yMax="1288">
      <component glyphName="tilde" x="90" y="316" flags="0x1004"/>
      <component glyphName="a" x="0" y="0" flags="0x1204"/>
    </TTGlyph>
    <TTGlyph name="b" xMin="98" yMin="-12" xMax="635" yMax="1435">
      <contour>
        <pt x="389" y="-12" on="1"/>
        <pt x="324" y="-12" on="0"/>
        <pt x="214" y="94" on="0"/>
        <pt x="182" y="209" on="1"/>
        <pt x="180" y="214" on="0"/>
        <pt x="179" y="214" on="1"/>
        <pt x="175" y="214" on="0"/>
        <pt x="166" y="107" on="0"/>
        <pt x="145" y="0" on="0"/>
        <pt x="128" y="0" on="1"/>
        <pt x="117" y="0" on="1"/>
        <pt x="106" y="0" on="0"/>
        <pt x="98" y="24" on="0"/>
        <pt x="98" y="56" on="1"/>
        <pt x="98" y="1366" on="1"/>
        <pt x="98" y="1435" on="0"/>
        <pt x="121" y="1435" on="1"/>
        <pt x="181" y="1435" on="1"/>
        <pt x="204" y="1435" on="0"/>
        <pt x="204" y="1366" on="1"/>
        <pt x="204" y="845" on="1"/>
        <pt x="204" y="834" on="0"/>
        <pt x="210" y="834" on="0"/>
        <pt x="210" y="839" on="1"/>
        <pt x="240" y="927" on="0"/>
        <pt x="343" y="1019" on="0"/>
        <pt x="401" y="1019" on="1"/>
        <pt x="450" y="1019" on="0"/>
        <pt x="529" y="969" on="0"/>
        <pt x="597" y="858" on="0"/>
        <pt x="635" y="649" on="0"/>
        <pt x="635" y="503" on="1"/>
        <pt x="635" y="363" on="0"/>
        <pt x="591" y="154" on="0"/>
        <pt x="518" y="41" on="0"/>
        <pt x="435" y="-12" on="0"/>
      </contour>
      <contour>
        <pt x="370" y="73" on="1"/>
        <pt x="443" y="73" on="0"/>
        <pt x="530" y="281" on="0"/>
        <pt x="530" y="506" on="1"/>
        <pt x="530" y="728" on="0"/>
        <pt x="447" y="934" on="0"/>
        <pt x="377" y="934" on="1"/>
        <pt x="308" y="934" on="0"/>
        <pt x="204" y="695" on="0"/>
        <pt x="204" y="506" on="1"/>
        <pt x="204" y="323" on="0"/>
        <pt x="300" y="73" on="0"/>
      </contour>
    </TTGlyph>
    <TTGlyph name="backslash" xMin="103" yMin="-205" xMax="444" yMax="1647">
      <contour>
        <pt x="354" y="-205" on="1"/>
        <pt x="342" y="-205" on="0"/>
        <pt x="337" y="-170" on="1"/>
        <pt x="104" y="1612" on="1"/>
        <pt x="104" y="1614" on="0"/>
        <pt x="103" y="1622" on="0"/>
        <pt x="103" y="1623" on="1"/>
        <pt x="103" y="1647" on="0"/>
        <pt x="111" y="1647" on="1"/>
        <pt x="193" y="1647" on="1"/>
        <pt x="204" y="1647" on="0"/>
        <pt x="209" y="1612" on="1"/>
        <pt x="443" y="-170" on="1"/>
        <pt x="443" y="-172" on="0"/>
        <pt x="444" y="-178" on="0"/>
        <pt x="444" y="-179" on="1"/>
        <pt x="444" y="-205" on="0"/>
        <pt x="436" y="-205" on="1"/>
      </contour>
    </TTGlyph>
    <TTGlyph name="bar" xMin="107" yMin="-150" xMax="186" yMax="1555">
      <contour>
        <pt x="135" y="-150" on="1"/>
        <pt x="107" y="-150" on="0"/>
        <pt x="107" y="-89" on="1"/>
        <pt x="107" y="1494" on="1"/>
        <pt x="107" y="1555" on="0"/>
        <pt x="135" y="1555" on="1"/>
        <pt x="159" y="1555" on="1"/>
        <pt x="186" y="1555" on="0"/>
        <pt x="186" y="1494" on="1"/>
        <pt x="186" y="-89" on="1"/>
        <pt x="186" y="-150" on="0"/>
        <pt x="159" y="-150" on="1"/>
      </contour>
    </TTGlyph>
    <TTGlyph name="braceleft" xMin="100" yMin="-77" xMax="418" yMax="1543">
      <contour>
        <pt x="392" y="1543" on="1"/>
        <pt x="418" y="1543" on="0"/>
        <pt x="418" y="1504" on="1"/>
        <pt x="418" y="1482" on="1"/>
        <pt x="418" y="1461" on="0"/>
        <pt x="397" y="1446" on="0"/>
        <pt x="367" y="1446" on="1"/>
        <pt x="328" y="1446" on="0"/>
        <pt x="314" y="1365" on="0"/>
        <pt x="314" y="1154" on="1"/>
        <pt x="314" y="939" on="1"/>
        <pt x="314" y="834" on="0"/>
        <pt x="288" y="748" on="0"/>
        <pt x="247" y="739" on="1"/>
        <pt x="245" y="738" on="0"/>
        <pt x="245" y="732" on="0"/>
        <pt x="247" y="731" on="1"/>
        <pt x="287" y="721" on="0"/>
        <pt x="313" y="637" on="0"/>
        <pt x="313" y="534" on="1"/>
        <pt x="313" y="319" on="1"/>
        <pt x="313" y="105" on="0"/>
        <pt x="328" y="21" on="0"/>
        <pt x="367" y="21" on="1"/>
        <pt x="397" y="21" on="0"/>
        <pt x="418" y="5" on="0"/>
        <pt x="418" y="-16" on="1"/>
        <pt x="418" y="-37" on="1"/>
        <pt x="418" y="-77" on="0"/>
        <pt x="392" y="-77" on="1"/>
        <pt x="337" y="-77" on="1"/>
        <pt x="298" y="-77" on="0"/>
        <pt x="255" y="-56" on="0"/>
        <pt x="223" y="22" on="0"/>
        <pt x="211" y="166" on="0"/>
        <pt x="211" y="292" on="1"/>
        <pt x="211" y="491" on="1"/>
        <pt x="210" y="570" on="0"/>
        <pt x="202" y="641" on="0"/>
        <pt x="181" y="668" on="0"/>
        <pt x="158" y="669" on="1"/>
        <pt x="124" y="669" on="0"/>
        <pt x="100" y="687" on="0"/>
        <pt x="100" y="724" on="1"/>
        <pt x="100" y="744" on="1"/>
        <pt x="100" y="777" on="0"/>
        <pt x="125" y="793" on="0"/>
        <pt x="191" y="793" on="0"/>
        <pt x="210" y="860" on="0"/>
        <pt x="211" y="974" on="1"/>
        <pt x="211" y="1180" on="1"/>
        <pt x="211" y="1345" on="0"/>
        <pt x="237" y="1500" on="0"/>
        <pt x="285" y="1543" on="0"/>
        <pt x="337" y="1543" on="1"/>
      </contour>
    </TTGlyph>
    <TTGlyph name="braceright" xMin="100" yMin="-77" xMax="418" yMax="1543">
      <contour>
        <pt x="127" y="-77" on="1"/>
        <pt x="100" y="-77" on="0"/>
        <pt x="100" y="-37" on="1"/>
        <pt x="100" y="-16" on="1"/>
        <pt x="100" y="5" on="0"/>
        <pt x="122" y="21" on="0"/>
        <pt x="152" y="21" on="1"/>
        <pt x="190" y="21" on="0"/>
        <pt x="205" y="103" on="0"/>
        <pt x="205" y="312" on="1"/>
        <pt x="205" y="528" on="1"/>
        <pt x="205" y="632" on="0"/>
        <pt x="231" y="719" on="0"/>
        <pt x="271" y="728" on="1"/>
        <pt x="273" y="728" on="0"/>
        <pt x="274" y="735" on="0"/>
        <pt x="271" y="735" on="1"/>
        <pt x="231" y="745" on="0"/>
        <pt x="206" y="830" on="0"/>
        <pt x="206" y="932" on="1"/>
        <pt x="206" y="1147" on="1"/>
        <pt x="206" y="1360" on="0"/>
        <pt x="191" y="1446" on="0"/>
        <pt x="152" y="1446" on="1"/>
        <pt x="122" y="1446" on="0"/>
        <pt x="100" y="1461" on="0"/>
        <pt x="100" y="1482" on="1"/>
        <pt x="100" y="1504" on="1"/>
        <pt x="100" y="1543" on="0"/>
        <pt x="127" y="1543" on="1"/>
        <pt x="182" y="1543" on="1"/>
        <pt x="221" y="1543" on="0"/>
        <pt x="264" y="1522" on="0"/>
        <pt x="296" y="1444" on="0"/>
        <pt x="308" y="1300" on="0"/>
        <pt x="308" y="1174" on="1"/>
        <pt x="308" y="975" on="1"/>
        <pt x="308" y="862" on="0"/>
        <pt x="327" y="798" on="0"/>
        <pt x="360" y="798" on="1"/>
        <pt x="394" y="798" on="0"/>
        <pt x="418" y="780" on="0"/>
        <pt x="418" y="743" on="1"/>
        <pt x="418" y="722" on="1"/>
        <pt x="418" y="699" on="0"/>
        <pt x="404" y="678" on="0"/>
        <pt x="384" y="674" on="0"/>
        <pt x="360" y="673" on="1"/>
        <pt x="327" y="673" on="0"/>
        <pt x="309" y="605" on="0"/>
        <pt x="308" y="492" on="1"/>
        <pt x="308" y="490" on="0"/>
        <pt x="307" y="287" on="0"/>
        <pt x="307" y="286" on="1"/>
        <pt x="307" y="160" on="0"/>
        <pt x="295" y="18" on="0"/>
        <pt x="263" y="-57" on="0"/>
        <pt x="222" y="-77" on="0"/>
        <pt x="182" y="-77" on="1"/>
      </contour>
    </TTGlyph>
    <TTGlyph name="bracketleft" xMin="107" yMin="-78" xMax="388" yMax="1501">
      <contour>
        <pt x="134" y="-78" on="1"/>
        <pt x="107" y="-78" on="0"/>
        <pt x="107" y="-11" on="1"/>
        <pt x="107" y="1430" on="1"/>
        <pt x="107" y="1462" on="0"/>
        <pt x="122" y="1501" on="0"/>
        <pt x="134" y="1501" on="1"/>
        <pt x="365" y="1501" on="1"/>
        <pt x="388" y="1501" on="0"/>
        <pt x="388" y="1446" on="1"/>
        <pt x="388" y="1407" on="1"/>
        <pt x="388" y="1352" on="0"/>
        <pt x="365" y="1352" on="1"/>
        <pt x="232" y="1352" on="1"/>
        <pt x="222" y="1352" on="0"/>
        <pt x="222" y="1323" on="1"/>
        <pt x="222" y="91" on="1"/>
        <pt x="222" y="62" on="0"/>
        <pt x="232" y="62" on="1"/>
        <pt x="365" y="62" on="1"/>
        <pt x="388" y="62" on="0"/>
        <pt x="388" y="5" on="1"/>
        <pt x="388" y="-27" on="1"/>
        <pt x="388" y="-57" on="0"/>
        <pt x="377" y="-78" on="0"/>
        <pt x="365" y="-78" on="1"/>
      </contour>
    </TTGlyph>
    <TTGlyph name="bracketright" xMin="93" yMin="-84" xMax="373" yMax="1501">
      <contour>
        <pt x="117" y="-84" on="1"/>
        <pt x="93" y="-84" on="0"/>
        <pt x="93" y="-29" on="1"/>
        <pt x="93" y="50" on="1"/>
        <pt x="93" y="105" on="0"/>
        <pt x="116" y="105" on="1"/>
        <pt x="248" y="105" on="1"/>
        <pt x="258" y="105" on="0"/>
        <pt x="258" y="134" on="1"/>
        <pt x="258" y="1291" on="1"/>
        <pt x="258" y="1320" on="0"/>
        <pt x="248" y="1320" on="1"/>
        <pt x="117" y="1320" on="1"/>
        <pt x="93" y="1320" on="0"/>
        <pt x="93" y="1377" on="1"/>
        <pt x="93" y="1444" on="1"/>
        <pt x="93" y="1501" on="0"/>
        <pt x="117" y="1501" on="1"/>
        <pt x="347" y="1501" on="1"/>
        <pt x="358" y="1501" on="0"/>
        <pt x="373" y="1460" on="0"/>
        <pt x="373" y="1428" on="1"/>
        <pt x="373" y="-13" on="1"/>
        <pt x="373" y="-45" on="0"/>
        <pt x="358" y="-84" on="0"/>
        <pt x="347" y="-84" on="1"/>
      </contour>
    </TTGlyph>
    <TTGlyph name="breve" xMin="427" yMin="1293" xMax="778" yMax="1467">
      <contour>
        <pt x="601" y="1293" on="1"/>
        <pt x="530" y="1293" on="0"/>
        <pt x="427" y="1383" on="0"/>
        <pt x="427" y="1467" on="1"/>
        <pt x="495" y="1467" on="1"/>
        <pt x="495" y="1421" on="0"/>
        <pt x="558" y="1372" on="0"/>
        <pt x="602" y="1372" on="1"/>
        <pt x="647" y="1372" on="0"/>
        <pt x="711" y="1421" on="0"/>
        <pt x="711" y="1467" on="1"/>
        <pt x="778" y="1467" on="1"/>
        <pt x="778" y="1384" on="0"/>
        <pt x="673" y="1293" on="0"/>
      </contour>
    </TTGlyph>
    <TTGlyph name="brokenbar" xMin="172" yMin="-90" xMax="256" yMax="1525">
      <contour>
        <pt x="195" y="-90" on="1"/>
        <pt x="183" y="-90" on="0"/>
        <pt x="172" y="-69" on="0"/>
        <pt x="172" y="-39" on="1"/>
        <pt x="172" y="550" on="1"/>
        <pt x="172" y="580" on="0"/>
        <pt x="183" y="601" on="0"/>
        <pt x="195" y="601" on="1"/>
        <pt x="232" y="601" on="1"/>
        <pt x="244" y="601" on="0"/>
        <pt x="256" y="580" on="0"/>
        <pt x="256" y="550" on="1"/>
        <pt x="256" y="-39" on="1"/>
        <pt x="256" y="-69" on="0"/>
        <pt x="244" y="-90" on="0"/>
        <pt x="232" y="-90" on="1"/>
      </contour>
      <contour>
        <pt x="195" y="831" on="1"/>
        <pt x="183" y="831" on="0"/>
        <pt x="172" y="852" on="0"/>
        <pt x="172" y="882" on="1"/>
        <pt x="172" y="1474" on="1"/>
        <pt x="172" y="1504" on="0"/>
        <pt x="183" y="1525" on="0"/>
        <pt x="195" y="1525" on="1"/>
        <pt x="232" y="1525" on="1"/>
        <pt x="244" y="1525" on="0"/>
        <pt x="256" y="1504" on="0"/>
        <pt x="256" y="1474" on="1"/>
        <pt x="256" y="882" on="1"/>
        <pt x="256" y="852" on="0"/>
        <pt x="244" y="831" on="0"/>
        <pt x="232" y="831" on="1"/>
      </contour>
    </TTGlyph>
    <TTGlyph name="bullet" xMin="181" yMin="704" xMax="839" yMax="1367">
      <contour>
        <pt x="597" y="704" on="0"/>
        <pt x="425" y="704" on="0"/>
        <pt x="293" y="763" on="0"/>
        <pt x="218" y="861" on="0"/>
        <pt x="181" y="973" on="0"/>
        <pt x="181" y="1033" on="1"/>
        <pt x="181" y="1097" on="0"/>
        <pt x="218" y="1211" on="0"/>
        <pt x="293" y="1309" on="0"/>
        <pt x="425" y="1367" on="0"/>
        <pt x="597" y="1367" on="0"/>
        <pt x="728" y="1309" on="0"/>
        <pt x="802" y="1211" on="0"/>
        <pt x="839" y="1097" on="0"/>
        <pt x="839" y="1033" on="1"/>
        <pt x="839" y="973" on="0"/>
        <pt x="802" y="861" on="0"/>
        <pt x="728" y="763" on="0"/>
      </contour>
    </TTGlyph>
    <TTGlyph name="c" xMin="80" yMin="-12" xMax="475" yMax="1019">
      <contour>
        <pt x="350" y="-12" on="1"/>
        <pt x="321" y="-12" on="0"/>
        <pt x="272" y="-4" on="0"/>
        <pt x="215" y="23" on="0"/>
        <pt x="170" y="68" on="0"/>
        <pt x="126" y="147" on="0"/>
        <pt x="98" y="254" on="0"/>
        <pt x="80" y="410" on="0"/>
        <pt x="80" y="507" on="1"/>
        <pt x="80" y="640" on="0"/>
        <pt x="114" y="835" on="0"/>
        <pt x="163" y="941" on="0"/>
        <pt x="240" y="1002" on="0"/>
        <pt x="305" y="1019" on="0"/>
        <pt x="348" y="1019" on="1"/>
        <pt x="411" y="1019" on="0"/>
        <pt x="465" y="998" on="1"/>
        <pt x="466" y="998" on="0"/>
        <pt x="473" y="987" on="0"/>
        <pt x="473" y="986" on="1"/>
        <pt x="473" y="926" on="1"/>
        <pt x="473" y="925" on="0"/>
        <pt x="469" y="918" on="0"/>
        <pt x="467" y="916" on="1"/>
        <pt x="465" y="914" on="1"/>
        <pt x="406" y="932" on="0"/>
        <pt x="368" y="932" on="1"/>
        <pt x="338" y="932" on="0"/>
        <pt x="297" y="922" on="0"/>
        <pt x="243" y="874" on="0"/>
        <pt x="211" y="788" on="0"/>
        <pt x="188" y="623" on="0"/>
        <pt x="188" y="507" on="1"/>
        <pt x="188" y="394" on="0"/>
        <pt x="209" y="232" on="0"/>
        <pt x="240" y="141" on="0"/>
        <pt x="291" y="89" on="0"/>
        <pt x="338" y="75" on="0"/>
        <pt x="370" y="75" on="1"/>
        <pt x="410" y="75" on="0"/>
        <pt x="465" y="94" on="1"/>
        <pt x="466" y="94" on="0"/>
        <pt x="475" y="82" on="0"/>
        <pt x="475" y="81" on="1"/>
        <pt x="475" y="23" on="1"/>
        <pt x="475" y="19" on="0"/>
        <pt x="465" y="9" on="1"/>
        <pt x="409" y="-12" on="0"/>
      </contour>
    </TTGlyph>
    <TTGlyph name="cacute" xMin="80" yMin="-12" xMax="475" yMax="1577">
      <component glyphName="acute" x="-108" y="-26" flags="0x1004"/>
      <component glyphName="c" x="0" y="0" flags="0x1204"/>
    </TTGlyph>
    <TTGlyph name="caron" xMin="23" yMin="1235" xMax="275" yMax="1502">
      <contour>
        <pt x="139" y="1235" on="1"/>
        <pt x="124" y="1235" on="0"/>
        <pt x="101" y="1267" on="0"/>
        <pt x="86" y="1305" on="1"/>
        <pt x="25" y="1463" on="1"/>
        <pt x="23" y="1471" on="0"/>
        <pt x="23" y="1475" on="1"/>
        <pt x="23" y="1483" on="0"/>
        <pt x="27" y="1484" on="1"/>
        <pt x="27" y="1492" on="0"/>
        <pt x="51" y="1502" on="0"/>
        <pt x="62" y="1502" on="1"/>
        <pt x="77" y="1502" on="0"/>
        <pt x="86" y="1484" on="1"/>
        <pt x="139" y="1375" on="1"/>
        <pt x="146" y="1363" on="0"/>
        <pt x="149" y="1363" on="1"/>
        <pt x="153" y="1363" on="0"/>
        <pt x="158" y="1375" on="1"/>
        <pt x="212" y="1484" on="1"/>
        <pt x="221" y="1502" on="0"/>
        <pt x="236" y="1502" on="1"/>
        <pt x="247" y="1502" on="0"/>
        <pt x="270" y="1492" on="0"/>
        <pt x="270" y="1484" on="1"/>
        <pt x="275" y="1483" on="0"/>
        <pt x="275" y="1474" on="1"/>
        <pt x="275" y="1469" on="0"/>
        <pt x="273" y="1463" on="1"/>
        <pt x="212" y="1305" on="1"/>
        <pt x="197" y="1267" on="0"/>
        <pt x="173" y="1235" on="0"/>
        <pt x="158" y="1235" on="1"/>
      </contour>
    </TTGlyph>
    <TTGlyph name="ccaron" xMin="80" yMin="-12" xMax="475" yMax="1408">
      <component glyphName="caron" x="129" y="-94" flags="0x1004"/>
      <component glyphName="c" x="0" y="0" flags="0x1204"/>
    </TTGlyph>
    <TTGlyph name="ccedilla" xMin="80" yMin="-606" xMax="475" yMax="1019">
      <component glyphName="cedilla" x="70" y="0" flags="0x1004"/>
      <component glyphName="c" x="0" y="0" flags="0x1004"/>
    </TTGlyph>
    <TTGlyph name="ccircumflex" xMin="80" yMin="-12" xMax="475" yMax="1408">
      <component glyphName="circumflex" x="129" y="-94" flags="0x1004"/>
      <component glyphName="c" x="0" y="0" flags="0x1204"/>
    </TTGlyph>
    <TTGlyph name="cdotaccent" xMin="80" yMin="-12" xMax="475" yMax="1328">
      <component glyphName="dotaccent" x="230" y="1043" flags="0x1004"/>
      <component glyphName="c" x="0" y="0" flags="0x1204"/>
    </TTGlyph>
    <TTGlyph name="cedilla" xMin="72" yMin="-606" xMax="316" yMax="-144">
      <contour>
        <pt x="190" y="-606" on="1"/>
        <pt x="140" y="-606" on="0"/>
        <pt x="72" y="-528" on="0"/>
        <pt x="72" y="-452" on="1"/>
        <pt x="72" y="-361" on="0"/>
        <pt x="93" y="-361" on="1"/>
        <pt x="124" y="-361" on="1"/>
        <pt x="138" y="-361" on="0"/>
        <pt x="138" y="-395" on="1"/>
        <pt x="138" y="-406" on="0"/>
        <pt x="135" y="-444" on="0"/>
        <pt x="135" y="-448" on="1"/>
        <pt x="135" y="-489" on="0"/>
        <pt x="166" y="-543" on="0"/>
        <pt x="195" y="-543" on="1"/>
        <pt x="253" y="-543" on="0"/>
        <pt x="253" y="-395" on="1"/>
        <pt x="253" y="-339" on="0"/>
        <pt x="208" y="-218" on="0"/>
        <pt x="190" y="-218" on="1"/>
        <pt x="172" y="-218" on="1"/>
        <pt x="170" y="-218" on="1"/>
        <pt x="168" y="-218" on="0"/>
        <pt x="165" y="-213" on="0"/>
        <pt x="165" y="-208" on="1"/>
        <pt x="165" y="-161" on="1"/>
        <pt x="165" y="-144" on="0"/>
        <pt x="172" y="-144" on="1"/>
        <pt x="209" y="-144" on="1"/>
        <pt x="247" y="-144" on="0"/>
        <pt x="316" y="-299" on="0"/>
        <pt x="316" y="-383" on="1"/>
        <pt x="316" y="-500" on="0"/>
        <pt x="258" y="-606" on="0"/>
      </contour>
    </TTGlyph>
    <TTGlyph name="cent" xMin="80" yMin="-194" xMax="475" yMax="1235">
      <contour>
        <pt x="473" y="986" on="1"/>
        <pt x="473" y="986" on="0"/>
        <pt x="473" y="926" on="1"/>
        <pt x="473" y="924" on="0"/>
        <pt x="466" y="914" on="0"/>
        <pt x="465" y="914" on="1"/>
        <pt x="405" y="929" on="0"/>
        <pt x="386" y="931" on="1"/>
        <pt x="386" y="76" on="1"/>
        <pt x="421" y="79" on="0"/>
        <pt x="465" y="94" on="1"/>
        <pt x="466" y="94" on="0"/>
        <pt x="475" y="82" on="0"/>
        <pt x="475" y="81" on="1"/>
        <pt x="475" y="23" on="1"/>
        <pt x="475" y="22" on="0"/>
        <pt x="467" y="11" on="0"/>
        <pt x="465" y="10" on="1"/>
        <pt x="438" y="-3" on="0"/>
        <pt x="386" y="-9" on="1"/>
        <pt x="386" y="-144" on="1"/>
        <pt x="386" y="-194" on="0"/>
        <pt x="366" y="-194" on="1"/>
        <pt x="352" y="-194" on="1"/>
        <pt x="332" y="-194" on="0"/>
        <pt x="332" y="-144" on="1"/>
        <pt x="332" y="-12" on="1"/>
        <pt x="292" y="-10" on="0"/>
        <pt x="227" y="13" on="0"/>
        <pt x="157" y="80" on="0"/>
        <pt x="111" y="189" on="0"/>
        <pt x="80" y="379" on="0"/>
        <pt x="80" y="507" on="1"/>
        <pt x="80" y="634" on="0"/>
        <pt x="111" y="823" on="0"/>
        <pt x="157" y="930" on="0"/>
        <pt x="227" y="995" on="0"/>
        <pt x="292" y="1017" on="0"/>
        <pt x="332" y="1018" on="1"/>
        <pt x="332" y="1188" on="1"/>
        <pt x="332" y="1235" on="0"/>
        <pt x="352" y="1235" on="1"/>
        <pt x="366" y="1235" on="1"/>
        <pt x="386" y="1235" on="0"/>
        <pt x="386" y="1188" on="1"/>
        <pt x="386" y="1016" on="1"/>
        <pt x="473" y="1006" on="0"/>
      </contour>
      <contour>
        <pt x="332" y="78" on="1"/>
        <pt x="332" y="929" on="1"/>
        <pt x="302" y="924" on="0"/>
        <pt x="256" y="887" on="0"/>
        <pt x="212" y="801" on="0"/>
        <pt x="188" y="631" on="0"/>
        <pt x="188" y="507" on="1"/>
        <pt x="188" y="386" on="0"/>
        <pt x="210" y="217" on="0"/>
        <pt x="252" y="126" on="0"/>
        <pt x="300" y="84" on="0"/>
      </contour>
    </TTGlyph>
    <TTGlyph name="circumflex" xMin="23" yMin="1235" xMax="275" yMax="1502">
      <contour>
        <pt x="62" y="1235" on="1"/>
        <pt x="51" y="1235" on="0"/>
        <pt x="27" y="1246" on="0"/>
        <pt x="27" y="1254" on="1"/>
        <pt x="23" y="1255" on="0"/>
        <pt x="23" y="1263" on="1"/>
        <pt x="23" y="1267" on="0"/>
        <pt x="25" y="1275" on="1"/>
        <pt x="86" y="1433" on="1"/>
        <pt x="101" y="1470" on="0"/>
        <pt x="124" y="1502" on="0"/>
        <pt x="139" y="1502" on="1"/>
        <pt x="158" y="1502" on="1"/>
        <pt x="173" y="1502" on="0"/>
        <pt x="197" y="1471" on="0"/>
        <pt x="212" y="1433" on="1"/>
        <pt x="273" y="1275" on="1"/>
        <pt x="275" y="1267" on="0"/>
        <pt x="275" y="1262" on="1"/>
        <pt x="275" y="1254" on="0"/>
        <pt x="271" y="1254" on="1"/>
        <pt x="271" y="1246" on="0"/>
        <pt x="247" y="1235" on="0"/>
        <pt x="236" y="1235" on="1"/>
        <pt x="222" y="1235" on="0"/>
        <pt x="212" y="1253" on="1"/>
        <pt x="158" y="1363" on="1"/>
        <pt x="153" y="1375" on="0"/>
        <pt x="149" y="1375" on="1"/>
        <pt x="146" y="1375" on="0"/>
        <pt x="139" y="1363" on="1"/>
        <pt x="86" y="1253" on="1"/>
        <pt x="76" y="1235" on="0"/>
      </contour>
    </TTGlyph>
    <TTGlyph name="colon" xMin="98" yMin="0" xMax="210" yMax="1043">
      <contour>
        <pt x="124" y="0" on="1"/>
        <pt x="113" y="0" on="0"/>
        <pt x="98" y="41" on="0"/>
        <pt x="98" y="73" on="1"/>
        <pt x="98" y="235" on="1"/>
        <pt x="98" y="267" on="0"/>
        <pt x="113" y="308" on="0"/>
        <pt x="124" y="308" on="1"/>
        <pt x="184" y="308" on="1"/>
        <pt x="195" y="308" on="0"/>
        <pt x="210" y="267" on="0"/>
        <pt x="210" y="235" on="1"/>
        <pt x="210" y="73" on="1"/>
        <pt x="210" y="41" on="0"/>
        <pt x="195" y="0" on="0"/>
        <pt x="184" y="0" on="1"/>
      </contour>
      <contour>
        <pt x="124" y="734" on="1"/>
        <pt x="113" y="734" on="0"/>
        <pt x="98" y="775" on="0"/>
        <pt x="98" y="807" on="1"/>
        <pt x="98" y="970" on="1"/>
        <pt x="98" y="1002" on="0"/>
        <pt x="113" y="1043" on="0"/>
        <pt x="124" y="1043" on="1"/>
        <pt x="184" y="1043" on="1"/>
        <pt x="195" y="1043" on="0"/>
        <pt x="210" y="1002" on="0"/>
        <pt x="210" y="970" on="1"/>
        <pt x="210" y="807" on="1"/>
        <pt x="210" y="775" on="0"/>
        <pt x="195" y="734" on="0"/>
        <pt x="184" y="734" on="1"/>
      </contour>
    </TTGlyph>
    <TTGlyph name="comma" xMin="70" yMin="-285" xMax="206" yMax="215">
      <contour>
        <pt x="98" y="-283" on="1"/>
        <pt x="94" y="-285" on="0"/>
        <pt x="91" y="-285" on="1"/>
        <pt x="75" y="-285" on="0"/>
        <pt x="75" y="-246" on="1"/>
        <pt x="75" y="-234" on="1"/>
        <pt x="75" y="-225" on="0"/>
        <pt x="76" y="-213" on="0"/>
        <pt x="80" y="-202" on="0"/>
        <pt x="84" y="-196" on="0"/>
        <pt x="93" y="-183" on="0"/>
        <pt x="97" y="-177" on="1"/>
        <pt x="114" y="-149" on="0"/>
        <pt x="135" y="-56" on="0"/>
        <pt x="135" y="-27" on="1"/>
        <pt x="135" y="0" on="0"/>
        <pt x="129" y="0" on="1"/>
        <pt x="91" y="0" on="1"/>
        <pt x="70" y="0" on="0"/>
        <pt x="70" y="52" on="1"/>
        <pt x="70" y="152" on="1"/>
        <pt x="70" y="182" on="0"/>
        <pt x="91" y="215" on="0"/>
        <pt x="104" y="215" on="1"/>
        <pt x="180" y="215" on="1"/>
        <pt x="191" y="215" on="0"/>
        <pt x="206" y="174" on="0"/>
        <pt x="206" y="142" on="1"/>
        <pt x="206" y="81" on="1"/>
        <pt x="206" y="-81" on="0"/>
        <pt x="141" y="-262" on="0"/>
      </contour>
    </TTGlyph>
    <TTGlyph name="copyright" xMin="91" yMin="-14" xMax="1257" yMax="1453">
      <contour>
        <pt x="694" y="338" on="1"/>
        <pt x="561" y="338" on="0"/>
        <pt x="389" y="538" on="0"/>
        <pt x="389" y="728" on="1"/>
        <pt x="389" y="828" on="0"/>
        <pt x="441" y="981" on="0"/>
        <pt x="529" y="1068" on="0"/>
        <pt x="632" y="1112" on="0"/>
        <pt x="688" y="1112" on="1"/>
        <pt x="803" y="1112" on="0"/>
        <pt x="877" y="1045" on="1"/>
        <pt x="883" y="1040" on="0"/>
        <pt x="883" y="1008" on="0"/>
        <pt x="865" y="976" on="0"/>
        <pt x="855" y="976" on="1"/>
        <pt x="854" y="976" on="0"/>
        <pt x="850" y="978" on="1"/>
        <pt x="771" y="1034" on="0"/>
        <pt x="702" y="1034" on="1"/>
        <pt x="599" y="1034" on="0"/>
        <pt x="475" y="874" on="0"/>
        <pt x="475" y="727" on="1"/>
        <pt x="475" y="573" on="0"/>
        <pt x="599" y="417" on="0"/>
        <pt x="699" y="417" on="1"/>
        <pt x="712" y="417" on="0"/>
        <pt x="735" y="419" on="0"/>
        <pt x="759" y="425" on="0"/>
        <pt x="772" y="428" on="0"/>
        <pt x="798" y="440" on="0"/>
        <pt x="806" y="443" on="0"/>
        <pt x="837" y="459" on="0"/>
        <pt x="840" y="461" on="1"/>
        <pt x="846" y="463" on="1"/>
        <pt x="858" y="463" on="0"/>
        <pt x="878" y="433" on="0"/>
        <pt x="878" y="415" on="1"/>
        <pt x="878" y="395" on="0"/>
        <pt x="865" y="388" on="1"/>
        <pt x="813" y="359" on="0"/>
        <pt x="749" y="338" on="0"/>
      </contour>
      <contour>
        <pt x="570" y="64" on="0"/>
        <pt x="782" y="64" on="0"/>
        <pt x="953" y="140" on="0"/>
        <pt x="1064" y="265" on="0"/>
        <pt x="1138" y="435" on="0"/>
        <pt x="1170" y="617" on="0"/>
        <pt x="1170" y="715" on="1"/>
        <pt x="1170" y="817" on="0"/>
        <pt x="1138" y="1002" on="0"/>
        <pt x="1064" y="1174" on="0"/>
        <pt x="953" y="1300" on="0"/>
        <pt x="782" y="1375" on="0"/>
        <pt x="570" y="1375" on="0"/>
        <pt x="399" y="1300" on="0"/>
        <pt x="288" y="1174" on="0"/>
        <pt x="214" y="1002" on="0"/>
        <pt x="182" y="817" on="0"/>
        <pt x="182" y="715" on="1"/>
        <pt x="182" y="617" on="0"/>
        <pt x="214" y="435" on="0"/>
        <pt x="288" y="265" on="0"/>
        <pt x="399" y="140" on="0"/>
      </contour>
      <contour>
        <pt x="822" y="-14" on="0"/>
        <pt x="526" y="-14" on="0"/>
        <pt x="298" y="105" on="0"/>
        <pt x="160" y="311" on="0"/>
        <pt x="91" y="570" on="0"/>
        <pt x="91" y="719" on="1"/>
        <pt x="91" y="837" on="0"/>
        <pt x="133" y="1051" on="0"/>
        <pt x="225" y="1238" on="0"/>
        <pt x="360" y="1374" on="0"/>
        <pt x="555" y="1453" on="0"/>
        <pt x="793" y="1453" on="0"/>
        <pt x="989" y="1374" on="0"/>
        <pt x="1123" y="1238" on="0"/>
        <pt x="1215" y="1051" on="0"/>
        <pt x="1257" y="838" on="0"/>
        <pt x="1257" y="719" on="1"/>
        <pt x="1257" y="569" on="0"/>
        <pt x="1188" y="311" on="0"/>
        <pt x="1051" y="105" on="0"/>
      </contour>
    </TTGlyph>
    <TTGlyph name="currency" xMin="92" yMin="628" xMax="930" yMax="1449">
      <contour>
        <pt x="588" y="628" on="0"/>
        <pt x="434" y="628" on="0"/>
        <pt x="322" y="664" on="0"/>
        <pt x="266" y="701" on="1"/>
        <pt x="242" y="675" on="1"/>
        <pt x="210" y="643" on="0"/>
        <pt x="195" y="643" on="1"/>
        <pt x="183" y="643" on="0"/>
        <pt x="175" y="654" on="1"/>
        <pt x="149" y="679" on="1"/>
        <pt x="138" y="691" on="0"/>
        <pt x="138" y="703" on="1"/>
        <pt x="138" y="719" on="0"/>
        <pt x="167" y="748" on="1"/>
        <pt x="188" y="769" on="1"/>
        <pt x="92" y="877" on="0"/>
        <pt x="92" y="1037" on="1"/>
        <pt x="92" y="1198" on="0"/>
        <pt x="190" y="1310" on="1"/>
        <pt x="167" y="1331" on="1"/>
        <pt x="136" y="1362" on="0"/>
        <pt x="136" y="1378" on="1"/>
        <pt x="136" y="1388" on="0"/>
        <pt x="146" y="1398" on="1"/>
        <pt x="173" y="1423" on="1"/>
        <pt x="182" y="1435" on="0"/>
        <pt x="210" y="1435" on="0"/>
        <pt x="242" y="1405" on="1"/>
        <pt x="269" y="1378" on="1"/>
        <pt x="325" y="1414" on="0"/>
        <pt x="435" y="1449" on="0"/>
        <pt x="511" y="1449" on="1"/>
        <pt x="643" y="1449" on="0"/>
        <pt x="754" y="1378" on="1"/>
        <pt x="780" y="1404" on="1"/>
        <pt x="811" y="1435" on="0"/>
        <pt x="827" y="1435" on="1"/>
        <pt x="838" y="1435" on="0"/>
        <pt x="849" y="1423" on="1"/>
        <pt x="876" y="1398" on="1"/>
        <pt x="885" y="1386" on="0"/>
        <pt x="885" y="1378" on="1"/>
        <pt x="885" y="1362" on="0"/>
        <pt x="854" y="1331" on="1"/>
        <pt x="832" y="1310" on="1"/>
        <pt x="930" y="1197" on="0"/>
        <pt x="930" y="1037" on="1"/>
        <pt x="930" y="879" on="0"/>
        <pt x="834" y="769" on="1"/>
        <pt x="854" y="749" on="1"/>
        <pt x="885" y="718" on="0"/>
        <pt x="885" y="703" on="1"/>
        <pt x="885" y="691" on="0"/>
        <pt x="874" y="680" on="1"/>
        <pt x="847" y="654" on="1"/>
        <pt x="838" y="643" on="0"/>
        <pt x="827" y="643" on="1"/>
        <pt x="811" y="643" on="0"/>
        <pt x="781" y="675" on="1"/>
        <pt x="756" y="701" on="1"/>
        <pt x="699" y="664" on="0"/>
      </contour>
      <contour>
        <pt x="425" y="704" on="0"/>
        <pt x="597" y="704" on="0"/>
        <pt x="728" y="763" on="0"/>
        <pt x="802" y="861" on="0"/>
        <pt x="839" y="973" on="0"/>
        <pt x="839" y="1033" on="1"/>
        <pt x="839" y="1097" on="0"/>
        <pt x="802" y="1211" on="0"/>
        <pt x="728" y="1309" on="0"/>
        <pt x="597" y="1367" on="0"/>
        <pt x="425" y="1367" on="0"/>
        <pt x="293" y="1309" on="0"/>
        <pt x="218" y="1211" on="0"/>
        <pt x="181" y="1097" on="0"/>
        <pt x="181" y="1033" on="1"/>
        <pt x="181" y="973" on="0"/>
        <pt x="218" y="861" on="0"/>
        <pt x="293" y="763" on="0"/>
      </contour>
    </TTGlyph>
    <TTGlyph name="d" xMin="78" yMin="-12" xMax="618" yMax="1435">
      <contour>
        <pt x="539" y="224" on="1"/>
        <pt x="508" y="99" on="0"/>
        <pt x="406" y="-12" on="0"/>
        <pt x="328" y="-12" on="1"/>
        <pt x="289" y="-12" on="0"/>
        <pt x="225" y="7" on="0"/>
        <pt x="155" y="72" on="0"/>
        <pt x="109" y="180" on="0"/>
        <pt x="78" y="373" on="0"/>
        <pt x="78" y="504" on="1"/>
        <pt x="78" y="633" on="0"/>
        <pt x="106" y="822" on="0"/>
        <pt x="149" y="933" on="0"/>
        <pt x="217" y="998" on="0"/>
        <pt x="284" y="1019" on="0"/>
        <pt x="327" y="1019" on="1"/>
        <pt x="384" y="1019" on="0"/>
        <pt x="476" y="930" on="0"/>
        <pt x="506" y="842" on="1"/>
        <pt x="506" y="841" on="0"/>
        <pt x="510" y="832" on="0"/>
        <pt x="511" y="830" on="1"/>
        <pt x="512" y="830" on="0"/>
        <pt x="512" y="843" on="1"/>
        <pt x="512" y="1370" on="1"/>
        <pt x="512" y="1435" on="0"/>
        <pt x="537" y="1435" on="1"/>
        <pt x="594" y="1435" on="1"/>
        <pt x="618" y="1435" on="0"/>
        <pt x="618" y="1370" on="1"/>
        <pt x="618" y="67" on="1"/>
        <pt x="618" y="0" on="0"/>
        <pt x="598" y="0" on="1"/>
        <pt x="586" y="0" on="1"/>
        <pt x="571" y="0" on="0"/>
        <pt x="552" y="97" on="0"/>
        <pt x="542" y="216" on="0"/>
      </contour>
      <contour>
        <pt x="512" y="506" on="1"/>
        <pt x="512" y="707" on="0"/>
        <pt x="418" y="934" on="0"/>
        <pt x="346" y="934" on="1"/>
        <pt x="317" y="934" on="0"/>
        <pt x="273" y="914" on="0"/>
        <pt x="231" y="858" on="0"/>
        <pt x="203" y="765" on="0"/>
        <pt x="186" y="611" on="0"/>
        <pt x="186" y="507" on="1"/>
        <pt x="186" y="340" on="0"/>
        <pt x="227" y="143" on="0"/>
        <pt x="294" y="73" on="0"/>
        <pt x="345" y="73" on="1"/>
        <pt x="419" y="73" on="0"/>
        <pt x="512" y="310" on="0"/>
      </contour>
    </TTGlyph>
    <TTGlyph name="dagger" xMin="-14" yMin="0" xMax="686" yMax="1445">
      <contour>
        <pt x="316" y="0" on="1"/>
        <pt x="293" y="0" on="0"/>
        <pt x="293" y="63" on="1"/>
        <pt x="293" y="960" on="1"/>
        <pt x="42" y="960" on="1"/>
        <pt x="-14" y="960" on="0"/>
        <pt x="-14" y="983" on="1"/>
        <pt x="-14" y="1039" on="1"/>
        <pt x="-14" y="1064" on="0"/>
        <pt x="42" y="1064" on="1"/>
        <pt x="293" y="1064" on="1"/>
        <pt x="293" y="1380" on="1"/>
        <pt x="293" y="1445" on="0"/>
        <pt x="316" y="1445" on="1"/>
        <pt x="372" y="1445" on="1"/>
        <pt x="396" y="1445" on="0"/>
        <pt x="396" y="1380" on="1"/>
        <pt x="396" y="1064" on="1"/>
        <pt x="630" y="1064" on="1"/>
        <pt x="686" y="1064" on="0"/>
        <pt x="686" y="1039" on="1"/>
        <pt x="686" y="983" on="1"/>
        <pt x="686" y="960" on="0"/>
        <pt x="630" y="960" on="1"/>
        <pt x="396" y="960" on="1"/>
        <pt x="396" y="63" on="1"/>
        <pt x="396" y="0" on="0"/>
        <pt x="372" y="0" on="1"/>
      </contour>
    </TTGlyph>
    <TTGlyph name="daggerdbl" xMin="-14" yMin="0" xMax="686" yMax="1445">
      <contour>
        <pt x="316" y="0" on="1"/>
        <pt x="293" y="0" on="0"/>
        <pt x="293" y="63" on="1"/>
        <pt x="293" y="414" on="1"/>
        <pt x="42" y="414" on="1"/>
        <pt x="-14" y="414" on="0"/>
        <pt x="-14" y="437" on="1"/>
        <pt x="-14" y="493" on="1"/>
        <pt x="-14" y="518" on="0"/>
        <pt x="42" y="518" on="1"/>
        <pt x="293" y="518" on="1"/>
        <pt x="293" y="971" on="1"/>
        <pt x="42" y="971" on="1"/>
        <pt x="-14" y="971" on="0"/>
        <pt x="-14" y="994" on="1"/>
        <pt x="-14" y="1050" on="1"/>
        <pt x="-14" y="1075" on="0"/>
        <pt x="42" y="1075" on="1"/>
        <pt x="293" y="1075" on="1"/>
        <pt x="293" y="1380" on="1"/>
        <pt x="293" y="1445" on="0"/>
        <pt x="316" y="1445" on="1"/>
        <pt x="372" y="1445" on="1"/>
        <pt x="396" y="1445" on="0"/>
        <pt x="396" y="1380" on="1"/>
        <pt x="396" y="1075" on="1"/>
        <pt x="630" y="1075" on="1"/>
        <pt x="686" y="1075" on="0"/>
        <pt x="686" y="1050" on="1"/>
        <pt x="686" y="994" on="1"/>
        <pt x="686" y="971" on="0"/>
        <pt x="630" y="971" on="1"/>
        <pt x="396" y="971" on="1"/>
        <pt x="396" y="518" on="1"/>
        <pt x="630" y="518" on="1"/>
        <pt x="686" y="518" on="0"/>
        <pt x="686" y="493" on="1"/>
        <pt x="686" y="437" on="1"/>
        <pt x="686" y="414" on="0"/>
        <pt x="630" y="414" on="1"/>
        <pt x="396" y="414" on="1"/>
        <pt x="396" y="63" on="1"/>
        <pt x="396" y="0" on="0"/>
        <pt x="372" y="0" on="1"/>
      </contour>
    </TTGlyph>
    <TTGlyph name="dcaron" xMin="78" yMin="-12" xMax="939" yMax="1435">
      <component glyphName="d" x="0" y="0" flags="0x1004"/>
      <component glyphName="comma" x="733" y="1220" flags="0x1004"/>
    </TTGlyph>
    <TTGlyph name="dcroat" xMin="78" yMin="-12" xMax="715" yMax="1435">
      <contour>
        <pt x="328" y="-12" on="1"/>
        <pt x="289" y="-12" on="0"/>
        <pt x="225" y="7" on="0"/>
        <pt x="155" y="72" on="0"/>
        <pt x="109" y="180" on="0"/>
        <pt x="78" y="373" on="0"/>
        <pt x="78" y="504" on="1"/>
        <pt x="78" y="633" on="0"/>
        <pt x="106" y="822" on="0"/>
        <pt x="149" y="933" on="0"/>
        <pt x="217" y="998" on="0"/>
        <pt x="284" y="1019" on="0"/>
        <pt x="327" y="1019" on="1"/>
        <pt x="384" y="1019" on="0"/>
        <pt x="476" y="930" on="0"/>
        <pt x="506" y="842" on="1"/>
        <pt x="506" y="841" on="0"/>
        <pt x="510" y="832" on="0"/>
        <pt x="511" y="830" on="1"/>
        <pt x="512" y="830" on="0"/>
        <pt x="512" y="852" on="1"/>
        <pt x="512" y="1186" on="1"/>
        <pt x="309" y="1186" on="1"/>
        <pt x="295" y="1186" on="0"/>
        <pt x="282" y="1197" on="0"/>
        <pt x="282" y="1215" on="1"/>
        <pt x="282" y="1229" on="1"/>
        <pt x="282" y="1248" on="0"/>
        <pt x="295" y="1260" on="0"/>
        <pt x="309" y="1260" on="1"/>
        <pt x="512" y="1260" on="1"/>
        <pt x="512" y="1370" on="1"/>
        <pt x="512" y="1435" on="0"/>
        <pt x="537" y="1435" on="1"/>
        <pt x="596" y="1435" on="1"/>
        <pt x="620" y="1435" on="0"/>
        <pt x="620" y="1370" on="1"/>
        <pt x="620" y="1260" on="1"/>
        <pt x="688" y="1260" on="1"/>
        <pt x="702" y="1260" on="0"/>
        <pt x="715" y="1248" on="0"/>
        <pt x="715" y="1231" on="1"/>
        <pt x="715" y="1216" on="1"/>
        <pt x="715" y="1197" on="0"/>
        <pt x="702" y="1186" on="0"/>
        <pt x="688" y="1186" on="1"/>
        <pt x="620" y="1186" on="1"/>
        <pt x="620" y="67" on="1"/>
        <pt x="620" y="0" on="0"/>
        <pt x="600" y="0" on="1"/>
        <pt x="580" y="7" on="1"/>
        <pt x="568" y="19" on="0"/>
        <pt x="561" y="62" on="1"/>
        <pt x="552" y="114" on="0"/>
        <pt x="543" y="201" on="1"/>
        <pt x="542" y="216" on="0"/>
        <pt x="539" y="224" on="1"/>
        <pt x="508" y="99" on="0"/>
        <pt x="406" y="-12" on="0"/>
      </contour>
      <contour>
        <pt x="512" y="506" on="1"/>
        <pt x="512" y="707" on="0"/>
        <pt x="418" y="934" on="0"/>
        <pt x="346" y="934" on="1"/>
        <pt x="317" y="934" on="0"/>
        <pt x="273" y="914" on="0"/>
        <pt x="231" y="858" on="0"/>
        <pt x="203" y="765" on="0"/>
        <pt x="186" y="611" on="0"/>
        <pt x="186" y="507" on="1"/>
        <pt x="186" y="340" on="0"/>
        <pt x="227" y="143" on="0"/>
        <pt x="294" y="73" on="0"/>
        <pt x="345" y="73" on="1"/>
        <pt x="419" y="73" on="0"/>
        <pt x="512" y="310" on="0"/>
      </contour>
    </TTGlyph>
    <TTGlyph name="degree" xMin="168" yMin="1112" xMax="478" yMax="1438">
      <contour>
        <pt x="287" y="1160" on="0"/>
        <pt x="361" y="1160" on="0"/>
        <pt x="420" y="1213" on="0"/>
        <pt x="420" y="1274" on="1"/>
        <pt x="420" y="1339" on="0"/>
        <pt x="360" y="1389" on="0"/>
        <pt x="324" y="1389" on="1"/>
        <pt x="286" y="1389" on="0"/>
        <pt x="228" y="1339" on="0"/>
        <pt x="228" y="1274" on="1"/>
        <pt x="228" y="1214" on="0"/>
      </contour>
      <contour>
        <pt x="324" y="1112" on="1"/>
        <pt x="300" y="1112" on="0"/>
        <pt x="251" y="1127" on="0"/>
        <pt x="200" y="1160" on="0"/>
        <pt x="168" y="1228" on="0"/>
        <pt x="168" y="1274" on="1"/>
        <pt x="168" y="1322" on="0"/>
        <pt x="199" y="1391" on="0"/>
        <pt x="249" y="1424" on="0"/>
        <pt x="298" y="1438" on="0"/>
        <pt x="324" y="1438" on="1"/>
        <pt x="349" y="1438" on="0"/>
        <pt x="397" y="1424" on="0"/>
        <pt x="447" y="1391" on="0"/>
        <pt x="478" y="1322" on="0"/>
        <pt x="478" y="1274" on="1"/>
        <pt x="478" y="1237" on="0"/>
        <pt x="456" y="1178" on="0"/>
        <pt x="423" y="1143" on="0"/>
        <pt x="379" y="1120" on="0"/>
        <pt x="342" y="1112" on="0"/>
      </contour>
    </TTGlyph>
    <TTGlyph name="dieresis" xMin="58" yMin="0" xMax="380" yMax="140">
      <contour>
        <pt x="85" y="0" on="1"/>
        <pt x="74" y="0" on="0"/>
        <pt x="58" y="32" on="0"/>
        <pt x="58" y="57" on="1"/>
        <pt x="58" y="83" on="1"/>
        <pt x="58" y="108" on="0"/>
        <pt x="74" y="140" on="0"/>
        <pt x="85" y="140" on="1"/>
        <pt x="134" y="140" on="1"/>
        <pt x="145" y="140" on="0"/>
        <pt x="161" y="108" on="0"/>
        <pt x="161" y="83" on="1"/>
        <pt x="161" y="57" on="1"/>
        <pt x="161" y="32" on="0"/>
        <pt x="145" y="0" on="0"/>
        <pt x="134" y="0" on="1"/>
      </contour>
      <contour>
        <pt x="305" y="0" on="1"/>
        <pt x="294" y="0" on="0"/>
        <pt x="280" y="32" on="0"/>
        <pt x="280" y="57" on="1"/>
        <pt x="280" y="83" on="1"/>
        <pt x="280" y="108" on="0"/>
        <pt x="294" y="140" on="0"/>
        <pt x="305" y="140" on="1"/>
        <pt x="353" y="140" on="1"/>
        <pt x="364" y="140" on="0"/>
        <pt x="380" y="108" on="0"/>
        <pt x="380" y="83" on="1"/>
        <pt x="380" y="57" on="1"/>
        <pt x="380" y="32" on="0"/>
        <pt x="364" y="0" on="0"/>
        <pt x="353" y="0" on="1"/>
      </contour>
    </TTGlyph>
    <TTGlyph name="divide" xMin="-170" yMin="150" xMax="493" yMax="868">
      <contour>
        <pt x="122" y="150" on="1"/>
        <pt x="114" y="150" on="0"/>
        <pt x="105" y="156" on="0"/>
        <pt x="99" y="178" on="0"/>
        <pt x="99" y="199" on="1"/>
        <pt x="99" y="271" on="1"/>
        <pt x="99" y="301" on="0"/>
        <pt x="110" y="320" on="0"/>
        <pt x="122" y="320" on="1"/>
        <pt x="198" y="320" on="1"/>
        <pt x="210" y="320" on="0"/>
        <pt x="221" y="301" on="0"/>
        <pt x="221" y="271" on="1"/>
        <pt x="221" y="199" on="1"/>
        <pt x="221" y="168" on="0"/>
        <pt x="210" y="150" on="0"/>
        <pt x="198" y="150" on="1"/>
      </contour>
      <contour>
        <pt x="122" y="698" on="1"/>
        <pt x="116" y="698" on="0"/>
        <pt x="108" y="701" on="0"/>
        <pt x="102" y="711" on="0"/>
        <pt x="99" y="731" on="0"/>
        <pt x="99" y="747" on="1"/>
        <pt x="99" y="819" on="1"/>
        <pt x="99" y="849" on="0"/>
        <pt x="110" y="868" on="0"/>
        <pt x="122" y="868" on="1"/>
        <pt x="122" y="868" on="0"/>
        <pt x="198" y="868" on="1"/>
        <pt x="210" y="868" on="0"/>
        <pt x="221" y="849" on="0"/>
        <pt x="221" y="819" on="1"/>
        <pt x="221" y="747" on="1"/>
        <pt x="221" y="716" on="0"/>
        <pt x="210" y="698" on="0"/>
        <pt x="198" y="698" on="1"/>
      </contour>
      <contour>
        <pt x="493" y="473" on="1"/>
        <pt x="493" y="461" on="0"/>
        <pt x="471" y="450" on="0"/>
        <pt x="440" y="450" on="1"/>
        <pt x="-117" y="450" on="1"/>
        <pt x="-148" y="450" on="0"/>
        <pt x="-170" y="461" on="0"/>
        <pt x="-170" y="473" on="1"/>
        <pt x="-170" y="533" on="1"/>
        <pt x="-170" y="545" on="0"/>
        <pt x="-148" y="556" on="0"/>
        <pt x="-117" y="556" on="1"/>
        <pt x="440" y="556" on="1"/>
        <pt x="471" y="556" on="0"/>
        <pt x="493" y="545" on="0"/>
        <pt x="493" y="533" on="1"/>
      </contour>
    </TTGlyph>
    <TTGlyph name="dollar" xMin="46" yMin="-200" xMax="682" yMax="1642">
      <component glyphName="bar" x="321" y="-38" scalex="0.639953613281" scaley="1.07995605469" flags="0x1004"/>
      <component glyphName="S" x="0" y="0" flags="0x1004"/>
    </TTGlyph>
    <TTGlyph name="dotaccent" xMin="-29" yMin="98" xMax="123" yMax="285">
      <contour>
        <pt x="-3" y="98" on="1"/>
        <pt x="-29" y="98" on="0"/>
        <pt x="-29" y="153" on="1"/>
        <pt x="-29" y="230" on="1"/>
        <pt x="-29" y="285" on="0"/>
        <pt x="-3" y="285" on="1"/>
        <pt x="97" y="285" on="1"/>
        <pt x="123" y="285" on="0"/>
        <pt x="123" y="230" on="1"/>
        <pt x="123" y="153" on="1"/>
        <pt x="123" y="98" on="0"/>
        <pt x="97" y="98" on="1"/>
      </contour>
    </TTGlyph>
    <TTGlyph name="dotlessi" xMin="107" yMin="0" xMax="210" yMax="1006">
      <contour>
        <pt x="130" y="0" on="1"/>
        <pt x="118" y="0" on="0"/>
        <pt x="107" y="22" on="0"/>
        <pt x="107" y="53" on="1"/>
        <pt x="107" y="953" on="1"/>
        <pt x="107" y="984" on="0"/>
        <pt x="118" y="1006" on="0"/>
        <pt x="130" y="1006" on="1"/>
        <pt x="187" y="1006" on="1"/>
        <pt x="199" y="1006" on="0"/>
        <pt x="210" y="984" on="0"/>
        <pt x="210" y="953" on="1"/>
        <pt x="210" y="53" on="1"/>
        <pt x="210" y="22" on="0"/>
        <pt x="199" y="0" on="0"/>
        <pt x="187" y="0" on="1"/>
      </contour>
    </TTGlyph>
    <TTGlyph name="e" xMin="80" yMin="-12" xMax="594" yMax="1019">
      <contour>
        <pt x="361" y="-12" on="1"/>
        <pt x="80" y="-12" on="0"/>
        <pt x="80" y="504" on="1"/>
        <pt x="80" y="1019" on="0"/>
        <pt x="352" y="1019" on="1"/>
        <pt x="472" y="1019" on="0"/>
        <pt x="594" y="801" on="0"/>
        <pt x="594" y="556" on="1"/>
        <pt x="594" y="481" on="0"/>
        <pt x="556" y="481" on="1"/>
        <pt x="194" y="481" on="1"/>
        <pt x="188" y="481" on="0"/>
        <pt x="188" y="466" on="1"/>
        <pt x="188" y="410" on="0"/>
        <pt x="199" y="306" on="0"/>
        <pt x="225" y="200" on="0"/>
        <pt x="264" y="122" on="0"/>
        <pt x="327" y="73" on="0"/>
        <pt x="367" y="73" on="1"/>
        <pt x="402" y="73" on="0"/>
        <pt x="454" y="104" on="0"/>
        <pt x="482" y="145" on="0"/>
        <pt x="501" y="210" on="0"/>
        <pt x="508" y="255" on="0"/>
        <pt x="510" y="285" on="1"/>
        <pt x="514" y="304" on="0"/>
        <pt x="519" y="304" on="1"/>
        <pt x="571" y="304" on="1"/>
        <pt x="583" y="304" on="0"/>
        <pt x="584" y="291" on="1"/>
        <pt x="584" y="274" on="1"/>
        <pt x="585" y="256" on="0"/>
        <pt x="585" y="252" on="1"/>
        <pt x="585" y="141" on="0"/>
        <pt x="470" y="-12" on="0"/>
      </contour>
      <contour>
        <pt x="192" y="549" on="1"/>
        <pt x="192" y="549" on="0"/>
        <pt x="504" y="549" on="1"/>
        <pt x="505" y="549" on="0"/>
        <pt x="505" y="558" on="1"/>
        <pt x="497" y="759" on="0"/>
        <pt x="429" y="934" on="0"/>
        <pt x="350" y="934" on="1"/>
        <pt x="320" y="934" on="0"/>
        <pt x="272" y="907" on="0"/>
        <pt x="226" y="839" on="0"/>
        <pt x="195" y="705" on="0"/>
        <pt x="189" y="608" on="1"/>
        <pt x="189" y="549" on="0"/>
      </contour>
    </TTGlyph>
    <TTGlyph name="eacute" xMin="80" yMin="-12" xMax="594" yMax="1577">
      <component glyphName="acute" x="-49" y="-26" flags="0x1004"/>
      <component glyphName="e" x="0" y="0" flags="0x1204"/>
    </TTGlyph>
    <TTGlyph name="ebreve" xMin="80" yMin="-12" xMax="594" yMax="1315">
      <component glyphName="breve" x="-266" y="-152" flags="0x1004"/>
      <component glyphName="e" x="0" y="0" flags="0x1204"/>
    </TTGlyph>
    <TTGlyph name="ecaron" xMin="80" yMin="-12" xMax="594" yMax="1408">
      <component glyphName="caron" x="188" y="-94" flags="0x1004"/>
      <component glyphName="e" x="0" y="0" flags="0x1204"/>
    </TTGlyph>
    <TTGlyph name="ecircumflex" xMin="80" yMin="-12" xMax="594" yMax="1408">
      <component glyphName="circumflex" x="188" y="-94" flags="0x1004"/>
      <component glyphName="e" x="0" y="0" flags="0x1204"/>
    </TTGlyph>
    <TTGlyph name="edieresis" xMin="80" yMin="-12" xMax="594" yMax="1281">
      <component glyphName="dieresis" x="118" y="1141" flags="0x1004"/>
      <component glyphName="e" x="0" y="0" flags="0x1204"/>
    </TTGlyph>
    <TTGlyph name="edotaccent" xMin="80" yMin="-12" xMax="594" yMax="1328">
      <component glyphName="dotaccent" x="290" y="1043" flags="0x1004"/>
      <component glyphName="e" x="0" y="0" flags="0x1204"/>
    </TTGlyph>
    <TTGlyph name="egrave" xMin="80" yMin="-12" xMax="594" yMax="1577">
      <component glyphName="grave" x="-120" y="-26" flags="0x1004"/>
      <component glyphName="e" x="0" y="0" flags="0x1204"/>
    </TTGlyph>
    <TTGlyph name="eight" xMin="97" yMin="-13" xMax="715" yMax="1451">
      <contour>
        <pt x="515" y="759" on="1"/>
        <pt x="583" y="898" on="0"/>
        <pt x="583" y="1035" on="1"/>
        <pt x="583" y="1211" on="0"/>
        <pt x="495" y="1361" on="0"/>
        <pt x="407" y="1361" on="1"/>
        <pt x="315" y="1361" on="0"/>
        <pt x="229" y="1207" on="0"/>
        <pt x="228" y="1042" on="1"/>
        <pt x="228" y="995" on="0"/>
        <pt x="237" y="930" on="0"/>
        <pt x="267" y="876" on="0"/>
        <pt x="301" y="842" on="0"/>
        <pt x="377" y="805" on="0"/>
        <pt x="449" y="780" on="0"/>
      </contour>
      <contour>
        <pt x="406" y="-13" on="1"/>
        <pt x="97" y="-13" on="0"/>
        <pt x="97" y="412" on="1"/>
        <pt x="97" y="523" on="0"/>
        <pt x="176" y="730" on="0"/>
        <pt x="219" y="780" on="1"/>
        <pt x="175" y="817" on="0"/>
        <pt x="125" y="941" on="0"/>
        <pt x="125" y="1062" on="1"/>
        <pt x="125" y="1262" on="0"/>
        <pt x="274" y="1451" on="0"/>
        <pt x="406" y="1451" on="1"/>
        <pt x="682" y="1451" on="0"/>
        <pt x="682" y="1040" on="1"/>
        <pt x="682" y="942" on="0"/>
        <pt x="620" y="768" on="0"/>
        <pt x="583" y="718" on="1"/>
        <pt x="715" y="632" on="0"/>
        <pt x="715" y="399" on="1"/>
        <pt x="715" y="281" on="0"/>
        <pt x="668" y="115" on="0"/>
        <pt x="581" y="25" on="0"/>
        <pt x="475" y="-13" on="0"/>
      </contour>
      <contour>
        <pt x="408" y="89" on="1"/>
        <pt x="511" y="89" on="0"/>
        <pt x="609" y="234" on="0"/>
        <pt x="609" y="416" on="1"/>
        <pt x="609" y="477" on="0"/>
        <pt x="590" y="558" on="0"/>
        <pt x="553" y="621" on="0"/>
        <pt x="471" y="671" on="0"/>
        <pt x="371" y="711" on="0"/>
        <pt x="286" y="738" on="1"/>
        <pt x="254" y="688" on="0"/>
        <pt x="201" y="489" on="0"/>
        <pt x="201" y="420" on="1"/>
        <pt x="201" y="239" on="0"/>
        <pt x="304" y="89" on="0"/>
      </contour>
    </TTGlyph>
    <TTGlyph name="ellipsis" xMin="81" yMin="0" xMax="832" yMax="219">
      <component glyphName="period" x="0" y="0" flags="0x1004"/>
      <component glyphName="period" x="303" y="0" flags="0x1004"/>
      <component glyphName="period" x="606" y="0" flags="0x1004"/>
    </TTGlyph>
    <TTGlyph name="emacron" xMin="80" yMin="-12" xMax="594" yMax="1218">
      <component glyphName="macron" x="4" y="924" flags="0x1004"/>
      <component glyphName="e" x="0" y="0" flags="0x1204"/>
    </TTGlyph>
    <TTGlyph name="emdash" xMin="82" yMin="633" xMax="1962" yMax="732">
      <contour>
        <pt x="115" y="633" on="1"/>
        <pt x="82" y="633" on="0"/>
        <pt x="82" y="670" on="1"/>
        <pt x="82" y="693" on="1"/>
        <pt x="82" y="732" on="0"/>
        <pt x="115" y="732" on="1"/>
        <pt x="1930" y="732" on="1"/>
        <pt x="1962" y="732" on="0"/>
        <pt x="1962" y="694" on="1"/>
        <pt x="1962" y="672" on="1"/>
        <pt x="1962" y="633" on="0"/>
        <pt x="1930" y="633" on="1"/>
      </contour>
    </TTGlyph>
    <TTGlyph name="endash" xMin="82" yMin="633" xMax="939" yMax="732">
      <contour>
        <pt x="115" y="633" on="1"/>
        <pt x="82" y="633" on="0"/>
        <pt x="82" y="670" on="1"/>
        <pt x="82" y="693" on="1"/>
        <pt x="82" y="732" on="0"/>
        <pt x="115" y="732" on="1"/>
        <pt x="906" y="732" on="1"/>
        <pt x="939" y="732" on="0"/>
        <pt x="939" y="694" on="1"/>
        <pt x="939" y="672" on="1"/>
        <pt x="939" y="633" on="0"/>
        <pt x="906" y="633" on="1"/>
      </contour>
    </TTGlyph>
    <TTGlyph name="eogonek" xMin="80" yMin="-334" xMax="594" yMax="1019">
      <component glyphName="e" x="0" y="0" flags="0x1004"/>
      <component glyphName="ogonek" x="-61" y="-5" flags="0x1004"/>
    </TTGlyph>
    <TTGlyph name="equal" xMin="48" yMin="357" xMax="421" yMax="730">
      <contour>
        <pt x="69" y="357" on="1"/>
        <pt x="56" y="357" on="0"/>
        <pt x="48" y="371" on="0"/>
        <pt x="48" y="401" on="1"/>
        <pt x="48" y="417" on="1"/>
        <pt x="48" y="438" on="0"/>
        <pt x="53" y="457" on="0"/>
        <pt x="60" y="460" on="0"/>
        <pt x="69" y="460" on="1"/>
        <pt x="400" y="460" on="1"/>
        <pt x="413" y="460" on="0"/>
        <pt x="421" y="447" on="0"/>
        <pt x="421" y="417" on="1"/>
        <pt x="421" y="401" on="1"/>
        <pt x="421" y="371" on="0"/>
        <pt x="413" y="357" on="0"/>
        <pt x="400" y="357" on="1"/>
      </contour>
      <contour>
        <pt x="69" y="627" on="1"/>
        <pt x="56" y="627" on="0"/>
        <pt x="48" y="641" on="0"/>
        <pt x="48" y="671" on="1"/>
        <pt x="48" y="686" on="1"/>
        <pt x="48" y="716" on="0"/>
        <pt x="56" y="730" on="0"/>
        <pt x="69" y="730" on="1"/>
        <pt x="400" y="730" on="1"/>
        <pt x="413" y="730" on="0"/>
        <pt x="421" y="716" on="0"/>
        <pt x="421" y="686" on="1"/>
        <pt x="421" y="671" on="1"/>
        <pt x="421" y="641" on="0"/>
        <pt x="413" y="627" on="0"/>
        <pt x="400" y="627" on="1"/>
      </contour>
    </TTGlyph>
    <TTGlyph name="eth" xMin="64" yMin="-14" xMax="676" yMax="1354">
      <contour>
        <pt x="371" y="-14" on="1"/>
        <pt x="317" y="-14" on="0"/>
        <pt x="230" y="9" on="0"/>
        <pt x="150" y="70" on="0"/>
        <pt x="96" y="167" on="0"/>
        <pt x="64" y="324" on="0"/>
        <pt x="64" y="427" on="1"/>
        <pt x="64" y="503" on="0"/>
        <pt x="83" y="630" on="0"/>
        <pt x="128" y="741" on="0"/>
        <pt x="196" y="817" on="0"/>
        <pt x="299" y="861" on="0"/>
        <pt x="364" y="861" on="1"/>
        <pt x="468" y="861" on="0"/>
        <pt x="545" y="783" on="1"/>
        <pt x="515" y="931" on="0"/>
        <pt x="396" y="1094" on="1"/>
        <pt x="229" y="1008" on="1"/>
        <pt x="208" y="996" on="0"/>
        <pt x="192" y="1022" on="1"/>
        <pt x="168" y="1056" on="0"/>
        <pt x="194" y="1072" on="1"/>
        <pt x="344" y="1147" on="1"/>
        <pt x="260" y="1233" on="0"/>
        <pt x="162" y="1296" on="1"/>
        <pt x="154" y="1301" on="0"/>
        <pt x="154" y="1310" on="1"/>
        <pt x="154" y="1318" on="0"/>
        <pt x="179" y="1345" on="0"/>
        <pt x="190" y="1345" on="1"/>
        <pt x="194" y="1354" on="0"/>
        <pt x="203" y="1354" on="1"/>
        <pt x="207" y="1354" on="0"/>
        <pt x="209" y="1353" on="1"/>
        <pt x="329" y="1281" on="0"/>
        <pt x="415" y="1193" on="1"/>
        <pt x="587" y="1282" on="1"/>
        <pt x="609" y="1297" on="0"/>
        <pt x="624" y="1268" on="1"/>
        <pt x="650" y="1232" on="0"/>
        <pt x="623" y="1217" on="1"/>
        <pt x="466" y="1139" on="1"/>
        <pt x="676" y="865" on="0"/>
        <pt x="676" y="516" on="1"/>
        <pt x="676" y="410" on="0"/>
        <pt x="659" y="250" on="0"/>
        <pt x="617" y="116" on="0"/>
        <pt x="547" y="32" on="0"/>
        <pt x="442" y="-14" on="0"/>
      </contour>
      <contour>
        <pt x="368" y="70" on="1"/>
        <pt x="402" y="70" on="0"/>
        <pt x="454" y="85" on="0"/>
        <pt x="512" y="135" on="0"/>
        <pt x="549" y="220" on="0"/>
        <pt x="573" y="373" on="0"/>
        <pt x="573" y="478" on="1"/>
        <pt x="573" y="775" on="0"/>
        <pt x="357" y="775" on="1"/>
        <pt x="311" y="775" on="0"/>
        <pt x="243" y="737" on="0"/>
        <pt x="202" y="677" on="0"/>
        <pt x="176" y="587" on="0"/>
        <pt x="167" y="495" on="0"/>
        <pt x="167" y="439" on="1"/>
        <pt x="167" y="300" on="0"/>
        <pt x="214" y="136" on="0"/>
        <pt x="299" y="70" on="0"/>
      </contour>
    </TTGlyph>
    <TTGlyph name="exclam" xMin="90" yMin="0" xMax="234" yMax="1458">
      <contour>
        <pt x="116" y="0" on="1"/>
        <pt x="90" y="0" on="0"/>
        <pt x="90" y="55" on="1"/>
        <pt x="90" y="164" on="1"/>
        <pt x="90" y="219" on="0"/>
        <pt x="116" y="219" on="1"/>
        <pt x="208" y="219" on="1"/>
        <pt x="234" y="219" on="0"/>
        <pt x="234" y="164" on="1"/>
        <pt x="234" y="55" on="1"/>
        <pt x="234" y="0" on="0"/>
        <pt x="208" y="0" on="1"/>
      </contour>
      <contour>
        <pt x="155" y="388" on="1"/>
        <pt x="150" y="388" on="0"/>
        <pt x="143" y="396" on="0"/>
        <pt x="139" y="419" on="0"/>
        <pt x="138" y="436" on="0"/>
        <pt x="137" y="457" on="1"/>
        <pt x="98" y="1389" on="1"/>
        <pt x="98" y="1398" on="1"/>
        <pt x="98" y="1426" on="0"/>
        <pt x="113" y="1458" on="0"/>
        <pt x="125" y="1458" on="1"/>
        <pt x="125" y="1458" on="0"/>
        <pt x="196" y="1458" on="1"/>
        <pt x="207" y="1458" on="0"/>
        <pt x="224" y="1424" on="0"/>
        <pt x="224" y="1397" on="1"/>
        <pt x="224" y="1389" on="1"/>
        <pt x="186" y="457" on="1"/>
        <pt x="184" y="418" on="0"/>
        <pt x="178" y="388" on="0"/>
        <pt x="168" y="388" on="1"/>
      </contour>
    </TTGlyph>
    <TTGlyph name="exclamdown" xMin="91" yMin="0" xMax="235" yMax="1458">
      <component glyphName="exclam" x="325" y="1458" scale="-1.0" flags="0x1004"/>
    </TTGlyph>
    <TTGlyph name="f" xMin="47" yMin="0" xMax="407" yMax="1439">
      <contour>
        <pt x="155" y="0" on="1"/>
        <pt x="144" y="0" on="0"/>
        <pt x="129" y="40" on="0"/>
        <pt x="129" y="72" on="1"/>
        <pt x="129" y="887" on="1"/>
        <pt x="129" y="903" on="0"/>
        <pt x="127" y="912" on="0"/>
        <pt x="121" y="912" on="1"/>
        <pt x="71" y="912" on="1"/>
        <pt x="58" y="912" on="0"/>
        <pt x="47" y="923" on="0"/>
        <pt x="47" y="940" on="1"/>
        <pt x="47" y="977" on="1"/>
        <pt x="47" y="994" on="0"/>
        <pt x="59" y="1006" on="0"/>
        <pt x="71" y="1006" on="1"/>
        <pt x="121" y="1006" on="1"/>
        <pt x="129" y="1006" on="0"/>
        <pt x="129" y="1036" on="1"/>
        <pt x="129" y="1204" on="0"/>
        <pt x="166" y="1375" on="0"/>
        <pt x="247" y="1439" on="0"/>
        <pt x="326" y="1439" on="1"/>
        <pt x="379" y="1439" on="0"/>
        <pt x="387" y="1437" on="1"/>
        <pt x="394" y="1436" on="0"/>
        <pt x="399" y="1435" on="0"/>
        <pt x="407" y="1422" on="0"/>
        <pt x="407" y="1409" on="1"/>
        <pt x="407" y="1380" on="1"/>
        <pt x="407" y="1354" on="0"/>
        <pt x="404" y="1344" on="0"/>
        <pt x="394" y="1344" on="1"/>
        <pt x="341" y="1344" on="1"/>
        <pt x="274" y="1344" on="0"/>
        <pt x="235" y="1248" on="0"/>
        <pt x="235" y="1093" on="1"/>
        <pt x="235" y="1012" on="1"/>
        <pt x="235" y="1006" on="0"/>
        <pt x="238" y="1006" on="1"/>
        <pt x="378" y="1006" on="1"/>
        <pt x="390" y="1006" on="0"/>
        <pt x="400" y="996" on="0"/>
        <pt x="400" y="980" on="1"/>
        <pt x="400" y="940" on="1"/>
        <pt x="400" y="923" on="0"/>
        <pt x="390" y="912" on="0"/>
        <pt x="378" y="912" on="1"/>
        <pt x="244" y="912" on="1"/>
        <pt x="235" y="912" on="0"/>
        <pt x="235" y="887" on="1"/>
        <pt x="235" y="72" on="1"/>
        <pt x="235" y="40" on="0"/>
        <pt x="221" y="0" on="0"/>
        <pt x="210" y="0" on="1"/>
      </contour>
    </TTGlyph>
    <TTGlyph name="five" xMin="125" yMin="-14" xMax="801" yMax="1438">
      <contour>
        <pt x="421" y="-14" on="1"/>
        <pt x="389" y="-12" on="0"/>
        <pt x="176" y="21" on="0"/>
        <pt x="149" y="36" on="1"/>
        <pt x="141" y="41" on="0"/>
        <pt x="129" y="76" on="0"/>
        <pt x="129" y="84" on="1"/>
        <pt x="129" y="138" on="0"/>
        <pt x="146" y="138" on="1"/>
        <pt x="149" y="138" on="0"/>
        <pt x="155" y="136" on="1"/>
        <pt x="156" y="136" on="0"/>
        <pt x="179" y="127" on="0"/>
        <pt x="204" y="119" on="0"/>
        <pt x="243" y="107" on="0"/>
        <pt x="286" y="97" on="0"/>
        <pt x="334" y="87" on="0"/>
        <pt x="388" y="82" on="0"/>
        <pt x="414" y="82" on="1"/>
        <pt x="493" y="82" on="0"/>
        <pt x="605" y="140" on="0"/>
        <pt x="667" y="247" on="0"/>
        <pt x="695" y="381" on="0"/>
        <pt x="695" y="467" on="1"/>
        <pt x="695" y="528" on="0"/>
        <pt x="687" y="623" on="0"/>
        <pt x="660" y="727" on="0"/>
        <pt x="613" y="795" on="0"/>
        <pt x="531" y="839" on="0"/>
        <pt x="475" y="839" on="1"/>
        <pt x="428" y="839" on="0"/>
        <pt x="347" y="806" on="0"/>
        <pt x="293" y="758" on="0"/>
        <pt x="249" y="711" on="0"/>
        <pt x="212" y="678" on="0"/>
        <pt x="197" y="678" on="1"/>
        <pt x="168" y="678" on="1"/>
        <pt x="160" y="678" on="0"/>
        <pt x="149" y="688" on="0"/>
        <pt x="145" y="711" on="0"/>
        <pt x="144" y="729" on="0"/>
        <pt x="143" y="747" on="1"/>
        <pt x="143" y="754" on="0"/>
        <pt x="143" y="758" on="1"/>
        <pt x="125" y="1378" on="1"/>
        <pt x="125" y="1390" on="1"/>
        <pt x="125" y="1416" on="0"/>
        <pt x="136" y="1438" on="0"/>
        <pt x="153" y="1438" on="1"/>
        <pt x="721" y="1438" on="1"/>
        <pt x="749" y="1438" on="0"/>
        <pt x="749" y="1408" on="1"/>
        <pt x="748" y="1372" on="1"/>
        <pt x="747" y="1329" on="0"/>
        <pt x="734" y="1329" on="1"/>
        <pt x="248" y="1329" on="1"/>
        <pt x="236" y="1329" on="0"/>
        <pt x="227" y="1314" on="0"/>
        <pt x="227" y="1290" on="1"/>
        <pt x="227" y="794" on="1"/>
        <pt x="329" y="931" on="0"/>
        <pt x="495" y="931" on="1"/>
        <pt x="581" y="931" on="0"/>
        <pt x="702" y="866" on="0"/>
        <pt x="771" y="739" on="0"/>
        <pt x="801" y="575" on="0"/>
        <pt x="801" y="465" on="1"/>
        <pt x="801" y="352" on="0"/>
        <pt x="765" y="184" on="0"/>
        <pt x="701" y="77" on="0"/>
        <pt x="603" y="12" on="0"/>
        <pt x="492" y="-14" on="0"/>
      </contour>
    </TTGlyph>
    <TTGlyph name="florin" xMin="-47" yMin="-106" xMax="465" yMax="1319">
      <contour>
        <pt x="-13" y="-106" on="1"/>
        <pt x="-13" y="-106" on="0"/>
        <pt x="-23" y="-106" on="1"/>
        <pt x="-40" y="-106" on="0"/>
        <pt x="-41" y="-97" on="1"/>
        <pt x="-47" y="-97" on="0"/>
        <pt x="-47" y="-71" on="1"/>
        <pt x="-46" y="-43" on="0"/>
        <pt x="-40" y="-17" on="0"/>
        <pt x="-30" y="-17" on="1"/>
        <pt x="-19" y="-17" on="1"/>
        <pt x="49" y="-17" on="0"/>
        <pt x="100" y="79" on="0"/>
        <pt x="115" y="234" on="1"/>
        <pt x="165" y="751" on="1"/>
        <pt x="166" y="766" on="0"/>
        <pt x="165" y="776" on="0"/>
        <pt x="159" y="776" on="1"/>
        <pt x="79" y="776" on="1"/>
        <pt x="66" y="776" on="0"/>
        <pt x="57" y="787" on="0"/>
        <pt x="59" y="804" on="1"/>
        <pt x="62" y="841" on="1"/>
        <pt x="64" y="858" on="0"/>
        <pt x="78" y="870" on="0"/>
        <pt x="90" y="870" on="1"/>
        <pt x="170" y="870" on="1"/>
        <pt x="178" y="870" on="0"/>
        <pt x="183" y="922" on="1"/>
        <pt x="200" y="1086" on="0"/>
        <pt x="254" y="1254" on="0"/>
        <pt x="341" y="1319" on="0"/>
        <pt x="420" y="1319" on="1"/>
        <pt x="427" y="1319" on="0"/>
        <pt x="443" y="1317" on="0"/>
        <pt x="453" y="1313" on="0"/>
        <pt x="453" y="1312" on="1"/>
        <pt x="458" y="1312" on="0"/>
        <pt x="465" y="1294" on="0"/>
        <pt x="465" y="1283" on="1"/>
        <pt x="465" y="1229" on="0"/>
        <pt x="447" y="1229" on="1"/>
        <pt x="426" y="1229" on="1"/>
        <pt x="359" y="1229" on="0"/>
        <pt x="308" y="1132" on="0"/>
        <pt x="292" y="979" on="1"/>
        <pt x="281" y="876" on="1"/>
        <pt x="281" y="870" on="0"/>
        <pt x="284" y="870" on="1"/>
        <pt x="394" y="870" on="1"/>
        <pt x="405" y="870" on="0"/>
        <pt x="414" y="860" on="0"/>
        <pt x="412" y="844" on="1"/>
        <pt x="408" y="804" on="1"/>
        <pt x="407" y="787" on="0"/>
        <pt x="395" y="776" on="0"/>
        <pt x="383" y="776" on="1"/>
        <pt x="281" y="776" on="1"/>
        <pt x="271" y="776" on="0"/>
        <pt x="270" y="751" on="1"/>
        <pt x="226" y="291" on="1"/>
        <pt x="211" y="132" on="0"/>
        <pt x="156" y="-38" on="0"/>
        <pt x="65" y="-106" on="0"/>
      </contour>
    </TTGlyph>
    <TTGlyph name="four" xMin="106" yMin="0" xMax="862" yMax="1438">
      <contour>
        <pt x="577" y="0" on="1"/>
        <pt x="558" y="0" on="0"/>
        <pt x="542" y="21" on="0"/>
        <pt x="542" y="51" on="1"/>
        <pt x="542" y="284" on="1"/>
        <pt x="168" y="284" on="1"/>
        <pt x="141" y="284" on="0"/>
        <pt x="106" y="312" on="0"/>
        <pt x="106" y="338" on="1"/>
        <pt x="106" y="347" on="0"/>
        <pt x="107" y="351" on="1"/>
        <pt x="242" y="1371" on="1"/>
        <pt x="247" y="1407" on="0"/>
        <pt x="262" y="1438" on="0"/>
        <pt x="279" y="1438" on="1"/>
        <pt x="318" y="1438" on="1"/>
        <pt x="346" y="1438" on="0"/>
        <pt x="346" y="1393" on="1"/>
        <pt x="346" y="1383" on="0"/>
        <pt x="344" y="1371" on="1"/>
        <pt x="229" y="413" on="1"/>
        <pt x="226" y="390" on="0"/>
        <pt x="248" y="390" on="1"/>
        <pt x="542" y="390" on="1"/>
        <pt x="542" y="1385" on="1"/>
        <pt x="542" y="1416" on="0"/>
        <pt x="559" y="1438" on="0"/>
        <pt x="577" y="1438" on="1"/>
        <pt x="614" y="1438" on="1"/>
        <pt x="632" y="1438" on="0"/>
        <pt x="649" y="1416" on="0"/>
        <pt x="649" y="1385" on="1"/>
        <pt x="649" y="390" on="1"/>
        <pt x="810" y="390" on="1"/>
        <pt x="841" y="390" on="0"/>
        <pt x="862" y="375" on="0"/>
        <pt x="862" y="349" on="1"/>
        <pt x="862" y="326" on="1"/>
        <pt x="862" y="300" on="0"/>
        <pt x="840" y="284" on="0"/>
        <pt x="810" y="284" on="1"/>
        <pt x="649" y="284" on="1"/>
        <pt x="649" y="51" on="1"/>
        <pt x="649" y="21" on="0"/>
        <pt x="633" y="0" on="0"/>
        <pt x="614" y="0" on="1"/>
      </contour>
    </TTGlyph>
    <TTGlyph name="fraction" xMin="71" yMin="-205" xMax="456" yMax="1647">
      <contour>
        <pt x="79" y="-205" on="1"/>
        <pt x="71" y="-205" on="0"/>
        <pt x="71" y="-182" on="1"/>
        <pt x="71" y="-175" on="0"/>
        <pt x="72" y="-172" on="1"/>
        <pt x="373" y="1614" on="1"/>
        <pt x="378" y="1647" on="0"/>
        <pt x="391" y="1647" on="1"/>
        <pt x="448" y="1647" on="1"/>
        <pt x="456" y="1647" on="0"/>
        <pt x="456" y="1625" on="1"/>
        <pt x="456" y="1618" on="0"/>
        <pt x="455" y="1614" on="1"/>
        <pt x="155" y="-172" on="1"/>
        <pt x="150" y="-205" on="0"/>
        <pt x="138" y="-205" on="1"/>
      </contour>
    </TTGlyph>
    <TTGlyph name="g" xMin="72" yMin="-292" xMax="608" yMax="1314">
      <contour>
        <pt x="320" y="-292" on="1"/>
        <pt x="200" y="-292" on="0"/>
        <pt x="83" y="-201" on="0"/>
        <pt x="83" y="-123" on="1"/>
        <pt x="83" y="-79" on="0"/>
        <pt x="126" y="45" on="0"/>
        <pt x="160" y="102" on="1"/>
        <pt x="164" y="110" on="0"/>
        <pt x="164" y="122" on="0"/>
        <pt x="155" y="127" on="1"/>
        <pt x="80" y="162" on="0"/>
        <pt x="80" y="233" on="1"/>
        <pt x="80" y="247" on="0"/>
        <pt x="82" y="274" on="0"/>
        <pt x="84" y="294" on="0"/>
        <pt x="91" y="316" on="0"/>
        <pt x="94" y="329" on="0"/>
        <pt x="105" y="350" on="0"/>
        <pt x="108" y="357" on="0"/>
        <pt x="123" y="378" on="0"/>
        <pt x="125" y="381" on="0"/>
        <pt x="143" y="404" on="0"/>
        <pt x="144" y="405" on="1"/>
        <pt x="150" y="414" on="0"/>
        <pt x="150" y="421" on="1"/>
        <pt x="150" y="429" on="0"/>
        <pt x="145" y="436" on="1"/>
        <pt x="72" y="532" on="0"/>
        <pt x="72" y="677" on="1"/>
        <pt x="72" y="751" on="0"/>
        <pt x="98" y="870" on="0"/>
        <pt x="153" y="966" on="0"/>
        <pt x="251" y="1019" on="0"/>
        <pt x="318" y="1019" on="1"/>
        <pt x="334" y="1019" on="0"/>
        <pt x="381" y="1008" on="1"/>
        <pt x="388" y="1006" on="0"/>
        <pt x="395" y="1013" on="0"/>
        <pt x="396" y="1025" on="1"/>
        <pt x="420" y="1271" on="1"/>
        <pt x="422" y="1299" on="0"/>
        <pt x="435" y="1314" on="0"/>
        <pt x="450" y="1314" on="1"/>
        <pt x="499" y="1314" on="1"/>
        <pt x="507" y="1314" on="0"/>
        <pt x="515" y="1289" on="0"/>
        <pt x="511" y="1273" on="1"/>
        <pt x="444" y="996" on="1"/>
        <pt x="439" y="974" on="0"/>
        <pt x="455" y="963" on="1"/>
        <pt x="503" y="926" on="0"/>
        <pt x="565" y="772" on="0"/>
        <pt x="565" y="677" on="1"/>
        <pt x="565" y="517" on="0"/>
        <pt x="463" y="349" on="0"/>
        <pt x="336" y="349" on="1"/>
        <pt x="268" y="349" on="0"/>
        <pt x="218" y="379" on="1"/>
        <pt x="162" y="327" on="0"/>
        <pt x="162" y="256" on="1"/>
        <pt x="162" y="221" on="0"/>
        <pt x="214" y="173" on="0"/>
        <pt x="263" y="173" on="1"/>
        <pt x="381" y="173" on="1"/>
        <pt x="503" y="173" on="0"/>
        <pt x="608" y="69" on="0"/>
        <pt x="608" y="-26" on="1"/>
        <pt x="608" y="-292" on="0"/>
      </contour>
      <contour>
        <pt x="315" y="-218" on="1"/>
        <pt x="426" y="-218" on="0"/>
        <pt x="521" y="-127" on="0"/>
        <pt x="521" y="-31" on="1"/>
        <pt x="521" y="101" on="0"/>
        <pt x="379" y="101" on="1"/>
        <pt x="263" y="101" on="1"/>
        <pt x="239" y="101" on="0"/>
        <pt x="180" y="-30" on="0"/>
        <pt x="180" y="-100" on="1"/>
        <pt x="180" y="-155" on="0"/>
        <pt x="239" y="-218" on="0"/>
      </contour>
      <contour>
        <pt x="333" y="424" on="1"/>
        <pt x="377" y="424" on="0"/>
        <pt x="433" y="461" on="0"/>
        <pt x="459" y="536" on="0"/>
        <pt x="467" y="612" on="0"/>
        <pt x="467" y="671" on="1"/>
        <pt x="467" y="724" on="0"/>
        <pt x="452" y="815" on="0"/>
        <pt x="418" y="896" on="0"/>
        <pt x="355" y="942" on="0"/>
        <pt x="312" y="942" on="1"/>
        <pt x="175" y="942" on="0"/>
        <pt x="175" y="682" on="1"/>
        <pt x="175" y="424" on="0"/>
      </contour>
    </TTGlyph>
    <TTGlyph name="gbreve" xMin="72" yMin="-292" xMax="608" yMax="1610">
      <component glyphName="breve" x="-262" y="143" flags="0x1004"/>
      <component glyphName="g" x="0" y="0" flags="0x1204"/>
    </TTGlyph>
    <TTGlyph name="gcircumflex" xMin="72" yMin="-292" xMax="608" yMax="1703">
      <component glyphName="circumflex" x="191" y="201" flags="0x1004"/>
      <component glyphName="g" x="0" y="0" flags="0x1204"/>
    </TTGlyph>
    <TTGlyph name="gcommaaccent" xMin="72" yMin="-292" xMax="608" yMax="1813">
      <component glyphName="g" x="0" y="0" flags="0x1004"/>
      <component glyphName="comma" x="445" y="1528" scale="-1.0" flags="0x1004"/>
    </TTGlyph>
    <TTGlyph name="gdotaccent" xMin="72" yMin="-292" xMax="608" yMax="1623">
      <component glyphName="dotaccent" x="293" y="1338" flags="0x1004"/>
      <component glyphName="g" x="0" y="0" flags="0x1204"/>
    </TTGlyph>
    <TTGlyph name="germandbls" xMin="84" yMin="0" xMax="736" yMax="1438">
      <contour>
        <pt x="176" y="0" on="1"/>
        <pt x="111" y="0" on="1"/>
        <pt x="101" y="0" on="0"/>
        <pt x="92" y="3" on="0"/>
        <pt x="84" y="21" on="0"/>
        <pt x="84" y="39" on="1"/>
        <pt x="84" y="1045" on="1"/>
        <pt x="84" y="1438" on="0"/>
        <pt x="381" y="1438" on="1"/>
        <pt x="519" y="1438" on="0"/>
        <pt x="679" y="1277" on="0"/>
        <pt x="679" y="1117" on="1"/>
        <pt x="679" y="1014" on="0"/>
        <pt x="609" y="886" on="0"/>
        <pt x="526" y="855" on="1"/>
        <pt x="521" y="853" on="0"/>
        <pt x="517" y="847" on="0"/>
        <pt x="521" y="840" on="0"/>
        <pt x="527" y="838" on="1"/>
        <pt x="589" y="816" on="0"/>
        <pt x="675" y="735" on="0"/>
        <pt x="718" y="624" on="0"/>
        <pt x="736" y="512" on="0"/>
        <pt x="736" y="444" on="1"/>
        <pt x="736" y="317" on="0"/>
        <pt x="674" y="140" on="0"/>
        <pt x="557" y="42" on="0"/>
        <pt x="410" y="0" on="0"/>
        <pt x="313" y="0" on="1"/>
        <pt x="297" y="0" on="0"/>
        <pt x="297" y="46" on="1"/>
        <pt x="297" y="88" on="0"/>
        <pt x="313" y="88" on="1"/>
        <pt x="478" y="88" on="0"/>
        <pt x="624" y="261" on="0"/>
        <pt x="624" y="440" on="1"/>
        <pt x="624" y="801" on="0"/>
        <pt x="386" y="801" on="1"/>
        <pt x="369" y="801" on="0"/>
        <pt x="369" y="846" on="1"/>
        <pt x="369" y="887" on="0"/>
        <pt x="386" y="887" on="1"/>
        <pt x="441" y="887" on="0"/>
        <pt x="515" y="921" on="0"/>
        <pt x="554" y="987" on="0"/>
        <pt x="569" y="1062" on="0"/>
        <pt x="569" y="1113" on="1"/>
        <pt x="569" y="1232" on="0"/>
        <pt x="483" y="1348" on="0"/>
        <pt x="383" y="1348" on="1"/>
        <pt x="337" y="1348" on="0"/>
        <pt x="270" y="1317" on="0"/>
        <pt x="229" y="1265" on="0"/>
        <pt x="205" y="1184" on="0"/>
        <pt x="196" y="1096" on="0"/>
        <pt x="196" y="1038" on="1"/>
        <pt x="196" y="38" on="1"/>
        <pt x="196" y="0" on="0"/>
      </contour>
    </TTGlyph>
    <TTGlyph name="grave" xMin="361" yMin="1167" xMax="482" yMax="1603">
      <contour>
        <pt x="447" y="1167" on="1"/>
        <pt x="434" y="1167" on="0"/>
        <pt x="427" y="1206" on="1"/>
        <pt x="365" y="1538" on="1"/>
        <pt x="361" y="1562" on="0"/>
        <pt x="361" y="1575" on="1"/>
        <pt x="361" y="1603" on="0"/>
        <pt x="371" y="1603" on="1"/>
        <pt x="435" y="1603" on="1"/>
        <pt x="447" y="1603" on="0"/>
        <pt x="458" y="1580" on="0"/>
        <pt x="461" y="1548" on="1"/>
        <pt x="481" y="1234" on="1"/>
        <pt x="482" y="1220" on="0"/>
        <pt x="482" y="1199" on="1"/>
        <pt x="482" y="1180" on="0"/>
        <pt x="476" y="1167" on="0"/>
        <pt x="468" y="1167" on="1"/>
      </contour>
    </TTGlyph>
    <TTGlyph name="greater" xMin="99" yMin="115" xMax="449" yMax="1142">
      <contour>
        <pt x="116" y="115" on="1"/>
        <pt x="99" y="115" on="0"/>
        <pt x="99" y="157" on="1"/>
        <pt x="99" y="185" on="1"/>
        <pt x="99" y="215" on="0"/>
        <pt x="113" y="249" on="0"/>
        <pt x="130" y="272" on="1"/>
        <pt x="365" y="630" on="1"/>
        <pt x="370" y="637" on="0"/>
        <pt x="370" y="653" on="0"/>
        <pt x="364" y="659" on="1"/>
        <pt x="131" y="985" on="1"/>
        <pt x="130" y="987" on="0"/>
        <pt x="119" y="1000" on="0"/>
        <pt x="116" y="1003" on="0"/>
        <pt x="108" y="1015" on="0"/>
        <pt x="106" y="1020" on="0"/>
        <pt x="102" y="1032" on="0"/>
        <pt x="100" y="1042" on="0"/>
        <pt x="99" y="1056" on="0"/>
        <pt x="99" y="1064" on="1"/>
        <pt x="99" y="1103" on="1"/>
        <pt x="99" y="1142" on="0"/>
        <pt x="116" y="1142" on="1"/>
        <pt x="119" y="1142" on="0"/>
        <pt x="133" y="1126" on="1"/>
        <pt x="414" y="743" on="1"/>
        <pt x="436" y="714" on="0"/>
        <pt x="449" y="681" on="0"/>
        <pt x="449" y="651" on="1"/>
        <pt x="449" y="632" on="1"/>
        <pt x="449" y="612" on="0"/>
        <pt x="440" y="583" on="0"/>
        <pt x="430" y="567" on="0"/>
        <pt x="413" y="543" on="1"/>
        <pt x="134" y="126" on="1"/>
        <pt x="126" y="115" on="0"/>
      </contour>
    </TTGlyph>
    <TTGlyph name="greaterequal" xMin="125" yMin="77" xMax="541" yMax="1052">
      <contour>
        <pt x="204" y="225" on="1"/>
        <pt x="187" y="225" on="0"/>
        <pt x="187" y="264" on="1"/>
        <pt x="187" y="303" on="1"/>
        <pt x="187" y="311" on="0"/>
        <pt x="188" y="325" on="0"/>
        <pt x="190" y="335" on="0"/>
        <pt x="194" y="347" on="0"/>
        <pt x="196" y="352" on="0"/>
        <pt x="204" y="364" on="0"/>
        <pt x="207" y="367" on="0"/>
        <pt x="218" y="380" on="0"/>
        <pt x="219" y="382" on="1"/>
        <pt x="452" y="608" on="1"/>
        <pt x="458" y="614" on="0"/>
        <pt x="458" y="630" on="0"/>
        <pt x="453" y="637" on="1"/>
        <pt x="218" y="895" on="1"/>
        <pt x="201" y="918" on="0"/>
        <pt x="187" y="952" on="0"/>
        <pt x="187" y="982" on="1"/>
        <pt x="187" y="1010" on="1"/>
        <pt x="187" y="1052" on="0"/>
        <pt x="204" y="1052" on="1"/>
        <pt x="214" y="1052" on="0"/>
        <pt x="222" y="1041" on="1"/>
        <pt x="501" y="723" on="1"/>
        <pt x="518" y="700" on="0"/>
        <pt x="528" y="683" on="0"/>
        <pt x="537" y="655" on="0"/>
        <pt x="537" y="634" on="1"/>
        <pt x="537" y="616" on="1"/>
        <pt x="537" y="586" on="0"/>
        <pt x="524" y="553" on="0"/>
        <pt x="502" y="524" on="1"/>
        <pt x="221" y="241" on="1"/>
        <pt x="207" y="225" on="0"/>
      </contour>
      <contour>
        <pt x="514" y="77" on="1"/>
        <pt x="152" y="77" on="1"/>
        <pt x="138" y="77" on="0"/>
        <pt x="125" y="89" on="0"/>
        <pt x="125" y="109" on="1"/>
        <pt x="125" y="124" on="1"/>
        <pt x="125" y="142" on="0"/>
        <pt x="138" y="154" on="0"/>
        <pt x="152" y="154" on="1"/>
        <pt x="514" y="154" on="1"/>
        <pt x="528" y="154" on="0"/>
        <pt x="541" y="141" on="0"/>
        <pt x="541" y="122" on="1"/>
        <pt x="541" y="107" on="1"/>
        <pt x="541" y="89" on="0"/>
        <pt x="528" y="77" on="0"/>
      </contour>
    </TTGlyph>
    <TTGlyph name="guillemotleft" xMin="62" yMin="234" xMax="657" yMax="1020">
      <contour>
        <pt x="376" y="235" on="1"/>
        <pt x="374" y="235" on="0"/>
        <pt x="308" y="301" on="1"/>
        <pt x="82" y="527" on="0"/>
        <pt x="82" y="537" on="1"/>
        <pt x="62" y="556" on="0"/>
        <pt x="62" y="616" on="1"/>
        <pt x="62" y="678" on="0"/>
        <pt x="67" y="682" on="1"/>
        <pt x="67" y="705" on="0"/>
        <pt x="143" y="785" on="1"/>
        <pt x="144" y="785" on="0"/>
        <pt x="364" y="1018" on="1"/>
        <pt x="366" y="1020" on="0"/>
        <pt x="376" y="1020" on="0"/>
        <pt x="378" y="1015" on="1"/>
        <pt x="387" y="1015" on="0"/>
        <pt x="387" y="956" on="1"/>
        <pt x="387" y="929" on="0"/>
        <pt x="382" y="922" on="1"/>
        <pt x="382" y="912" on="0"/>
        <pt x="375" y="892" on="0"/>
        <pt x="360" y="873" on="0"/>
        <pt x="349" y="860" on="0"/>
        <pt x="331" y="842" on="0"/>
        <pt x="327" y="838" on="0"/>
        <pt x="136" y="633" on="0"/>
        <pt x="136" y="632" on="1"/>
        <pt x="133" y="627" on="0"/>
        <pt x="135" y="618" on="1"/>
        <pt x="135" y="614" on="0"/>
        <pt x="172" y="577" on="1"/>
        <pt x="173" y="576" on="0"/>
        <pt x="272" y="475" on="0"/>
        <pt x="368" y="374" on="0"/>
        <pt x="368" y="370" on="1"/>
        <pt x="387" y="351" on="0"/>
        <pt x="387" y="290" on="1"/>
        <pt x="387" y="258" on="0"/>
        <pt x="384" y="258" on="1"/>
        <pt x="383" y="233" on="0"/>
      </contour>
      <contour>
        <pt x="647" y="234" on="1"/>
        <pt x="644" y="234" on="0"/>
        <pt x="584" y="295" on="0"/>
        <pt x="579" y="301" on="1"/>
        <pt x="572" y="306" on="0"/>
        <pt x="353" y="531" on="0"/>
        <pt x="353" y="537" on="1"/>
        <pt x="332" y="557" on="0"/>
        <pt x="332" y="616" on="1"/>
        <pt x="332" y="678" on="0"/>
        <pt x="337" y="682" on="1"/>
        <pt x="337" y="704" on="0"/>
        <pt x="414" y="785" on="1"/>
        <pt x="635" y="1018" on="1"/>
        <pt x="637" y="1020" on="0"/>
        <pt x="642" y="1020" on="1"/>
        <pt x="646" y="1020" on="0"/>
        <pt x="649" y="1015" on="1"/>
        <pt x="657" y="1015" on="0"/>
        <pt x="657" y="956" on="1"/>
        <pt x="657" y="930" on="0"/>
        <pt x="653" y="922" on="1"/>
        <pt x="653" y="912" on="0"/>
        <pt x="646" y="892" on="0"/>
        <pt x="631" y="873" on="0"/>
        <pt x="620" y="860" on="0"/>
        <pt x="602" y="842" on="0"/>
        <pt x="598" y="838" on="0"/>
        <pt x="407" y="633" on="0"/>
        <pt x="407" y="632" on="1"/>
        <pt x="405" y="628" on="0"/>
        <pt x="405" y="618" on="1"/>
        <pt x="405" y="615" on="0"/>
        <pt x="443" y="577" on="1"/>
        <pt x="444" y="576" on="0"/>
        <pt x="542" y="475" on="0"/>
        <pt x="638" y="374" on="0"/>
        <pt x="638" y="370" on="1"/>
        <pt x="657" y="351" on="0"/>
        <pt x="657" y="290" on="1"/>
        <pt x="657" y="258" on="0"/>
        <pt x="654" y="258" on="1"/>
        <pt x="654" y="234" on="0"/>
        <pt x="648" y="234" on="1"/>
      </contour>
    </TTGlyph>
</ttFont>
